<svg width="24" height="25" viewBox="0 0 24 25" fill="none" xmlns="http://www.w3.org/2000/svg">
<path d="M21.4859 5.38419L13.7189 0.585862C13.1032 0.202944 12.3927 0 11.6677 0C10.9427 0 10.2322 0.202944 9.61655 0.585862L1.84946 5.38419C1.28263 5.73238 0.814831 6.22045 0.490963 6.80152C0.167095 7.38259 -0.00196347 8.03716 1.72057e-05 8.70239V20.2081C0.00152017 21.2422 0.412957 22.2334 1.14413 22.9646C1.87531 23.6958 2.86657 24.1072 3.90061 24.1087H19.4348C20.4688 24.1072 21.4601 23.6958 22.1913 22.9646C22.9224 22.2334 23.3339 21.2422 23.3354 20.2081V8.70239C23.3374 8.03716 23.1683 7.38259 22.8444 6.80152C22.5206 6.22045 22.0528 5.73238 21.4859 5.38419ZM11.6677 19.9354C10.4077 19.9339 9.19977 19.4321 8.30958 18.5403C7.4194 17.6485 6.91976 16.4397 6.92052 15.1797C6.92052 14.916 7.02527 14.6631 7.21174 14.4766C7.39822 14.2901 7.65113 14.1854 7.91484 14.1854C8.17855 14.1854 8.43146 14.2901 8.61793 14.4766C8.8044 14.6631 8.90916 14.916 8.90916 15.1797C8.90916 15.9113 9.19979 16.613 9.71712 17.1303C10.2344 17.6476 10.9361 17.9382 11.6677 17.9382C12.3993 17.9382 13.101 17.6476 13.6183 17.1303C14.1356 16.613 14.4262 15.9113 14.4262 15.1797C14.4262 14.916 14.531 14.6631 14.7175 14.4766C14.9039 14.2901 15.1569 14.1854 15.4206 14.1854C15.6843 14.1854 15.9372 14.2901 16.1237 14.4766C16.3101 14.6631 16.4149 14.916 16.4149 15.1797C16.4156 16.4397 15.916 17.6485 15.0258 18.5403C14.1356 19.4321 12.9278 19.9339 11.6677 19.9354Z" fill="white"/>
</svg>
