<svg width="17" height="12" viewBox="0 0 17 12" fill="none" xmlns="http://www.w3.org/2000/svg">
<path d="M8.46684 0.726074C4.74967 0.726074 1.5752 3.03815 0.289062 6.30183C1.5752 9.56551 4.74967 11.8776 8.46684 11.8776C12.184 11.8776 15.3585 9.56551 16.6446 6.30183C15.3585 3.03815 12.184 0.726074 8.46684 0.726074ZM8.46684 10.019C6.41496 10.019 4.74967 8.35371 4.74967 6.30183C4.74967 4.24995 6.41496 2.58466 8.46684 2.58466C10.5187 2.58466 12.184 4.24995 12.184 6.30183C12.184 8.35371 10.5187 10.019 8.46684 10.019ZM8.46684 4.07153C7.23274 4.07153 6.23654 5.06773 6.23654 6.30183C6.23654 7.53593 7.23274 8.53213 8.46684 8.53213C9.70094 8.53213 10.6971 7.53593 10.6971 6.30183C10.6971 5.06773 9.70094 4.07153 8.46684 4.07153Z" fill="#4D4D4D"/>
</svg>
