<svg width="34" height="34" viewBox="0 0 34 34" fill="none" xmlns="http://www.w3.org/2000/svg">
<circle cx="17" cy="17" r="17" fill="#1A86FF"/>
<path d="M23.5617 16.7955C23.5664 17.2637 23.7245 17.72 24.0158 18.1069C24.3072 18.4938 24.7187 18.7938 25.1984 18.969C25.6781 19.1441 26.2045 19.1866 26.7108 19.091C27.2172 18.9955 27.6809 18.7661 28.0433 18.432C28.4057 18.0979 28.6504 17.674 28.7467 17.214C28.8429 16.754 28.7863 16.2785 28.5839 15.8476C28.3815 15.4167 28.0426 15.0498 27.6098 14.7933C27.1771 14.5368 26.67 14.4021 26.1528 14.4065C25.4592 14.4123 24.7965 14.6672 24.3106 15.1152C23.8247 15.5633 23.5553 16.1677 23.5617 16.7955ZM10.4853 16.9048C10.4805 16.4366 10.3225 15.9802 10.0311 15.5933C9.73979 15.2064 9.32825 14.9064 8.84854 14.7313C8.36884 14.5561 7.84251 14.5136 7.33613 14.6092C6.82975 14.7048 6.36605 14.9341 6.00368 15.2682C5.6413 15.6023 5.39652 16.0262 5.3003 16.4862C5.20407 16.9463 5.26072 17.4218 5.46307 17.8527C5.66543 18.2836 6.0044 18.6505 6.43714 18.907C6.86987 19.1635 7.37692 19.2981 7.89417 19.2938C8.58779 19.288 9.25045 19.033 9.73638 18.585C10.2223 18.137 10.4917 17.5326 10.4853 16.9048ZM19.6388 16.8283C19.634 16.3601 19.4759 15.9037 19.1846 15.5168C18.8932 15.1299 18.4817 14.83 18.002 14.6548C17.5223 14.4796 16.996 14.4371 16.4896 14.5327C15.9832 14.6283 15.5195 14.8576 15.1571 15.1917C14.7948 15.5258 14.55 15.9497 14.4538 16.4097C14.3575 16.8698 14.4142 17.3453 14.6165 17.7762C14.8189 18.2071 15.1579 18.574 15.5906 18.8305C16.0233 19.087 16.5304 19.2216 17.0476 19.2173C17.7412 19.2115 18.4039 18.9565 18.8898 18.5085C19.3758 18.0605 19.6452 17.4561 19.6388 16.8283Z" fill="#B0BEC5"/>
</svg>
