<svg width="26" height="26" viewBox="0 0 26 26" fill="none" xmlns="http://www.w3.org/2000/svg">
<circle cx="13" cy="13" r="13" fill="#1A86FF"/>
<path d="M18.0177 12.8436C18.0213 13.2016 18.1422 13.5506 18.365 13.8465C18.5878 14.1423 18.9025 14.3717 19.2693 14.5057C19.6361 14.6396 20.0386 14.6721 20.4258 14.599C20.8131 14.5259 21.1677 14.3506 21.4448 14.0951C21.7219 13.8396 21.9091 13.5154 21.9827 13.1636C22.0562 12.8119 22.0129 12.4482 21.8582 12.1187C21.7034 11.7892 21.4442 11.5087 21.1133 11.3125C20.7824 11.1163 20.3947 11.0134 19.9991 11.0167C19.4687 11.0211 18.962 11.2161 18.5904 11.5587C18.2188 11.9013 18.0128 12.3635 18.0177 12.8436ZM8.01808 12.9272C8.01443 12.5691 7.89357 12.2201 7.67078 11.9243C7.44799 11.6285 7.13328 11.3991 6.76645 11.2651C6.39961 11.1311 5.99713 11.0987 5.6099 11.1717C5.22266 11.2448 4.86807 11.4202 4.59096 11.6757C4.31385 11.9312 4.12667 12.2553 4.05308 12.6071C3.9795 12.9589 4.02281 13.3225 4.17756 13.652C4.3323 13.9815 4.59152 14.2621 4.92243 14.4583C5.25334 14.6544 5.64109 14.7574 6.03663 14.7541C6.56705 14.7496 7.07378 14.5547 7.44538 14.2121C7.81697 13.8694 8.02298 13.4073 8.01808 12.9272ZM15.0178 12.8687C15.0141 12.5107 14.8933 12.1617 14.6705 11.8658C14.4477 11.57 14.133 11.3406 13.7661 11.2066C13.3993 11.0726 12.9968 11.0402 12.6096 11.1132C12.2224 11.1863 11.8678 11.3617 11.5907 11.6172C11.3136 11.8727 11.1264 12.1968 11.0528 12.5486C10.9792 12.9004 11.0225 13.2641 11.1773 13.5936C11.332 13.9231 11.5912 14.2036 11.9221 14.3998C12.253 14.5959 12.6408 14.6989 13.0363 14.6956C13.5667 14.6911 14.0735 14.4962 14.4451 14.1536C14.8167 13.811 15.0227 13.3488 15.0178 12.8687Z" fill="#B0BEC5"/>
</svg>
