<svg width="30" height="30" viewBox="0 0 30 30" fill="none" xmlns="http://www.w3.org/2000/svg">
<path d="M16.5169 15.0044L23.2669 8.2651C23.4687 8.06334 23.582 7.78971 23.582 7.50438C23.582 7.21906 23.4687 6.94542 23.2669 6.74367C23.0652 6.54191 22.7916 6.42857 22.5062 6.42857C22.2209 6.42857 21.9473 6.54191 21.7455 6.74367L15.0062 13.4937L8.26694 6.74367C8.06519 6.54191 7.79155 6.42857 7.50623 6.42857C7.22091 6.42857 6.94727 6.54191 6.74552 6.74367C6.54376 6.94542 6.43042 7.21906 6.43042 7.50438C6.43042 7.78971 6.54376 8.06334 6.74552 8.2651L13.4955 15.0044L6.74552 21.7437C6.64509 21.8433 6.56538 21.9618 6.51099 22.0923C6.45659 22.2229 6.42859 22.3629 6.42859 22.5044C6.42859 22.6458 6.45659 22.7859 6.51099 22.9164C6.56538 23.047 6.64509 23.1655 6.74552 23.2651C6.84512 23.3655 6.96362 23.4452 7.09418 23.4996C7.22475 23.554 7.36479 23.582 7.50623 23.582C7.64767 23.582 7.78771 23.554 7.91828 23.4996C8.04884 23.4452 8.16734 23.3655 8.26694 23.2651L15.0062 16.5151L21.7455 23.2651C21.8451 23.3655 21.9636 23.4452 22.0942 23.4996C22.2247 23.554 22.3648 23.582 22.5062 23.582C22.6477 23.582 22.7877 23.554 22.9183 23.4996C23.0488 23.4452 23.1673 23.3655 23.2669 23.2651C23.3674 23.1655 23.4471 23.047 23.5015 22.9164C23.5559 22.7859 23.5839 22.6458 23.5839 22.5044C23.5839 22.3629 23.5559 22.2229 23.5015 22.0923C23.4471 21.9618 23.3674 21.8433 23.2669 21.7437L16.5169 15.0044Z" fill="white"/>
</svg>
