<svg width="22" height="22" viewBox="0 0 22 22" fill="none" xmlns="http://www.w3.org/2000/svg">
<path d="M16.741 9.67592H16.1713V8.80017H16.741C19.1558 8.80017 21.1235 6.83409 21.1235 4.42138V3.1165H16.1713V2.24074H22V4.42138C22 7.31576 19.6422 9.67592 16.741 9.67592ZM5.25896 9.67592H5.82869V8.80017H5.25896C2.84422 8.80017 0.876494 6.83409 0.876494 4.42138V3.1165H5.96016V2.24074H0V4.42138C0 7.31576 2.35777 9.67592 5.25896 9.67592Z" fill="#EDA900"/>
<path d="M18.1299 17.213H3.87061V22H18.1299V17.213Z" fill="#1F3F77"/>
<path d="M18.1299 17.213H3.87061V18.0278H18.1299V17.213Z" fill="#0A2751"/>
<path d="M19.3517 20.6759H2.64795V22H19.3517V20.6759Z" fill="#3179AF"/>
<path d="M15.5831 20.6759H2.64795V22H15.5831V20.6759Z" fill="#68A1D6"/>
<path d="M13.8517 15.8889H8.14795V17.213H13.8517V15.8889Z" fill="#E36414"/>
<path d="M12.222 15.8889H8.14795V17.213H12.222V15.8889Z" fill="#F8961E"/>
<path d="M4.78711 0V9.25243C4.78711 10.5911 5.66397 11.7674 6.94622 12.1581C8.22847 12.5487 9.10534 13.7294 9.10534 15.0637V15.8889H12.8948V15.0637C12.8948 13.725 13.7717 12.5487 15.0539 12.1581C16.3362 11.7674 17.213 10.5867 17.213 9.25243V0H4.78711Z" fill="#F8D707"/>
<path d="M19.3517 17.0093H2.64795V17.4167H19.3517V17.0093Z" fill="#3179AF"/>
<path d="M15.685 17.0093H2.64795V17.4167H15.685V17.0093Z" fill="#68A1D6"/>
<path d="M15.3799 18.7407H6.62061V19.1481H15.3799V18.7407Z" fill="#F8D707"/>
<path d="M4.78711 0V2.1946H11.0353C12.3044 2.1946 13.3354 3.22167 13.3354 4.48576V10.161C13.3354 10.9862 12.8904 11.7499 12.1678 12.1581C11.4451 12.5663 11.0001 13.3256 11.0001 14.1552V15.8889H12.8948V15.0637C12.8948 13.725 13.7717 12.5487 15.0539 12.1581C16.3362 11.7674 17.213 10.5867 17.213 9.25243V0H4.78711Z" fill="#EDA900"/>
<path d="M17.8239 0H4.17578V1.32407H17.8239V0Z" fill="#F8D707"/>
<path d="M7.12943 0H5.39795V1.32407H7.12943V0Z" fill="#FFFA5A"/>
<path d="M11.7132 0H8.86133V1.32407H11.7132V0Z" fill="#FFFA5A"/>
<path d="M7.89345 3.05556C6.96551 3.05556 6.21289 3.83143 6.21289 4.78805V6.21195C6.21289 7.16857 6.96551 7.94445 7.89345 7.94445C8.82139 7.94445 9.574 7.16857 9.574 6.21195V4.78805C9.574 3.83143 8.82139 3.05556 7.89345 3.05556Z" fill="#FFFA5A"/>
<path d="M11.4076 9.16666H10.5249V5.24999H10.0835V4.37962H10.9662C11.209 4.37962 11.4076 4.57546 11.4076 4.81481V9.16666Z" fill="#F8961E"/>
<path d="M16.741 9.67592H16.1713V8.80017H16.741C19.1558 8.80017 21.1235 6.83409 21.1235 4.42138V3.1165H16.1713V2.24074H22V4.42138C22 7.31576 19.6422 9.67592 16.741 9.67592ZM5.25896 9.67592H5.82869V8.80017H5.25896C2.84422 8.80017 0.876494 6.83409 0.876494 4.42138V3.1165H5.96016V2.24074H0V4.42138C0 7.31576 2.35777 9.67592 5.25896 9.67592Z" fill="#EDA900"/>
<path d="M18.1299 17.213H3.87061V22H18.1299V17.213Z" fill="#1F3F77"/>
<path d="M18.1299 17.213H3.87061V18.0278H18.1299V17.213Z" fill="#0A2751"/>
<path d="M19.3517 20.6759H2.64795V22H19.3517V20.6759Z" fill="#3179AF"/>
<path d="M15.5831 20.6759H2.64795V22H15.5831V20.6759Z" fill="#68A1D6"/>
<path d="M13.8517 15.8889H8.14795V17.213H13.8517V15.8889Z" fill="#E36414"/>
<path d="M12.222 15.8889H8.14795V17.213H12.222V15.8889Z" fill="#F8961E"/>
<path d="M4.78711 0V9.25243C4.78711 10.5911 5.66397 11.7674 6.94622 12.1581C8.22847 12.5487 9.10534 13.7294 9.10534 15.0637V15.8889H12.8948V15.0637C12.8948 13.725 13.7717 12.5487 15.0539 12.1581C16.3362 11.7674 17.213 10.5867 17.213 9.25243V0H4.78711Z" fill="#F8D707"/>
<path d="M19.3517 17.0093H2.64795V17.4167H19.3517V17.0093Z" fill="#3179AF"/>
<path d="M15.685 17.0093H2.64795V17.4167H15.685V17.0093Z" fill="#68A1D6"/>
<path d="M15.3799 18.7407H6.62061V19.1481H15.3799V18.7407Z" fill="#F8D707"/>
<path d="M4.78711 0V2.1946H11.0353C12.3044 2.1946 13.3354 3.22167 13.3354 4.48576V10.161C13.3354 10.9862 12.8904 11.7499 12.1678 12.1581C11.4451 12.5663 11.0001 13.3256 11.0001 14.1552V15.8889H12.8948V15.0637C12.8948 13.725 13.7717 12.5487 15.0539 12.1581C16.3362 11.7674 17.213 10.5867 17.213 9.25243V0H4.78711Z" fill="#EDA900"/>
<path d="M17.8239 0H4.17578V1.32407H17.8239V0Z" fill="#F8D707"/>
<path d="M7.12943 0H5.39795V1.32407H7.12943V0Z" fill="#FFFA5A"/>
<path d="M11.7132 0H8.86133V1.32407H11.7132V0Z" fill="#FFFA5A"/>
<path d="M7.89345 3.05556C6.96551 3.05556 6.21289 3.83143 6.21289 4.78805V6.21195C6.21289 7.16857 6.96551 7.94445 7.89345 7.94445C8.82139 7.94445 9.574 7.16857 9.574 6.21195V4.78805C9.574 3.83143 8.82139 3.05556 7.89345 3.05556Z" fill="#FFFA5A"/>
<path d="M11.4076 9.16666H10.5249V5.24999H10.0835V4.37962H10.9662C11.209 4.37962 11.4076 4.57546 11.4076 4.81481V9.16666Z" fill="#F8961E"/>
</svg>
