<svg width="18" height="18" viewBox="0 0 18 18" fill="none" xmlns="http://www.w3.org/2000/svg">
<path d="M17.9379 9.24312C17.8897 9.36046 17.8079 9.4609 17.7027 9.53179C17.5975 9.60268 17.4736 9.64085 17.3468 9.64148H15.4192V17.3517C15.4192 17.5221 15.3516 17.6855 15.2311 17.806C15.1106 17.9265 14.9471 17.9942 14.7767 17.9942H10.9216C10.7512 17.9942 10.5878 17.9265 10.4673 17.806C10.3468 17.6855 10.2791 17.5221 10.2791 17.3517V14.1391C10.2791 13.9687 10.2114 13.8053 10.0909 13.6848C9.97042 13.5643 9.807 13.4966 9.63659 13.4966H8.35156C8.18115 13.4966 8.01772 13.5643 7.89723 13.6848C7.77673 13.8053 7.70904 13.9687 7.70904 14.1391V17.3517C7.70904 17.5221 7.64135 17.6855 7.52085 17.806C7.40035 17.9265 7.23693 17.9942 7.06652 17.9942H3.21142C3.04101 17.9942 2.87759 17.9265 2.75709 17.806C2.6366 17.6855 2.5689 17.5221 2.5689 17.3517V9.64148H0.641352C0.514503 9.64085 0.390679 9.60268 0.285486 9.53179C0.180293 9.4609 0.0984377 9.36046 0.050236 9.24312C0.00103246 9.12611 -0.0124107 8.99715 0.0116028 8.87251C0.0356163 8.74787 0.0960105 8.63313 0.185165 8.54278L8.53789 0.190055C8.59762 0.129833 8.66868 0.0820337 8.74698 0.049414C8.82527 0.0167943 8.90925 0 8.99407 0C9.07889 0 9.16287 0.0167943 9.24117 0.049414C9.31947 0.0820337 9.39053 0.129833 9.45026 0.190055L17.803 8.54278C17.8921 8.63313 17.9525 8.74787 17.9765 8.87251C18.0006 8.99715 17.9871 9.12611 17.9379 9.24312Z" fill="#1A86FF"/>
</svg>
