<svg width="18" height="16" viewBox="0 0 18 16" fill="none" xmlns="http://www.w3.org/2000/svg">
<path d="M12.5968 15.1305L13.9981 12.7033C14.1819 12.3837 13.9518 11.9843 13.5827 11.9843H10.78C10.4109 11.9843 10.1808 12.3837 10.3645 12.7033L11.7659 15.1305C11.9496 15.4501 12.4114 15.4501 12.5968 15.1305Z" fill="white"/>
<path d="M16.6181 0H1.27832C0.572048 0 0 0.572048 0 1.27832V11.5049C0 12.2111 0.572048 12.7832 1.27832 12.7832H16.6181C17.3244 12.7832 17.8965 12.2111 17.8965 11.5049V1.27832C17.8965 0.572048 17.3244 0 16.6181 0ZM5.83073 7.35033C5.30183 7.35033 4.87199 6.9205 4.87199 6.39159C4.87199 5.86269 5.30183 5.43285 5.83073 5.43285C6.35963 5.43285 6.78947 5.86269 6.78947 6.39159C6.78947 6.9205 6.35963 7.35033 5.83073 7.35033ZM8.94823 7.35033C8.41933 7.35033 7.98949 6.9205 7.98949 6.39159C7.98949 5.86269 8.41933 5.43285 8.94823 5.43285C9.47713 5.43285 9.90697 5.86269 9.90697 6.39159C9.90697 6.9205 9.47713 7.35033 8.94823 7.35033ZM12.0657 7.35033C11.5368 7.35033 11.107 6.9205 11.107 6.39159C11.107 5.86269 11.5368 5.43285 12.0657 5.43285C12.5946 5.43285 13.0245 5.86269 13.0245 6.39159C13.0245 6.9205 12.5946 7.35033 12.0657 7.35033Z" fill="white"/>
</svg>
