<svg width="16" height="13" viewBox="0 0 16 13" fill="none" xmlns="http://www.w3.org/2000/svg">
<path d="M14.1632 0H0.920925C0.412829 0 0 0.412829 0 0.920925V8.63764C0 9.14574 0.412829 9.55857 0.920925 9.55857H2.50873V11.9879C2.50873 12.7183 3.3979 13.0835 3.90599 12.5595L6.90694 9.54269H14.1791C14.6872 9.54269 15.1 9.12986 15.1 8.62177V0.920925C15.0841 0.412829 14.6713 0 14.1632 0ZM4.93806 4.35058L4.36646 4.92219C4.35058 4.93806 4.35058 4.95394 4.35058 4.96982L4.4776 5.74784C4.49348 5.82723 4.39821 5.89075 4.3347 5.85899L3.62019 5.47792C3.60431 5.46204 3.58843 5.46204 3.55668 5.47792L2.85804 5.84311C2.77865 5.89075 2.69926 5.81136 2.71514 5.73197L2.85804 4.93806C2.85804 4.92219 2.85804 4.89043 2.84217 4.89043L2.27056 4.3347C2.20704 4.27119 2.2388 4.17592 2.33407 4.16004L3.12797 4.0489C3.14385 4.0489 3.15973 4.03302 3.1756 4.01714L3.52492 3.30263C3.55668 3.22324 3.66782 3.22324 3.71546 3.30263L4.06477 4.01714C4.08065 4.03302 4.09653 4.0489 4.11241 4.0489L4.89043 4.16004C4.96982 4.1918 5.00158 4.30294 4.93806 4.35058ZM8.87581 4.35058L8.3042 4.90631C8.28833 4.92219 8.28833 4.93806 8.28833 4.95394L8.41535 5.73197C8.43123 5.81136 8.33596 5.87487 8.27245 5.84311L7.55794 5.46204C7.54206 5.44616 7.52618 5.44616 7.49443 5.46204L6.79579 5.82723C6.7164 5.87487 6.63701 5.79548 6.65289 5.71609L6.79579 4.92219C6.79579 4.90631 6.79579 4.87455 6.77992 4.87455L6.20831 4.31882C6.14479 4.25531 6.17655 4.16004 6.27182 4.14416L7.06572 4.03302C7.0816 4.03302 7.09748 4.01714 7.11335 4.00126L7.46267 3.28675C7.49443 3.20736 7.60557 3.20736 7.65321 3.28675L8.00252 4.00126C8.0184 4.01714 8.03428 4.03302 8.05016 4.03302L8.82818 4.14416C8.90757 4.1918 8.93933 4.30294 8.87581 4.35058ZM12.8136 4.35058L12.242 4.90631C12.2261 4.92219 12.2261 4.93806 12.2261 4.95394L12.3531 5.73197C12.369 5.81136 12.2737 5.87487 12.2102 5.84311L11.4957 5.46204C11.4798 5.44616 11.4639 5.44616 11.4322 5.46204L10.7335 5.82723C10.6542 5.87487 10.5748 5.79548 10.5906 5.71609L10.7335 4.92219C10.7335 4.90631 10.7335 4.87455 10.7177 4.87455L10.1461 4.31882C10.0825 4.25531 10.1143 4.16004 10.2096 4.14416L11.0035 4.03302C11.0193 4.03302 11.0352 4.01714 11.0511 4.00126L11.4004 3.28675C11.4322 3.20736 11.5433 3.20736 11.591 3.28675L11.9403 4.00126C11.9562 4.01714 11.972 4.03302 11.9879 4.03302L12.7659 4.14416C12.8453 4.1918 12.8771 4.30294 12.8136 4.35058Z" fill="white"/>
</svg>
