<svg width="28" height="28" viewBox="0 0 28 28" fill="none" xmlns="http://www.w3.org/2000/svg">
<circle cx="14" cy="14" r="14" fill="#141517"/>
<path d="M15.4158 14.0041L21.7158 7.71409C21.9041 7.52579 22.0099 7.27039 22.0099 7.00409C22.0099 6.73779 21.9041 6.4824 21.7158 6.29409C21.5275 6.10579 21.2721 6 21.0058 6C20.7395 6 20.4841 6.10579 20.2958 6.29409L14.0058 12.5941L7.7158 6.29409C7.52749 6.10579 7.2721 6 7.0058 6C6.7395 6 6.4841 6.10579 6.2958 6.29409C6.10749 6.4824 6.00171 6.73779 6.00171 7.00409C6.00171 7.27039 6.10749 7.52579 6.2958 7.71409L12.5958 14.0041L6.2958 20.2941C6.20207 20.3871 6.12768 20.4977 6.07691 20.6195C6.02614 20.7414 6 20.8721 6 21.0041C6 21.1361 6.02614 21.2668 6.07691 21.3887C6.12768 21.5105 6.20207 21.6211 6.2958 21.7141C6.38876 21.8078 6.49936 21.8822 6.62122 21.933C6.74308 21.9838 6.87379 22.0099 7.0058 22.0099C7.13781 22.0099 7.26852 21.9838 7.39038 21.933C7.51223 21.8822 7.62284 21.8078 7.7158 21.7141L14.0058 15.4141L20.2958 21.7141C20.3888 21.8078 20.4994 21.8822 20.6212 21.933C20.7431 21.9838 20.8738 22.0099 21.0058 22.0099C21.1378 22.0099 21.2685 21.9838 21.3904 21.933C21.5122 21.8822 21.6228 21.8078 21.7158 21.7141C21.8095 21.6211 21.8839 21.5105 21.9347 21.3887C21.9855 21.2668 22.0116 21.1361 22.0116 21.0041C22.0116 20.8721 21.9855 20.7414 21.9347 20.6195C21.8839 20.4977 21.8095 20.3871 21.7158 20.2941L15.4158 14.0041Z" fill="white"/>
</svg>
