<svg width="22" height="22" viewBox="0 0 22 22" fill="none" xmlns="http://www.w3.org/2000/svg">
<path d="M11 22C4.93778 22 0 17.0622 0 11C0 4.93778 4.93778 0 11 0C17.0622 0 22 4.93778 22 11C22 17.0622 17.0622 22 11 22ZM11 1.95556C6.01333 1.95556 1.95556 6.01333 1.95556 11C1.95556 15.9867 6.01333 20.0444 11 20.0444C15.9867 20.0444 20.0444 15.9867 20.0444 11C20.0444 6.01333 15.9867 1.95556 11 1.95556ZM11 18.3333C10.4622 18.3333 10.0222 17.8933 10.0222 17.3556V10.0222C10.0222 9.48444 10.4622 9.04444 11 9.04444C11.5378 9.04444 11.9778 9.48444 11.9778 10.0222V17.3556C11.9778 17.8933 11.5378 18.3333 11 18.3333ZM11 7.08889C10.0467 7.08889 9.28889 6.33111 9.28889 5.37778C9.28889 4.42444 10.0467 3.66667 11 3.66667C11.9533 3.66667 12.7111 4.42444 12.7111 5.37778C12.7111 6.33111 11.9533 7.08889 11 7.08889Z" fill="white"/>
</svg>
