<svg width="70" height="218" viewBox="0 0 70 218" fill="none" xmlns="http://www.w3.org/2000/svg">
<path d="M1.37598 113.858C1.37598 113.858 13.9616 86.4858 15.36 75.9795C16.7584 65.4733 13.9616 40.9709 17.4637 31.1699C20.9658 21.369 18.8621 8.75907 27.2646 3.85859C35.6672 -1.04189 46.8665 0.3565 48.9702 19.9584C51.0739 39.5603 48.9702 70.3738 49.6755 80.88C50.3808 91.3863 68.5843 106.793 69.2774 129.192C69.9827 151.603 62.2733 174.707 60.1696 184.508C58.0659 194.309 49.6633 217.413 49.6633 217.413" fill="#1986FF"/>
<path d="M1.37598 113.858C1.37598 113.858 13.9616 86.4858 15.36 75.9795C16.7584 65.4733 13.9616 40.9709 17.4637 31.1699C20.9658 21.369 18.8621 8.75907 27.2646 3.85859C35.6672 -1.04189 46.8665 0.3565 48.9702 19.9584C51.0739 39.5603 48.9702 70.3738 49.6755 80.88C50.3808 91.3863 68.5843 106.793 69.2774 129.192C69.9827 151.603 62.2733 174.707 60.1696 184.508C58.0659 194.309 49.6633 217.413 49.6633 217.413" stroke="white" stroke-width="1.079" stroke-miterlimit="10" stroke-linecap="round" stroke-linejoin="round"/>
<path d="M20.9171 26.5127C20.9171 26.5127 26.5593 24.8589 33.5635 26.2695C40.5677 27.6679 44.7629 29.0663 44.7629 29.0663C44.7629 29.0663 45.4681 22.0621 44.7629 15.058C44.7629 15.058 45.687 7.05671 40.8473 3.82215C35.9955 0.587586 26.304 1.40229 23.0694 8.67397C19.8349 15.9457 20.9171 26.5127 20.9171 26.5127Z" stroke="white" stroke-width="1.079" stroke-miterlimit="10" stroke-linecap="round" stroke-linejoin="round"/>
<path d="M38.4277 39.3901C38.4277 39.3901 22.2671 34.5382 18.2178 41.0074" stroke="white" stroke-width="1.079" stroke-miterlimit="10" stroke-linecap="round" stroke-linejoin="round"/>
<path d="M22.2549 43.4272C22.2549 43.4272 27.1067 45.0445 37.6129 44.2298" stroke="white" stroke-width="1.079" stroke-miterlimit="10" stroke-linecap="round" stroke-linejoin="round"/>
</svg>
