<svg width="16" height="16" viewBox="0 0 16 16" fill="none" xmlns="http://www.w3.org/2000/svg">
<path d="M8 15.9998C3.59111 15.9998 0 12.4086 0 7.99976C0 3.59087 3.59111 -0.000244141 8 -0.000244141C12.4089 -0.000244141 16 3.59087 16 7.99976C16 12.4086 12.4089 15.9998 8 15.9998ZM8 1.42198C4.37333 1.42198 1.42222 4.37309 1.42222 7.99976C1.42222 11.6264 4.37333 14.5775 8 14.5775C11.6267 14.5775 14.5778 11.6264 14.5778 7.99976C14.5778 4.37309 11.6267 1.42198 8 1.42198ZM8 13.3331C7.60889 13.3331 7.28889 13.0131 7.28889 12.622V7.28864C7.28889 6.89753 7.60889 6.57753 8 6.57753C8.39111 6.57753 8.71111 6.89753 8.71111 7.28864V12.622C8.71111 13.0131 8.39111 13.3331 8 13.3331ZM8 5.15531C7.30667 5.15531 6.75556 4.6042 6.75556 3.91087C6.75556 3.21753 7.30667 2.66642 8 2.66642C8.69333 2.66642 9.24444 3.21753 9.24444 3.91087C9.24444 4.6042 8.69333 5.15531 8 5.15531Z" fill="white"/>
</svg>
