<svg width="28" height="28" viewBox="0 0 28 28" fill="none" xmlns="http://www.w3.org/2000/svg">
<path d="M14 28C6.28444 28 0 21.7156 0 14C0 6.28444 6.28444 0 14 0C21.7156 0 28 6.28444 28 14C28 21.7156 21.7156 28 14 28ZM14 2.48889C7.65333 2.48889 2.48889 7.65333 2.48889 14C2.48889 20.3467 7.65333 25.5111 14 25.5111C20.3467 25.5111 25.5111 20.3467 25.5111 14C25.5111 7.65333 20.3467 2.48889 14 2.48889ZM14 23.3333C13.3156 23.3333 12.7556 22.7733 12.7556 22.0889V12.7556C12.7556 12.0711 13.3156 11.5111 14 11.5111C14.6844 11.5111 15.2444 12.0711 15.2444 12.7556V22.0889C15.2444 22.7733 14.6844 23.3333 14 23.3333ZM14 9.02222C12.7867 9.02222 11.8222 8.05778 11.8222 6.84444C11.8222 5.63111 12.7867 4.66667 14 4.66667C15.2133 4.66667 16.1778 5.63111 16.1778 6.84444C16.1778 8.05778 15.2133 9.02222 14 9.02222Z" fill="white"/>
</svg>
