<svg width="244" height="267" viewBox="0 0 244 267" fill="none" xmlns="http://www.w3.org/2000/svg">
<path d="M76.8905 21.4266C76.8905 21.4266 58.687 27.0324 60.0854 31.9329C61.4838 36.8334 95.0941 78.8461 100.7 77.4477C106.306 76.0493 112.604 57.8458 112.604 45.2359C112.604 32.6382 76.8905 21.4266 76.8905 21.4266Z" fill="#1986FF"/>
<path d="M225.705 145.13L208.535 124.361C208.535 124.361 186.124 71.8419 179.825 61.3357C173.526 50.8294 159.518 20.7213 154.617 19.3229C149.717 17.9245 142.713 17.2192 140.609 15.8208C138.505 14.4224 130.103 11.6256 118.903 10.9203C107.704 10.2151 84.5879 5.31457 74.787 2.51777C64.986 -0.279033 64.2807 2.51776 52.3761 6.71296C40.4715 10.9203 4.75751 23.5181 1.96071 25.6218C-0.836088 27.7254 2.66603 34.0243 11.7617 37.5264C20.8695 41.0285 25.0647 38.2317 35.571 36.8211C46.0772 35.4227 62.177 32.6259 64.2807 32.6259C66.3844 32.6259 81.7911 34.7296 84.5879 36.128C87.3847 37.5264 94.3889 48.7379 94.3889 54.3315C94.3889 59.9373 92.9905 66.2362 92.9905 66.2362L92.7108 114.864C92.7108 114.864 114.878 139.877 130.237 148.401C145.582 156.925 152.976 157.497 152.976 157.497L176.858 179.665" fill="#1986FF"/>
<path d="M225.705 145.13L208.535 124.361C208.535 124.361 186.124 71.8419 179.825 61.3357C173.526 50.8294 159.518 20.7213 154.617 19.3229C149.717 17.9245 142.713 17.2192 140.609 15.8208C138.505 14.4224 130.103 11.6256 118.903 10.9203C107.704 10.2151 84.5879 5.31457 74.787 2.51777C64.986 -0.279033 64.2807 2.51776 52.3761 6.71296C40.4715 10.9203 4.75751 23.5181 1.96071 25.6218C-0.836088 27.7254 2.66603 34.0243 11.7617 37.5264C20.8695 41.0285 25.0647 38.2317 35.571 36.8211C46.0772 35.4227 62.177 32.6259 64.2807 32.6259C66.3844 32.6259 81.7911 34.7296 84.5879 36.128C87.3847 37.5264 94.3889 48.7379 94.3889 54.3315C94.3889 59.9373 92.9905 66.2362 92.9905 66.2362L92.7108 114.864C92.7108 114.864 114.878 139.877 130.237 148.401C145.582 156.925 152.976 157.497 152.976 157.497L176.858 179.665" stroke="white" stroke-width="1.079" stroke-miterlimit="10" stroke-linecap="round" stroke-linejoin="round"/>
<path d="M140.609 15.833C140.609 15.833 147.614 22.8372 151.809 31.9329L140.609 15.833Z" fill="#1986FF"/>
<path d="M140.609 15.833C140.609 15.833 147.614 22.8372 151.809 31.9329" stroke="white" stroke-width="1.079" stroke-miterlimit="10" stroke-linecap="round" stroke-linejoin="round"/>
<path d="M206.455 224.292L153.207 164.27C153.207 164.27 128.704 153.764 112.592 143.27C96.4923 132.764 76.8783 99.1533 71.9778 91.456C67.0773 83.7587 56.571 68.352 48.1685 62.7463C39.7659 57.1405 24.3592 39.6423 20.8571 32.6381C17.3551 25.6339 23.654 16.5383 31.3634 15.833C39.0607 15.1277 71.2725 30.5344 76.8783 38.937C82.484 47.3395 98.5838 64.8499 98.5838 64.8499" fill="#1986FF"/>
<path d="M206.455 224.292L153.207 164.27C153.207 164.27 128.704 153.764 112.592 143.27C96.4923 132.764 76.8783 99.1533 71.9778 91.456C67.0773 83.7587 56.5711 68.352 48.1685 62.7463C39.7659 57.1405 24.3592 39.6423 20.8571 32.6381C17.3551 25.6339 23.654 16.5383 31.3634 15.833C39.0607 15.1277 71.2725 30.5344 76.8783 38.937C82.484 47.3395 98.5838 64.8499 98.5838 64.8499" stroke="white" stroke-width="1.079" stroke-miterlimit="10" stroke-linecap="round" stroke-linejoin="round"/>
<path d="M59.3803 40.3354C59.3803 40.3354 50.9777 48.738 50.2725 52.9454" stroke="#1986FF" stroke-width="1.079" stroke-miterlimit="10" stroke-linecap="round" stroke-linejoin="round"/>
<path d="M65.6791 41.0406C65.6791 41.0406 59.3802 50.8416 55.1729 54.3437" stroke="#1986FF" stroke-width="1.079" stroke-miterlimit="10" stroke-linecap="round" stroke-linejoin="round"/>
<path d="M52.3756 27.0323C43.2678 33.3312 36.9689 45.2359 36.9689 45.2359C36.9689 45.2359 21.9999 39.7882 20.8691 32.6381C19.7382 25.4759 21.9999 18.3015 31.3753 15.833C40.7506 13.3523 52.3756 27.0323 52.3756 27.0323Z" stroke="#1986FF" stroke-width="1.079" stroke-miterlimit="10" stroke-linecap="round" stroke-linejoin="round"/>
<path d="M224.829 266.28C222.202 261.903 163.591 193.235 160.977 184.492C158.35 175.749 168.844 155.624 185.467 137.251C194.247 127.547 216.11 111.751 228.368 124.629C233.426 129.942 237.707 136.375 243.191 141.628" fill="#1986FF"/>
<path d="M224.829 266.28C222.202 261.903 163.591 193.235 160.977 184.492C158.35 175.749 168.844 155.624 185.467 137.251C194.247 127.547 216.11 111.751 228.368 124.629C233.426 129.942 237.707 136.375 243.191 141.628" stroke="white" stroke-width="1.079" stroke-miterlimit="10" stroke-linecap="round" stroke-linejoin="round"/>
</svg>
