<svg width="26" height="26" viewBox="0 0 26 26" fill="none" xmlns="http://www.w3.org/2000/svg">
<path d="M19.7849 11.4352H19.1116V10.4002H19.7849C22.6386 10.4002 24.9641 8.0767 24.9641 5.22531V3.68318H19.1116V2.64819H26V5.22531C26 8.64594 23.2135 11.4352 19.7849 11.4352ZM6.21514 11.4352H6.88845V10.4002H6.21514C3.36135 10.4002 1.03586 8.0767 1.03586 5.22531V3.68318H7.04383V2.64819H0V5.22531C0 8.64594 2.78645 11.4352 6.21514 11.4352Z" fill="#EDA900"/>
<path d="M21.4261 20.3427H4.57422V26.0001H21.4261V20.3427Z" fill="#1F3F77"/>
<path d="M21.4261 20.3427H4.57422V21.3056H21.4261V20.3427Z" fill="#0A2751"/>
<path d="M22.8696 24.4352H3.12891V26H22.8696V24.4352Z" fill="#3179AF"/>
<path d="M18.4159 24.4352H3.12891V26H18.4159V24.4352Z" fill="#68A1D6"/>
<path d="M16.3696 18.7778H9.62891V20.3426H16.3696V18.7778Z" fill="#E36414"/>
<path d="M14.4437 18.7778H9.62891V20.3426H14.4437V18.7778Z" fill="#F8961E"/>
<path d="M5.65723 0V10.9347C5.65723 12.5168 6.69352 13.907 8.20891 14.3686C9.72429 14.8303 10.7606 16.2257 10.7606 17.8026V18.7778H15.239V17.8026C15.239 16.2205 16.2753 14.8303 17.7907 14.3686C19.3061 13.907 20.3424 12.5116 20.3424 10.9347V0H5.65723Z" fill="#F8D707"/>
<path d="M22.8696 20.1018H3.12891V20.5833H22.8696V20.1018Z" fill="#3179AF"/>
<path d="M18.5363 20.1018H3.12891V20.5833H18.5363V20.1018Z" fill="#68A1D6"/>
<path d="M18.1761 22.1482H7.82422V22.6297H18.1761V22.1482Z" fill="#F8D707"/>
<path d="M5.65723 0V2.59362H13.0415C14.5412 2.59362 15.7598 3.80743 15.7598 5.30135V12.0084C15.7598 12.9836 15.2338 13.8862 14.3798 14.3686C13.5258 14.851 12.9998 15.7484 12.9998 16.7288V18.7778H15.239V17.8026C15.239 16.2205 16.2753 14.8303 17.7907 14.3686C19.3061 13.907 20.3424 12.5116 20.3424 10.9347V0H5.65723Z" fill="#EDA900"/>
<path d="M21.0642 0H4.93457V1.56481H21.0642V0Z" fill="#F8D707"/>
<path d="M8.4252 0H6.37891V1.56481H8.4252V0Z" fill="#FFFA5A"/>
<path d="M13.843 0H10.4727V1.56481H13.843V0Z" fill="#FFFA5A"/>
<path d="M9.32888 3.61108C8.23223 3.61108 7.34277 4.52803 7.34277 5.65857V7.34137C7.34277 8.47192 8.23223 9.38886 9.32888 9.38886C10.4255 9.38886 11.315 8.47192 11.315 7.34137V5.65857C11.315 4.52803 10.4255 3.61108 9.32888 3.61108Z" fill="#FFFA5A"/>
<path d="M13.4818 10.8333H12.4386V6.20452H11.917V5.1759H12.9602C13.2471 5.1759 13.4818 5.40734 13.4818 5.69021V10.8333Z" fill="#F8961E"/>
<path d="M19.7849 11.4352H19.1116V10.4002H19.7849C22.6386 10.4002 24.9641 8.0767 24.9641 5.22531V3.68318H19.1116V2.64819H26V5.22531C26 8.64594 23.2135 11.4352 19.7849 11.4352ZM6.21514 11.4352H6.88845V10.4002H6.21514C3.36135 10.4002 1.03586 8.0767 1.03586 5.22531V3.68318H7.04383V2.64819H0V5.22531C0 8.64594 2.78645 11.4352 6.21514 11.4352Z" fill="#EDA900"/>
<path d="M21.4261 20.3427H4.57422V26.0001H21.4261V20.3427Z" fill="#1F3F77"/>
<path d="M21.4261 20.3427H4.57422V21.3056H21.4261V20.3427Z" fill="#0A2751"/>
<path d="M22.8696 24.4352H3.12891V26H22.8696V24.4352Z" fill="#3179AF"/>
<path d="M18.4159 24.4352H3.12891V26H18.4159V24.4352Z" fill="#68A1D6"/>
<path d="M16.3696 18.7778H9.62891V20.3426H16.3696V18.7778Z" fill="#E36414"/>
<path d="M14.4437 18.7778H9.62891V20.3426H14.4437V18.7778Z" fill="#F8961E"/>
<path d="M5.65723 0V10.9347C5.65723 12.5168 6.69352 13.907 8.20891 14.3686C9.72429 14.8303 10.7606 16.2257 10.7606 17.8026V18.7778H15.239V17.8026C15.239 16.2205 16.2753 14.8303 17.7907 14.3686C19.3061 13.907 20.3424 12.5116 20.3424 10.9347V0H5.65723Z" fill="#F8D707"/>
<path d="M22.8696 20.1018H3.12891V20.5833H22.8696V20.1018Z" fill="#3179AF"/>
<path d="M18.5363 20.1018H3.12891V20.5833H18.5363V20.1018Z" fill="#68A1D6"/>
<path d="M18.1761 22.1482H7.82422V22.6297H18.1761V22.1482Z" fill="#F8D707"/>
<path d="M5.65723 0V2.59362H13.0415C14.5412 2.59362 15.7598 3.80743 15.7598 5.30135V12.0084C15.7598 12.9836 15.2338 13.8862 14.3798 14.3686C13.5258 14.851 12.9998 15.7484 12.9998 16.7288V18.7778H15.239V17.8026C15.239 16.2205 16.2753 14.8303 17.7907 14.3686C19.3061 13.907 20.3424 12.5116 20.3424 10.9347V0H5.65723Z" fill="#EDA900"/>
<path d="M21.0642 0H4.93457V1.56481H21.0642V0Z" fill="#F8D707"/>
<path d="M8.4252 0H6.37891V1.56481H8.4252V0Z" fill="#FFFA5A"/>
<path d="M13.843 0H10.4727V1.56481H13.843V0Z" fill="#FFFA5A"/>
<path d="M9.32888 3.61108C8.23223 3.61108 7.34277 4.52803 7.34277 5.65857V7.34137C7.34277 8.47192 8.23223 9.38886 9.32888 9.38886C10.4255 9.38886 11.315 8.47192 11.315 7.34137V5.65857C11.315 4.52803 10.4255 3.61108 9.32888 3.61108Z" fill="#FFFA5A"/>
<path d="M13.4818 10.8333H12.4386V6.20452H11.917V5.1759H12.9602C13.2471 5.1759 13.4818 5.40734 13.4818 5.69021V10.8333Z" fill="#F8961E"/>
</svg>
