<svg width="15" height="18" viewBox="0 0 15 18" fill="none" xmlns="http://www.w3.org/2000/svg">
<path d="M11.424 11.773H3.59047C3.39847 11.773 3.24487 11.9286 3.24487 12.1232C3.24487 12.3178 3.39847 12.4735 3.59047 12.4735H11.424C11.616 12.4735 11.7696 12.3178 11.7696 12.1232C11.7696 11.9286 11.616 11.773 11.424 11.773Z" fill="white"/>
<path d="M3.24487 10.0411C3.24487 10.2357 3.39847 10.3914 3.59047 10.3914H11.424C11.616 10.3914 11.7696 10.2357 11.7696 10.0411C11.7696 9.84649 11.616 9.69082 11.424 9.69082H3.59047C3.39847 9.71028 3.24487 9.84649 3.24487 10.0411Z" fill="white"/>
<path d="M3.59047 8.30921H7.85281C8.04481 8.30921 8.19841 8.15353 8.19841 7.95894C8.19841 7.76434 8.04481 7.60867 7.85281 7.60867H3.59047C3.39847 7.60867 3.24487 7.76434 3.24487 7.95894C3.24487 8.17299 3.39847 8.30921 3.59047 8.30921Z" fill="white"/>
<path d="M3.59047 6.24648H6.48963C6.68163 6.24648 6.83523 6.09081 6.83523 5.89621C6.83523 5.70162 6.68163 5.54594 6.48963 5.54594H3.59047C3.39847 5.54594 3.24487 5.70162 3.24487 5.89621C3.24487 6.09081 3.39847 6.24648 3.59047 6.24648Z" fill="white"/>
<path d="M3.59047 4.16433H6.48963C6.68163 4.16433 6.83523 4.00866 6.83523 3.81406C6.83523 3.61947 6.68163 3.46379 6.48963 3.46379H3.59047C3.39847 3.46379 3.24487 3.61947 3.24487 3.81406C3.24487 4.00866 3.39847 4.16433 3.59047 4.16433Z" fill="white"/>
<path d="M14.9182 5.54595C14.899 5.48757 14.8606 5.44865 14.803 5.40973L9.69587 0.214054C9.65747 0.175135 9.59988 0.136216 9.56148 0.0972973C9.46548 0.0389189 9.33108 0 9.21588 0H2.72636C1.22878 0 0 1.24541 0 2.76324V15.2368C0 16.7546 1.22878 18 2.72636 18H12.2686C13.7662 18 14.995 16.7546 14.995 15.2368V5.89622C15.0142 5.77946 14.9758 5.6627 14.9182 5.54595ZM9.56148 2.04324L13.0174 5.54595H10.9247C10.1759 5.54595 9.56148 4.92324 9.56148 4.16432V2.04324ZM13.651 15.2368C13.651 15.9957 13.0366 16.6184 12.2878 16.6184H2.72636C1.97757 16.6184 1.36318 15.9957 1.36318 15.2368V2.7827C1.36318 2.02378 1.97757 1.40108 2.72636 1.40108H8.17909V4.16432C8.17909 5.68216 9.40788 6.92757 10.9055 6.92757H13.651V15.2368Z" fill="white"/>
<path d="M11.424 13.8551H3.59047C3.39847 13.8551 3.24487 14.0108 3.24487 14.2054C3.24487 14.4 3.39847 14.5557 3.59047 14.5557H11.424C11.616 14.5557 11.7696 14.4 11.7696 14.2054C11.7696 14.0108 11.616 13.8551 11.424 13.8551Z" fill="white"/>
</svg>
