<svg width="85" height="72" viewBox="0 0 85 72" fill="none" xmlns="http://www.w3.org/2000/svg">
<path fill-rule="evenodd" clip-rule="evenodd" d="M72.9117 52.8184C72.7542 52.6639 72.5397 52.592 72.3268 52.6221C72.114 52.6526 71.925 52.7817 71.8112 52.9751C71.2246 53.9715 70.5221 54.9139 69.705 55.7804C68.888 56.6472 67.999 57.3918 67.0597 58.0138C66.8774 58.1346 66.7555 58.335 66.7268 58.5607C66.6984 58.7864 66.7659 59.0139 66.9116 59.1812L76.7516 70.4818C76.7578 70.4891 76.7647 70.4965 76.7713 70.5038C78.6529 72.4987 81.7076 72.4987 83.5891 70.5038C85.4703 68.5085 85.4703 65.2691 83.5891 63.2738C83.5822 63.2669 83.5753 63.2599 83.5684 63.2529L72.9117 52.8184ZM78.2179 60.095L73.7737 64.8078C71.2783 61.9417 68.5457 58.8036 68.5457 58.8036C69.3109 58.2344 70.0407 57.587 70.7245 56.8619C71.4087 56.1364 72.0192 55.3628 72.5559 54.551L78.2179 60.095Z" fill="white"/>
<path fill-rule="evenodd" clip-rule="evenodd" d="M46.4769 57.2308C46.7721 57.2308 47.0395 57.0548 47.1608 56.7806C47.2817 56.5064 47.2338 56.1856 47.038 55.9606C44.9189 53.5254 43.6675 50.5803 43.2835 47.5417C43.2579 47.3378 43.1525 47.1535 42.9916 47.0295C42.8307 46.906 42.6277 46.8532 42.4283 46.884L37.083 47.7037C34.3121 48.1286 31.4944 48.1286 28.7234 47.7037C23.7301 46.9379 15.5437 45.6824 10.6313 44.929C8.63849 44.6233 7.16467 42.8791 7.16467 40.8263V8.14812C7.16467 7.93001 7.07289 7.72216 6.91273 7.57736C6.75257 7.43256 6.53915 7.36401 6.32644 7.39003C2.76336 7.82077 0 10.9074 0 14.652V49.9171C0 53.9565 3.21505 57.2308 7.1805 57.2308H46.4769ZM44.911 55.7036H7.1805C4.04319 55.7036 1.49973 53.113 1.49973 49.9171C1.49973 40.6727 1.49973 23.8964 1.49973 14.652C1.49973 11.991 3.26328 9.74935 5.66529 9.07411L5.66493 40.8263C5.66493 43.635 7.68149 46.0211 10.4078 46.4394C15.3205 47.1927 23.5066 48.4482 28.5003 49.214C31.4192 49.6616 34.3877 49.6616 37.3065 49.214L41.9112 48.508C42.3481 51.0568 43.3479 53.5243 44.9103 55.7025L44.911 55.7036ZM58.6422 29.011C58.6422 29.4186 58.9567 29.7548 59.3569 29.7738C61.2029 29.8615 63.0355 30.2838 64.7602 31.0404C64.992 31.1419 65.2583 31.1181 65.4689 30.977C65.6798 30.8355 65.8064 30.5957 65.8064 30.3387V14.652C65.8064 10.9074 63.0434 7.82077 59.4804 7.39003C59.2677 7.36401 59.0542 7.43256 58.8941 7.57736C58.7339 7.72216 58.6422 7.93001 58.6422 8.14812V29.011ZM60.1419 28.2973V9.07411C62.5435 9.74935 64.3071 11.991 64.3071 14.652V29.2199C62.9553 28.7328 61.5549 28.4252 60.1419 28.2973Z" fill="#1A86FF"/>
<path fill-rule="evenodd" clip-rule="evenodd" d="M46.2131 32.8268C39.4345 39.6729 39.4345 50.789 46.2131 57.635C52.9916 64.4806 63.9982 64.4806 70.7764 57.635C77.555 50.789 77.555 39.6729 70.7764 32.8268C63.9982 25.9808 52.9916 25.9808 46.2131 32.8268ZM47.298 33.9225C53.4777 27.6816 63.5117 27.6816 69.6915 33.9225C75.8713 40.1638 75.8713 50.298 69.6915 56.5389C63.5117 62.7802 53.4777 62.7802 47.298 56.5389C41.1182 50.298 41.1182 40.1638 47.298 33.9225Z" fill="white"/>
<path fill-rule="evenodd" clip-rule="evenodd" d="M49.445 35.9559C44.4503 40.8201 44.4503 48.7184 49.445 53.5826C54.4396 58.4468 62.5497 58.4468 67.5444 53.5826C72.539 48.7184 72.539 40.8201 67.5444 35.9559C62.5497 31.0916 54.4396 31.0916 49.445 35.9559ZM54.6952 44.0285L56.3978 50.2163C56.505 50.6068 56.918 50.8389 57.3187 50.7341C57.7197 50.6297 57.9579 50.2275 57.8504 49.8373L56.1481 43.6492C56.0405 43.259 55.6279 43.027 55.2269 43.1314C54.8262 43.2362 54.588 43.638 54.6952 44.0285ZM59.1386 39.7011L60.8413 45.8889C60.9485 46.2794 61.3611 46.5114 61.7621 46.4067C62.1631 46.3023 62.4014 45.9005 62.2938 45.5099L60.5915 39.3218C60.4839 38.9316 60.0714 38.6996 59.6703 38.804C59.2693 38.9088 59.0311 39.3106 59.1386 39.7011Z" fill="white"/>
<path fill-rule="evenodd" clip-rule="evenodd" d="M32.1482 48.9231V2.4081C28.9111 2.37358 25.6765 2.11652 22.4669 1.63691C18.866 1.0987 14.9819 0.518418 11.9291 0.0621774C10.3137 -0.179425 8.67246 0.290118 7.43413 1.34785C6.19616 2.40522 5.48389 3.9458 5.48389 5.56691C5.48389 14.6374 5.48389 32.3399 5.48389 40.3767C5.48389 43.1315 7.51384 45.4716 10.2582 45.8818C15.2036 46.6207 23.444 47.852 28.4709 48.6031C29.6904 48.7854 30.9189 48.8922 32.1482 48.9231ZM33.6579 2.4081V48.9231C34.8875 48.8922 36.1157 48.7854 37.3356 48.6031L42.7161 47.7992C43.1222 47.7384 43.4048 47.367 43.3522 46.9629C42.8653 43.2113 43.7635 39.3154 46.0463 36.0937L39.3637 36.9163C38.95 36.967 38.5728 36.6754 38.5217 36.2652C38.4703 35.855 38.7641 35.4803 39.1779 35.4296L47.4226 34.4147C47.5404 34.2899 47.6607 34.1663 47.7835 34.0444C51.0101 30.8428 55.3048 29.3403 59.5324 29.537C59.7386 29.5463 59.9397 29.4719 60.0889 29.3306C60.2382 29.1893 60.3226 28.9934 60.3226 28.7888V5.56691C60.3226 3.9458 59.6103 2.40522 58.372 1.34785C57.134 0.290118 55.4928 -0.179425 53.8773 0.0621774C50.8246 0.518418 46.9401 1.0987 43.3396 1.63691C40.13 2.11652 36.8954 2.37358 33.6579 2.4081ZM12.2465 35.1686L26.4428 36.9163C26.8561 36.967 27.2333 36.6754 27.2847 36.2652C27.3362 35.855 27.042 35.4803 26.6286 35.4296L12.4324 33.682C12.0186 33.6313 11.6415 33.9229 11.5904 34.3331C11.539 34.7433 11.8328 35.1176 12.2465 35.1686ZM53.3741 22.6215L39.1779 24.3691C38.7641 24.4202 38.4703 24.7945 38.5217 25.2047C38.5728 25.6149 38.95 25.9068 39.3637 25.8558L53.56 24.1081C53.9733 24.0574 54.2675 23.6828 54.2161 23.2726C54.1646 22.8624 53.7875 22.5708 53.3741 22.6215ZM12.2465 24.1081L26.4428 25.8558C26.8561 25.9068 27.2333 25.6149 27.2847 25.2047C27.3362 24.7945 27.042 24.4202 26.6286 24.3691L12.4324 22.6215C12.0186 22.5708 11.6415 22.8624 11.5904 23.2726C11.539 23.6828 11.8328 24.0574 12.2465 24.1081ZM12.2465 13.0476L26.4428 14.7953C26.8561 14.8463 27.2333 14.5544 27.2847 14.1442C27.3362 13.7339 27.042 13.3597 26.6286 13.3086L12.4324 11.561C12.0186 11.5103 11.6415 11.8018 11.5904 12.2121C11.539 12.6226 11.8328 12.9969 12.2465 13.0476ZM53.3741 11.561L39.1779 13.3086C38.7641 13.3597 38.4703 13.7339 38.5217 14.1442C38.5728 14.5544 38.95 14.8463 39.3637 14.7953L53.56 13.0476C53.9733 12.9969 54.2675 12.6226 54.2161 12.2121C54.1646 11.8018 53.7875 11.5103 53.3741 11.561Z" fill="white"/>
</svg>
