<svg width="22" height="22" viewBox="0 0 22 22" fill="none" xmlns="http://www.w3.org/2000/svg">
<circle cx="11" cy="11" r="11" fill="#D9D9D9"/>
<path d="M18.6564 6.28939C18.5572 6.19769 18.4391 6.12491 18.3091 6.07524C18.179 6.02557 18.0395 6 17.8986 6C17.7577 6 17.6182 6.02557 17.4881 6.07524C17.3581 6.12491 17.24 6.19769 17.1408 6.28939L9.18924 13.5877L5.84852 10.5157C5.7455 10.4245 5.62389 10.3528 5.49063 10.3047C5.35737 10.2565 5.21507 10.2329 5.07185 10.2352C4.92864 10.2375 4.78732 10.2656 4.65595 10.3179C4.52459 10.3702 4.40575 10.4458 4.30624 10.5402C4.20672 10.6346 4.12847 10.7461 4.07596 10.8682C4.02344 10.9904 3.99769 11.1208 4.00016 11.2521C4.00264 11.3834 4.0333 11.5129 4.0904 11.6333C4.14749 11.7537 4.2299 11.8626 4.33292 11.9539L8.43144 15.7106C8.53066 15.8023 8.64871 15.8751 8.77877 15.9248C8.90884 15.9744 9.04834 16 9.18924 16C9.33014 16 9.46965 15.9744 9.59971 15.9248C9.72977 15.8751 9.84782 15.8023 9.94704 15.7106L18.6564 7.72752C18.7647 7.63591 18.8512 7.52472 18.9103 7.40096C18.9695 7.2772 19 7.14356 19 7.00845C19 6.87334 18.9695 6.7397 18.9103 6.61594C18.8512 6.49219 18.7647 6.381 18.6564 6.28939Z" fill="#25B999"/>
</svg>
