<svg width="17" height="21" viewBox="0 0 17 21" fill="none" xmlns="http://www.w3.org/2000/svg">
<path d="M15.6257 16.5005C15.6257 16.2181 15.5523 15.9405 15.4128 15.6951C15.2732 15.4496 15.0723 15.2445 14.8297 15.1001C14.5859 14.9545 14.3838 14.7484 14.2431 14.5017C14.1023 14.2551 14.0277 13.9763 14.0263 13.6924V12.7342C9.625 12.7273 8.07229 6.59594 12.1542 4.56041C11.6688 4.2889 11.1255 4.13729 10.5696 4.11821C10.7305 3.74258 10.7957 3.33291 10.7593 2.9259C10.7229 2.51889 10.5861 2.12728 10.3611 1.78616C10.1361 1.44504 9.83 1.16508 9.47019 0.971374C9.11039 0.777668 8.70815 0.67627 8.29952 0.67627C7.89089 0.67627 7.48865 0.777668 7.12885 0.971374C6.76904 1.16508 6.46293 1.44504 6.23795 1.78616C6.01297 2.12728 5.87615 2.51889 5.83976 2.9259C5.80336 3.33291 5.86853 3.74258 6.02943 4.11821C5.09871 4.15821 4.21944 4.55629 3.5753 5.22927C2.93115 5.90226 2.57194 6.7981 2.57271 7.72968V13.6923C2.57134 13.9763 2.49667 14.2551 2.35593 14.5017C2.21518 14.7484 2.01313 14.9545 1.76934 15.1001C0.362697 15.9157 0.872474 18.514 2.60962 18.4609L13.9894 18.4609C14.2314 18.4561 14.4696 18.3993 14.6878 18.2945C14.906 18.1897 15.0991 18.0394 15.2542 17.8535C15.4093 17.6677 15.5228 17.4507 15.5868 17.2173C15.6509 16.9839 15.6642 16.7394 15.6257 16.5005ZM8.29951 4.11083C8.1698 4.11237 8.04107 4.08816 7.92078 4.03959C7.80049 3.99102 7.69103 3.91906 7.59876 3.82788C7.50648 3.7367 7.43322 3.62812 7.38322 3.50841C7.33322 3.38871 7.30748 3.26028 7.30748 3.13056C7.30748 3.00083 7.33322 2.8724 7.38322 2.7527C7.43322 2.63299 7.50648 2.52441 7.59876 2.43323C7.69103 2.34205 7.80049 2.27009 7.92078 2.22152C8.04107 2.17295 8.1698 2.14874 8.29951 2.15028C8.42923 2.14874 8.55796 2.17295 8.67825 2.22152C8.79854 2.27009 8.90799 2.34205 9.00027 2.43323C9.09254 2.52441 9.1658 2.63299 9.2158 2.7527C9.2658 2.8724 9.29155 3.00083 9.29155 3.13056C9.29155 3.26028 9.2658 3.38871 9.2158 3.50841C9.1658 3.62812 9.09254 3.7367 9.00027 3.82788C8.90799 3.91906 8.79854 3.99102 8.67825 4.03959C8.55796 4.08816 8.42923 4.11237 8.29951 4.11083ZM11.2477 8.41512C11.2457 9.12433 11.5055 9.80933 11.9773 10.3388C11.703 10.0106 11.5009 9.62841 11.3841 9.21697C11.2673 8.80553 11.2384 8.3741 11.2993 7.95076C11.2704 8.10402 11.2531 8.25925 11.2477 8.41512ZM9.75523 21H6.84378C6.65016 20.9972 6.46541 20.9183 6.32947 20.7804C6.19354 20.6425 6.11733 20.4566 6.11733 20.263C6.11733 20.0693 6.19354 19.8834 6.32947 19.7455C6.46541 19.6076 6.65016 19.5287 6.84378 19.5259H9.7552C9.94882 19.5287 10.1336 19.6076 10.2695 19.7455C10.4055 19.8834 10.4817 20.0693 10.4817 20.2629C10.4817 20.4566 10.4055 20.6425 10.2695 20.7804C10.1336 20.9183 9.94886 20.9972 9.75523 21ZM11.2477 8.41512C11.2531 9.17196 11.5575 9.89588 12.0946 10.4292C12.6317 10.9624 13.3578 11.2617 14.1147 11.2617C14.8716 11.2617 15.5977 10.9625 16.1349 10.4292C16.672 9.89596 16.9764 9.17196 16.9819 8.41512C16.9765 7.65827 16.672 6.93426 16.1349 6.40099C15.5978 5.86771 14.8717 5.56843 14.1148 5.56842C13.3579 5.56841 12.6318 5.86766 12.0947 6.40092C11.5576 6.93418 11.2531 7.65827 11.2477 8.41512ZM14.8519 9.24824C14.8492 9.44192 14.7703 9.62673 14.6324 9.76272C14.4944 9.89871 14.3085 9.97495 14.1148 9.97495C13.9212 9.97495 13.7352 9.89871 13.5973 9.76272C13.4594 9.62673 13.3805 9.44192 13.3778 9.24824V7.58203C13.3778 7.48524 13.3969 7.3894 13.4339 7.29998C13.471 7.21056 13.5252 7.12931 13.5937 7.06087C13.6621 6.99243 13.7434 6.93814 13.8328 6.9011C13.9222 6.86406 14.0181 6.84499 14.1148 6.84499C14.2116 6.84499 14.3075 6.86406 14.3969 6.9011C14.4863 6.93814 14.5676 6.99243 14.636 7.06087C14.7045 7.12931 14.7587 7.21056 14.7958 7.29998C14.8328 7.3894 14.8519 7.48524 14.8519 7.58203V9.24824Z" fill="#F8D707"/>
</svg>
