<svg width="20" height="16" viewBox="0 0 20 16" fill="none" xmlns="http://www.w3.org/2000/svg">
<path d="M19.6 7.99972C19.6 7.72472 19.5 7.47472 19.3 7.29972L15.6 3.57472C15.2 3.17472 14.575 3.17472 14.175 3.57472C13.775 3.97472 13.775 4.59972 14.175 4.99972L16.175 6.99972H6.25C5.7 6.99972 5.25 7.44972 5.25 7.99972C5.25 8.54972 5.7 8.99972 6.25 8.99972H16.2L14.2 10.9997C13.8 11.3997 13.8 12.0247 14.2 12.4247C14.4 12.6247 14.65 12.7247 14.9 12.7247C15.15 12.7247 15.4 12.6247 15.6 12.4247L19.3 8.72472C19.5 8.52472 19.6 8.27472 19.6 7.99972Z" fill="white"/>
<path d="M3.7 1.99976H10C10.55 1.99976 11 1.54976 11 0.999756C11 0.449756 10.55 -0.000244141 10 -0.000244141H3.7C1.675 -0.000244141 0 1.67476 0 3.69976V12.2748C0 14.3248 1.675 15.9998 3.7 15.9998H10C10.55 15.9998 11 15.5498 11 14.9998C11 14.4498 10.55 13.9998 10 13.9998H3.7C2.75 13.9998 2 13.2248 2 12.2998V3.69976C2 2.77476 2.775 1.99976 3.7 1.99976Z" fill="white"/>
</svg>
