<svg width="51" height="47" viewBox="0 0 51 47" fill="none" xmlns="http://www.w3.org/2000/svg">
<path d="M48.393 46.0337H2.35938V24.6041H11.8837L25.3762 11.1116L38.869 24.6041H48.393V46.0337Z" fill="#FCD2B1"/>
<path d="M20.6143 36.5094H30.1384V46.0336H20.6143V36.5094Z" fill="#2A94F4"/>
<path d="M32.8287 4.76195L34.1222 2.82123C34.2018 2.70171 34.2475 2.56283 34.2545 2.41939C34.2614 2.27595 34.2293 2.13332 34.1616 2.00666C34.0939 1.87994 33.9931 1.77399 33.8698 1.70013C33.7466 1.62626 33.6056 1.58726 33.4619 1.58728H25.5251C25.4209 1.58722 25.3176 1.6077 25.2213 1.64757C25.125 1.68743 25.0375 1.74589 24.9638 1.8196C24.8901 1.89331 24.8316 1.98083 24.7917 2.07715C24.7519 2.17347 24.7314 2.2767 24.7314 2.38095V7.14311C24.7314 7.24735 24.7519 7.35058 24.7917 7.4469C24.8316 7.54322 24.8901 7.63074 24.9638 7.70445C25.0375 7.77816 25.125 7.83662 25.2213 7.87649C25.3176 7.91635 25.4209 7.93684 25.5251 7.93677H33.4619C33.6056 7.93684 33.7466 7.89789 33.8699 7.82409C33.9932 7.75028 34.0941 7.64438 34.1619 7.5177C34.2297 7.39102 34.2618 7.24831 34.2549 7.10479C34.2479 6.96128 34.2021 6.82235 34.1224 6.70283L32.8287 4.76195Z" fill="#FFBE55"/>
<path d="M25.3983 11.9052C25.2941 11.9052 25.1908 11.8848 25.0945 11.8449C24.9981 11.8051 24.9106 11.7466 24.8369 11.6729C24.7631 11.5992 24.7047 11.5117 24.6648 11.4153C24.6249 11.319 24.6044 11.2158 24.6045 11.1115V0.793667C24.6045 0.354958 24.9596 0 25.3983 0C25.837 0 26.1921 0.354958 26.1921 0.793667V11.1115C26.1922 11.2157 26.1717 11.319 26.1318 11.4153C26.0919 11.5116 26.0334 11.5991 25.9597 11.6729C25.886 11.7466 25.7985 11.805 25.7021 11.8449C25.6058 11.8847 25.5026 11.9052 25.3983 11.9052Z" fill="#0E538C"/>
<path d="M37.2818 29.763C37.2818 28.667 36.3937 27.7789 35.2977 27.7789C34.2017 27.7789 33.3135 28.6672 33.3135 29.763C33.3135 29.8989 33.3275 30.0316 33.3534 30.1598H33.3135V33.3346H37.2818V30.1598H37.2417C37.268 30.0316 37.2818 29.8988 37.2818 29.763ZM13.4932 37.3029H17.4617V42.0651H13.4932V37.3029ZM6.32832 37.3029H10.2968V42.0651H6.32832V37.3029ZM40.4783 37.3029H44.4468V42.0651H40.4783V37.3029ZM33.3136 37.3029H37.282V42.0651H33.3136V37.3029ZM44.4033 29.763C44.4033 28.667 43.515 27.7789 42.419 27.7789C41.3232 27.7789 40.4348 28.6672 40.4348 29.763C40.4348 29.8989 40.4488 30.0316 40.4749 30.1598H40.4348V33.3346H44.4033V30.1598H44.3634C44.3893 30.0316 44.4033 29.8988 44.4033 29.763ZM10.275 29.763C10.275 28.667 9.38672 27.7789 8.29089 27.7789C7.1949 27.7789 6.30664 28.6672 6.30664 29.763C6.30664 29.8989 6.32062 30.0316 6.34655 30.1598H6.30664V33.3346H10.275V30.1598H10.2351C10.261 30.0316 10.275 29.8988 10.275 29.763ZM17.3963 29.763C17.3963 28.667 16.5082 27.7789 15.4122 27.7789C14.3162 27.7789 13.428 28.6672 13.428 29.763C13.428 29.8989 13.4419 30.0316 13.468 30.1598H13.428V33.3346H17.3963V30.1598H17.3565C17.3825 30.0316 17.3963 29.8988 17.3963 29.763Z" fill="#212225"/>
<path d="M50.002 46.8271H0.793667C0.689424 46.8272 0.586191 46.8067 0.489871 46.7668C0.393551 46.727 0.306033 46.6685 0.232322 46.5948C0.15861 46.5211 0.100151 46.4336 0.0602878 46.3372C0.0204242 46.2409 -6.18295e-05 46.1377 1.40172e-07 46.0334C-6.18114e-05 45.9292 0.0204232 45.826 0.0602848 45.7296C0.100146 45.6333 0.158603 45.5458 0.232312 45.472C0.306021 45.3983 0.393538 45.3399 0.489859 45.3C0.58618 45.2601 0.689416 45.2396 0.793667 45.2396H50.002C50.1062 45.2396 50.2095 45.2601 50.3058 45.2999C50.4021 45.3398 50.4897 45.3983 50.5634 45.472C50.6371 45.5457 50.6955 45.6333 50.7354 45.7296C50.7753 45.8259 50.7957 45.9292 50.7956 46.0334C50.7957 46.1377 50.7753 46.2409 50.7354 46.3373C50.6955 46.4336 50.6371 46.5211 50.5634 46.5948C50.4897 46.6686 50.4021 46.727 50.3058 46.7669C50.2095 46.8067 50.1062 46.8272 50.002 46.8271Z" fill="#0E538C"/>
<path d="M20.8801 16.7509L13.2596 24.3716C13.1861 24.4452 13.0988 24.5037 13.0027 24.5435C12.9066 24.5834 12.8036 24.6039 12.6996 24.604H0.79427C0.651841 24.6042 0.511979 24.5661 0.389323 24.4937C0.266668 24.4213 0.165732 24.3172 0.0970812 24.1924C0.0291043 24.0675 -0.00426077 23.9266 0.000435387 23.7844C0.00513154 23.6423 0.0477182 23.5039 0.123793 23.3837L4.3448 16.751L20.8801 16.7509ZM50.677 24.1923C50.6084 24.3169 50.5076 24.4208 50.3852 24.4932C50.2628 24.5656 50.1231 24.6038 49.9809 24.6038H38.0757C37.9715 24.604 37.8682 24.5835 37.7719 24.5436C37.6756 24.5037 37.5881 24.4452 37.5145 24.3714L29.8938 16.7507H46.429L50.6501 23.3834C50.7265 23.5035 50.7693 23.6419 50.774 23.7842C50.7788 23.9264 50.7452 24.0674 50.677 24.1923Z" fill="#2A94F4"/>
<path d="M38.8795 25.387C38.7752 25.3872 38.672 25.3667 38.5757 25.3268C38.4794 25.2869 38.392 25.2284 38.3183 25.1546L25.3976 12.2339L12.4771 25.1546C12.4034 25.2283 12.3159 25.2868 12.2196 25.3267C12.1233 25.3666 12.0201 25.3871 11.9158 25.3871C11.8116 25.3871 11.7084 25.3666 11.6121 25.3267C11.5158 25.2868 11.4283 25.2283 11.3546 25.1546C11.2808 25.0809 11.2224 24.9934 11.1825 24.8971C11.1426 24.8008 11.1221 24.6976 11.1221 24.5934C11.1221 24.4891 11.1426 24.3859 11.1825 24.2896C11.2224 24.1933 11.2808 24.1058 11.3546 24.0321L24.8364 10.5503C24.9101 10.4766 24.9976 10.4181 25.0939 10.3782C25.1902 10.3383 25.2934 10.3177 25.3976 10.3177C25.5019 10.3177 25.6051 10.3383 25.7014 10.3782C25.7977 10.4181 25.8852 10.4766 25.9589 10.5503L39.4406 24.0321C39.5517 24.143 39.6273 24.2845 39.658 24.4384C39.6887 24.5924 39.673 24.7521 39.6129 24.8971C39.5529 25.0422 39.4511 25.1662 39.3205 25.2534C39.19 25.3406 39.0365 25.3871 38.8795 25.387Z" fill="#0E538C"/>
<path d="M25.3755 27.7788C26.948 27.7788 28.2227 26.504 28.2227 24.9316C28.2227 23.3591 26.948 22.0844 25.3755 22.0844C23.8031 22.0844 22.5283 23.3591 22.5283 24.9316C22.5283 26.504 23.8031 27.7788 25.3755 27.7788Z" fill="#212225"/>
</svg>
