<svg width="55" height="40" viewBox="0 0 55 40" fill="none" xmlns="http://www.w3.org/2000/svg">
<path d="M27.1374 39.0668C31.5027 39.0668 35.0414 35.528 35.0414 31.1628C35.0414 26.7975 31.5027 23.2588 27.1374 23.2588C22.7721 23.2588 19.2334 26.7975 19.2334 31.1628C19.2334 35.528 22.7721 39.0668 27.1374 39.0668Z" fill="#1A86FF"/>
<path d="M27.1369 11.2083C18.9897 11.2083 11.9856 16.1209 8.88477 23.1251L14.1744 27.8432C15.6579 22.0672 20.8989 17.7747 27.1369 17.7747C33.8249 17.7747 39.3821 22.7116 40.367 29.1321L45.7296 23.9641C42.8355 16.51 35.6003 11.2083 27.1369 11.2083Z" fill="#1A86FF"/>
<path d="M5.29793 19.9148C9.39585 11.9987 17.6403 6.5753 27.1373 6.5753C36.8896 6.5753 45.3043 12.2905 49.2806 20.5472L54.2176 15.7926C48.8551 6.38076 38.7258 0.00891113 27.1373 0.00891113C15.6947 0.00891113 5.68703 6.2105 0.263672 15.4278L5.29793 19.9148Z" fill="#1A86FF"/>
</svg>
