<svg width="135" height="135" viewBox="0 0 135 135" fill="none" xmlns="http://www.w3.org/2000/svg">
<path d="M80.0718 121.49C110.095 114.538 128.798 84.5624 121.845 54.5388C114.893 24.5152 84.9174 5.81255 54.8938 12.7653C24.8702 19.718 6.16753 49.6932 13.1202 79.7168C20.0729 109.74 50.0482 128.443 80.0718 121.49Z" stroke="white" stroke-width="1.079" stroke-miterlimit="10"/>
<path d="M79.1475 117.509C106.977 111.055 124.305 83.2636 117.851 55.4346C111.397 27.6056 83.6055 10.2775 55.7765 16.7313C27.9475 23.185 10.6195 50.9766 17.0732 78.8056C23.5269 106.635 51.3185 123.963 79.1475 117.509Z" stroke="white" stroke-width="1.079" stroke-miterlimit="10"/>
<path d="M67.4971 70.0073C69.1021 70.0073 70.4033 68.7061 70.4033 67.1011C70.4033 65.496 69.1021 64.1948 67.4971 64.1948C65.892 64.1948 64.5908 65.496 64.5908 67.1011C64.5908 68.7061 65.892 70.0073 67.4971 70.0073Z" fill="#263238"/>
<path d="M41.3408 67.1012H67.497V35.1326" stroke="white" stroke-width="1.079" stroke-miterlimit="10" stroke-linecap="round" stroke-linejoin="round"/>
</svg>
