<svg width="23" height="19" viewBox="0 0 23 19" fill="none" xmlns="http://www.w3.org/2000/svg">
<path d="M5.93194 9.48547C2.85533 9.48547 0.240234 11.6209 0.240234 14.2252V16.1218C0.240234 17.6818 1.53073 18.9704 3.09074 18.9704H8.77506C10.3351 18.9704 11.6237 17.6818 11.6237 16.1218V14.2252C11.6237 11.621 9.00845 9.4855 5.93194 9.48547Z" fill="#F8D707"/>
<path d="M5.82208 0.000837602C3.52646 0.059618 1.66211 1.96115 1.66211 4.27011C1.66211 6.61566 3.58577 8.54115 5.93135 8.54119C8.27691 8.54115 10.2025 6.61566 10.2025 4.27011C10.2025 1.92452 8.27691 0.000873444 5.93135 0.000837602C5.8948 0.000837602 5.85864 -9.42819e-05 5.82208 0.000837602Z" fill="#F8D707"/>
<path d="M11.6239 2.27093e-05C11.4988 -0.000473342 11.3747 0.0238054 11.259 0.0714753C11.1433 0.119145 11.0381 0.18926 10.9496 0.277766C10.8611 0.366272 10.791 0.471415 10.7433 0.587148C10.6957 0.702882 10.6714 0.826902 10.6719 0.952068C10.6723 1.07664 10.6973 1.19993 10.7454 1.31485C10.7934 1.42978 10.8637 1.5341 10.9521 1.62186C11.0405 1.70962 11.1454 1.77908 11.2606 1.82632C11.3759 1.87355 11.4994 1.89761 11.6239 1.89711H17.3152C19.4214 1.89711 21.1024 3.58509 21.1024 5.69129V13.2797C21.1024 15.3859 19.4214 17.0738 17.3152 17.0738H14.4661C14.2157 17.0747 13.9758 17.1745 13.7988 17.3516C13.6217 17.5286 13.5219 17.7685 13.521 18.0189C13.5205 18.1434 13.5446 18.2669 13.5918 18.3822C13.639 18.4975 13.7085 18.6023 13.7963 18.6907C13.8841 18.7791 13.9884 18.8494 14.1033 18.8974C14.2182 18.9455 14.3415 18.9705 14.4661 18.9709H17.3152C20.4464 18.9709 22.9994 16.4109 22.9994 13.2797V5.69129C22.9994 2.56009 20.4464 2.27093e-05 17.3152 2.27093e-05H11.6239Z" fill="#F8D707"/>
<path d="M13.5204 4.74622C13.3958 4.74573 13.2724 4.76978 13.1571 4.81701C13.0418 4.86425 12.937 4.93374 12.8486 5.0215C12.7602 5.10926 12.6899 5.21358 12.6418 5.3285C12.5938 5.44342 12.5688 5.56669 12.5684 5.69126C12.5679 5.81642 12.5922 5.94042 12.6398 6.05615C12.6875 6.17188 12.7576 6.27706 12.8461 6.36556C12.9346 6.45407 13.0398 6.52418 13.1555 6.57185C13.2712 6.61952 13.3952 6.6438 13.5204 6.64331H17.3146C17.4392 6.64288 17.5625 6.61791 17.6774 6.56983C17.7923 6.52175 17.8966 6.45149 17.9844 6.36307C18.0721 6.27466 18.1416 6.16981 18.1888 6.05454C18.2361 5.93926 18.2601 5.81583 18.2596 5.69126C18.2588 5.44089 18.1589 5.201 17.9819 5.02396C17.8048 4.84692 17.565 4.74708 17.3146 4.74622H13.5204Z" fill="#F8D707"/>
<path d="M13.5204 8.54038C13.3958 8.53989 13.2724 8.56394 13.1571 8.61117C13.0418 8.65841 12.937 8.7279 12.8486 8.81566C12.7602 8.90342 12.6899 9.00772 12.6418 9.12264C12.5938 9.23756 12.5688 9.36082 12.5684 9.4854C12.5688 9.60997 12.5938 9.73324 12.6418 9.84815C12.6899 9.96307 12.7602 10.0674 12.8486 10.1552C12.937 10.2429 13.0418 10.3124 13.1571 10.3596C13.2724 10.4069 13.3958 10.4309 13.5204 10.4304H17.3146C17.565 10.4296 17.8048 10.3297 17.9819 10.1527C18.1589 9.97565 18.2588 9.73577 18.2596 9.4854C18.2588 9.23502 18.1589 8.99516 17.9819 8.81812C17.8048 8.64108 17.565 8.54124 17.3146 8.54038H13.5204Z" fill="#F8D707"/>
<path d="M15.4169 12.3276C15.2917 12.3271 15.1677 12.3514 15.052 12.3991C14.9362 12.4467 14.8311 12.5168 14.7426 12.6053C14.6541 12.6938 14.584 12.799 14.5363 12.9147C14.4886 13.0304 14.4644 13.1545 14.4649 13.2796C14.4653 13.4042 14.4902 13.5275 14.5383 13.6424C14.5864 13.7573 14.6566 13.8616 14.7451 13.9494C14.8335 14.0371 14.9383 14.1066 15.0536 14.1538C15.1689 14.2011 15.2923 14.2252 15.4169 14.2247H17.314C17.5643 14.2238 17.8042 14.1239 17.9813 13.9469C18.1583 13.7699 18.2581 13.53 18.259 13.2796C18.2595 13.155 18.2354 13.0316 18.1882 12.9163C18.141 12.8011 18.0715 12.6962 17.9837 12.6078C17.896 12.5194 17.7916 12.4492 17.6767 12.4011C17.5618 12.353 17.4385 12.328 17.314 12.3276H15.4169Z" fill="#F8D707"/>
</svg>
