<svg width="33" height="30" viewBox="0 0 33 30" fill="none" xmlns="http://www.w3.org/2000/svg">
<path d="M16.3646 29.4611C25.0428 29.4611 32.0778 22.8876 32.0778 14.7788C32.0778 6.66993 25.0428 0.0964355 16.3646 0.0964355C7.68642 0.0964355 0.651367 6.66993 0.651367 14.7788C0.651367 22.8876 7.68642 29.4611 16.3646 29.4611Z" fill="#1A86FF"/>
<path d="M23.4949 17.1721H9.23535V21.3763H23.4949V17.1721Z" fill="white"/>
<path d="M23.4423 18.0291H9.25195V7.01733H23.4423V18.0291ZM10.9479 16.4121H21.7118V8.63433H10.9825L10.9479 16.4121Z" fill="white"/>
<path d="M19.9814 24.1412H12.6959C12.597 24.156 12.4958 24.1505 12.3995 24.1252C12.3031 24.0999 12.2137 24.0553 12.1375 23.9946C12.0613 23.9339 12.0002 23.8584 11.9582 23.7735C11.9163 23.6885 11.8945 23.5961 11.8945 23.5025C11.8945 23.409 11.9163 23.3165 11.9582 23.2316C12.0002 23.1466 12.0613 23.0712 12.1375 23.0104C12.2137 22.9497 12.3031 22.9052 12.3995 22.8798C12.4958 22.8545 12.597 22.849 12.6959 22.8638H19.9814C20.0803 22.849 20.1814 22.8545 20.2778 22.8798C20.3742 22.9052 20.4636 22.9497 20.5397 23.0104C20.6159 23.0712 20.6771 23.1466 20.719 23.2316C20.761 23.3165 20.7827 23.409 20.7827 23.5025C20.7827 23.5961 20.761 23.6885 20.719 23.7735C20.6771 23.8584 20.6159 23.9339 20.5397 23.9946C20.4636 24.0553 20.3742 24.0999 20.2778 24.1252C20.1814 24.1505 20.0803 24.156 19.9814 24.1412Z" fill="white"/>
<path d="M18.8395 5.99867H13.8729C13.6893 5.99867 13.5132 5.93052 13.3834 5.80923C13.2536 5.68793 13.1807 5.52342 13.1807 5.35188C13.1807 5.18034 13.2536 5.01582 13.3834 4.89452C13.5132 4.77322 13.6893 4.70508 13.8729 4.70508H18.8395C19.0231 4.70508 19.1992 4.77322 19.329 4.89452C19.4588 5.01582 19.5317 5.18034 19.5317 5.35188C19.5317 5.52342 19.4588 5.68793 19.329 5.80923C19.1992 5.93052 19.0231 5.99867 18.8395 5.99867Z" fill="white"/>
<path d="M12.4886 19.8401C13.0238 19.8401 13.4577 19.4347 13.4577 18.9346C13.4577 18.4345 13.0238 18.0291 12.4886 18.0291C11.9534 18.0291 11.5195 18.4345 11.5195 18.9346C11.5195 19.4347 11.9534 19.8401 12.4886 19.8401Z" fill="#21203D"/>
<path d="M20.224 19.8401C20.7592 19.8401 21.1931 19.4347 21.1931 18.9346C21.1931 18.4345 20.7592 18.0291 20.224 18.0291C19.6888 18.0291 19.2549 18.4345 19.2549 18.9346C19.2549 19.4347 19.6888 19.8401 20.224 19.8401Z" fill="#21203D"/>
</svg>
