<svg width="27" height="26" viewBox="0 0 27 26" fill="none" xmlns="http://www.w3.org/2000/svg">
<path d="M10.2815 0C4.61749 0 0 4.61749 0 10.2815C0 15.9454 4.61749 20.5629 10.2815 20.5629C12.6807 20.5629 14.889 19.7372 16.6412 18.3516L23.9365 25.6469C24.0487 25.7604 24.1822 25.8506 24.3293 25.9124C24.4764 25.9742 24.6343 26.0064 24.7938 26.0071C24.9534 26.0077 25.1115 25.9769 25.2592 25.9164C25.4068 25.8558 25.5411 25.7667 25.6542 25.6542C25.7673 25.5417 25.8572 25.4079 25.9185 25.2606C25.9799 25.1133 26.0116 24.9554 26.0118 24.7958C26.012 24.6362 25.9807 24.4782 25.9197 24.3307C25.8587 24.1833 25.7692 24.0493 25.6564 23.9365L18.3516 16.6318C19.7307 14.8817 20.5629 12.6744 20.5629 10.2815C20.5629 4.61749 15.9454 0 10.2815 0ZM10.2815 2.41917C14.638 2.41917 18.1437 5.92491 18.1437 10.2815C18.1437 14.638 14.638 18.1437 10.2815 18.1437C5.92491 18.1437 2.41917 14.638 2.41917 10.2815C2.41917 5.92491 5.92491 2.41917 10.2815 2.41917Z" fill="white"/>
</svg>
