<svg width="35" height="35" viewBox="0 0 35 35" fill="none" xmlns="http://www.w3.org/2000/svg">
<path d="M16.4756 32.3454C15.2412 31.3548 3.77873 20.2079 3.6506 20.086C3.14435 19.5798 2.8256 19.0548 2.7381 18.5735C2.64748 18.0735 2.8006 17.636 3.20685 17.2298C3.58498 16.8517 4.04748 16.6517 4.54435 16.6517C5.1506 16.6517 5.77248 16.9392 6.29123 17.461L11.4881 22.4548C11.5787 22.5423 11.6975 22.586 11.8131 22.586C11.9051 22.5862 11.9952 22.5592 12.0719 22.5084C12.1486 22.4576 12.2086 22.3852 12.2444 22.3004C12.2801 22.2156 12.29 22.1221 12.2727 22.0317C12.2555 21.9413 12.2119 21.858 12.1475 21.7923L3.8506 13.2235C3.01935 12.3923 2.62873 11.1204 3.61623 10.1329C3.99435 9.75479 4.45685 9.55478 4.95373 9.55478C5.55998 9.55478 6.18185 9.84228 6.7006 10.3642L15.1881 18.6392C15.2787 18.7267 15.3975 18.7735 15.5162 18.7735C15.635 18.7735 15.7569 18.7267 15.8475 18.636C16.0287 18.4548 16.0318 18.161 15.8506 17.9767L5.65685 7.52666C5.18498 7.05479 4.9006 6.48916 4.8506 5.93916C4.80373 5.37979 5.0006 4.86103 5.42248 4.43916C5.8006 4.06103 6.2631 3.86104 6.75998 3.86104C7.36623 3.86104 7.9881 4.14854 8.50685 4.66729L18.9037 14.8048C18.9944 14.8923 19.1131 14.9392 19.2318 14.9392C19.3506 14.9392 19.4725 14.8923 19.5631 14.8017C19.7444 14.6204 19.7475 14.3267 19.5662 14.1423L12.0162 6.38291C11.5412 5.90791 11.2569 5.34541 11.21 4.79541C11.1631 4.23604 11.36 3.71728 11.7818 3.29541C12.16 2.91728 12.6225 2.71729 13.1194 2.71729C13.7256 2.71729 14.3475 3.00479 14.8662 3.52666C17.635 6.24541 24.8631 13.3548 25.1068 13.6173C26.035 14.2579 26.2225 13.2892 26.2694 12.661C26.3225 11.9298 25.485 9.37666 25.9725 7.07979C26.7912 4.02666 29.1506 4.52666 29.2037 4.55166C30.4975 5.15791 30.2506 6.06416 29.7912 7.88604L29.7443 8.24541C29.2631 10.6267 32.5693 17.6829 32.8131 18.211C34.11 21.0485 35.6037 26.8017 30.6568 31.7485C25.235 37.1704 18.5225 34.3923 16.4756 32.3454Z" fill="url(#paint0_radial_4_5649)"/>
<path d="M24.3596 13.3141C22.6439 16.8172 22.8658 21.7203 25.4408 25.6547C25.7314 26.186 26.2283 25.9266 25.9752 25.3797C22.8658 18.7266 26.1252 13.9328 26.1252 13.9328L24.3596 13.3141Z" fill="#EDA600"/>
<path d="M17.6123 0.176686C18.5561 -0.0701893 19.5623 -0.0483143 20.5404 0.179811C21.5123 0.414186 22.4842 0.907936 23.2061 1.71419C23.9123 2.51419 24.3467 3.48606 24.4936 4.50481C24.6311 5.51419 24.5029 6.55481 24.0248 7.41731C23.9686 6.44856 23.7998 5.55794 23.5154 4.73606C23.3686 4.32669 23.1967 3.93606 22.9873 3.56731C22.7811 3.20169 22.5373 2.83919 22.2779 2.54231C21.7498 1.93294 21.0342 1.45794 20.2311 1.08919C19.4248 0.707936 18.5467 0.426686 17.6123 0.176686Z" fill="#B0BEC5"/>
<path d="M17.8721 3.13919C18.3939 2.80794 19.0471 2.73919 19.6627 2.84856C20.2846 2.95794 20.8783 3.26731 21.3471 3.69544C21.8127 4.12981 22.1439 4.67669 22.3502 5.24544C22.4502 5.52981 22.5002 5.82981 22.5471 6.12044C22.5627 6.42044 22.5627 6.72044 22.5158 7.02044C22.3002 6.79231 22.1314 6.56419 21.9721 6.34231C21.7877 6.13294 21.6439 5.91106 21.4783 5.70794C21.1533 5.30481 20.8377 4.93919 20.4971 4.61419C20.1471 4.29856 19.7783 4.02044 19.3502 3.77981C18.9252 3.53294 18.4471 3.32669 17.8721 3.13919Z" fill="#90A4AE"/>
<path d="M0.00597281 22.9391C0.446598 23.8016 0.905973 24.6016 1.44035 25.3079C1.9716 26.0141 2.58097 26.6141 3.29035 27.0047C3.6341 27.1954 4.04347 27.361 4.44347 27.486C4.8466 27.6141 5.26535 27.7016 5.6966 27.761C6.5591 27.8672 7.46535 27.8485 8.42472 27.7016C7.68097 28.3485 6.68722 28.6922 5.67472 28.7672C4.64972 28.836 3.6091 28.6141 2.67785 28.0891C1.74035 27.5547 1.05285 26.7047 0.621598 25.8016C0.190348 24.8922 -0.0409022 23.9141 0.00597281 22.9391Z" fill="#B0BEC5"/>
<path d="M2.95889 22.5735C3.26202 23.0985 3.56202 23.5204 3.89014 23.8891C4.21514 24.2579 4.56514 24.561 4.94639 24.836C5.33389 25.1016 5.75889 25.336 6.22139 25.5704C6.45264 25.6891 6.69952 25.7829 6.94327 25.9204C7.19639 26.0297 7.45264 26.1454 7.72139 26.311C7.43702 26.4172 7.14639 26.4797 6.84951 26.5266C6.55577 26.5391 6.25264 26.5547 5.95264 26.5141C5.35264 26.4329 4.75264 26.2235 4.22764 25.8579C3.71202 25.486 3.28389 24.9704 3.04951 24.386C2.81201 23.8047 2.74327 23.1547 2.95889 22.5735Z" fill="#90A4AE"/>
<defs>
<radialGradient id="paint0_radial_4_5649" cx="0" cy="0" r="1" gradientUnits="userSpaceOnUse" gradientTransform="translate(11.637 10.6456) rotate(-45) scale(28.44)">
<stop offset="0.353" stop-color="#FFCA28"/>
<stop offset="0.872" stop-color="#FFB300"/>
</radialGradient>
</defs>
</svg>
