<svg width="20" height="20" viewBox="0 0 20 20" fill="none" xmlns="http://www.w3.org/2000/svg">
<path d="M7.90057 -0.000244141C3.54821 -0.000244141 0 3.54797 0 7.90033C0 12.2527 3.54821 15.8009 7.90057 15.8009C9.74418 15.8009 11.4411 15.1664 12.7876 14.1017L18.3935 19.7076C18.4797 19.7948 18.5823 19.8641 18.6953 19.9116C18.8084 19.9591 18.9297 19.9838 19.0523 19.9843C19.1749 19.9849 19.2964 19.9612 19.4099 19.9147C19.5233 19.8681 19.6265 19.7997 19.7134 19.7132C19.8004 19.6267 19.8694 19.524 19.9166 19.4108C19.9637 19.2976 19.9881 19.1762 19.9882 19.0536C19.9884 18.931 19.9643 18.8095 19.9175 18.6962C19.8706 18.5829 19.8018 18.48 19.7151 18.3933L14.1019 12.7801C15.1617 11.4353 15.8011 9.73911 15.8011 7.90033C15.8011 3.54797 12.2529 -0.000244141 7.90057 -0.000244141ZM7.90057 1.85871C11.2483 1.85871 13.9422 4.55263 13.9422 7.90033C13.9422 11.248 11.2483 13.9419 7.90057 13.9419C4.55287 13.9419 1.85896 11.248 1.85896 7.90033C1.85896 4.55263 4.55287 1.85871 7.90057 1.85871Z" fill="white"/>
</svg>
