<svg width="44" height="45" viewBox="0 0 44 45" fill="none" xmlns="http://www.w3.org/2000/svg">
<path d="M21.2691 41.7008C19.6756 40.4237 4.87791 26.0527 4.7125 25.8956C4.05895 25.2429 3.64746 24.5661 3.5345 23.9456C3.41751 23.301 3.61518 22.737 4.13964 22.2132C4.62778 21.7257 5.22485 21.4679 5.8663 21.4679C6.64895 21.4679 7.45176 21.8385 8.12145 22.5113L14.8304 28.9495C14.9474 29.0623 15.1007 29.1187 15.25 29.1187C15.3688 29.1189 15.485 29.0841 15.5841 29.0186C15.6832 28.9531 15.7606 28.8598 15.8067 28.7504C15.8529 28.6411 15.8656 28.5206 15.8433 28.404C15.8211 28.2875 15.7648 28.1801 15.6816 28.0954L4.97069 17.0482C3.89758 15.9765 3.3933 14.3368 4.66813 13.0637C5.15627 12.5762 5.75334 12.3183 6.39479 12.3183C7.17743 12.3183 7.98025 12.689 8.64994 13.3618L19.607 24.0302C19.724 24.143 19.8773 24.2035 20.0306 24.2035C20.1839 24.2035 20.3412 24.143 20.4582 24.0262C20.6922 23.7925 20.6962 23.4138 20.4622 23.1761L7.3025 9.70359C6.69332 9.09524 6.32621 8.36601 6.26166 7.65693C6.20114 6.93577 6.4553 6.26697 6.99993 5.72308C7.48807 5.23558 8.08514 4.97774 8.72659 4.97774C9.50923 4.97774 10.3121 5.34839 10.9817 6.01718L24.4037 19.0868C24.5207 19.1996 24.674 19.2601 24.8273 19.2601C24.9806 19.2601 25.1379 19.1996 25.2549 19.0828C25.4889 18.8491 25.493 18.4704 25.259 18.2327L15.5122 8.22903C14.899 7.61664 14.5319 6.89145 14.4714 6.18237C14.4109 5.4612 14.665 4.79241 15.2096 4.24851C15.6978 3.76102 16.2949 3.50317 16.9363 3.50317C17.7189 3.50317 18.5218 3.87383 19.1915 4.54665C22.7658 8.05176 32.097 17.2174 32.4117 17.5558C33.6099 18.3818 33.8519 17.1328 33.9125 16.323C33.981 15.3803 32.8999 12.0887 33.5292 9.12747C34.5862 5.19127 37.632 5.83589 37.7006 5.86812C39.3708 6.64972 39.0521 7.81809 38.4591 10.1669L38.3985 10.6302C37.7773 13.7002 42.0455 22.7974 42.3602 23.4783C44.0344 27.1365 45.9628 34.5536 39.5766 40.9313C32.5771 47.9214 23.9115 44.3397 21.2691 41.7008Z" fill="url(#paint0_radial_4_4546)"/>
<path d="M31.4469 17.165C29.2321 21.6814 29.5185 28.0027 32.8427 33.075C33.2179 33.7599 33.8594 33.4255 33.5326 32.7205C29.5185 24.143 33.7262 17.9628 33.7262 17.9628L31.4469 17.165Z" fill="#EDA600"/>
<path d="M22.7363 0.22779C23.9547 -0.0904906 25.2537 -0.0622885 26.5164 0.231819C27.7711 0.533983 29.0257 1.17054 29.9576 2.20999C30.8694 3.24138 31.4302 4.49436 31.6198 5.80777C31.7973 7.10909 31.6319 8.4507 31.0146 9.56266C30.942 8.31372 30.7242 7.16549 30.357 6.1059C30.1674 5.57812 29.9455 5.07451 29.6753 4.59911C29.409 4.12773 29.0943 3.66038 28.7595 3.27764C28.0777 2.49201 27.1538 1.87962 26.117 1.40422C25.0762 0.912696 23.9426 0.550099 22.7363 0.22779Z" fill="#B0BEC5"/>
<path d="M23.0703 4.04713C23.744 3.62007 24.5872 3.53143 25.3819 3.67244C26.1848 3.81345 26.9513 4.21231 27.5564 4.76427C28.1575 5.32428 28.5851 6.02933 28.8514 6.76258C28.9805 7.12921 29.045 7.51598 29.1056 7.89066C29.1257 8.27743 29.1257 8.6642 29.0652 9.05098C28.7869 8.75687 28.569 8.46276 28.3633 8.17671C28.1252 7.90678 27.9397 7.62073 27.7258 7.35885C27.3063 6.83913 26.8988 6.36775 26.4591 5.94875C26.0073 5.54184 25.5312 5.18327 24.9785 4.87304C24.4299 4.55476 23.8126 4.28886 23.0703 4.04713Z" fill="#90A4AE"/>
<path d="M0.00771068 29.574C0.576541 30.6859 1.16958 31.7173 1.85943 32.6279C2.54526 33.5384 3.33194 34.3119 4.24771 34.8155C4.69148 35.0613 5.21997 35.2748 5.73636 35.436C6.25678 35.6012 6.79737 35.714 7.35409 35.7905C8.46755 35.9275 9.63748 35.9033 10.876 35.714C9.91585 36.5479 8.63295 36.9911 7.32585 37.0878C6.00262 37.1764 4.65921 36.8904 3.457 36.2135C2.24672 35.5246 1.35919 34.4288 0.802459 33.2644C0.245732 32.092 -0.0528032 30.831 0.00771068 29.574Z" fill="#B0BEC5"/>
<path d="M3.8199 29.1025C4.21122 29.7794 4.59851 30.3233 5.0221 30.7987C5.44167 31.2741 5.8935 31.6649 6.38568 32.0194C6.88593 32.3619 7.43459 32.6641 8.03166 32.9662C8.3302 33.1193 8.6489 33.2402 8.96357 33.4174C9.29035 33.5585 9.62116 33.7075 9.9681 33.9211C9.60099 34.058 9.2258 34.1386 8.84255 34.199C8.46333 34.2152 8.072 34.2353 7.68471 34.1829C6.91014 34.0782 6.13556 33.8083 5.4578 33.3369C4.79215 32.8574 4.23946 32.1927 3.93689 31.4393C3.63029 30.6899 3.54153 29.8519 3.8199 29.1025Z" fill="#90A4AE"/>
<defs>
<radialGradient id="paint0_radial_4_4546" cx="0" cy="0" r="1" gradientUnits="userSpaceOnUse" gradientTransform="translate(15.0227 13.7246) rotate(-44.9617) scale(36.6904 36.6904)">
<stop offset="0.353" stop-color="#FFCA28"/>
<stop offset="0.872" stop-color="#FFB300"/>
</radialGradient>
</defs>
</svg>
