<svg width="49" height="69" viewBox="0 0 49 69" fill="none" xmlns="http://www.w3.org/2000/svg">
<path d="M4.40638 0.566284C4.31628 0.567138 4.22662 0.578817 4.13933 0.601068C4.12736 0.603104 4.11543 0.605334 4.10354 0.607757C4.01952 0.631748 3.9386 0.665453 3.86243 0.708183C3.84885 0.715929 3.83542 0.723958 3.82218 0.732264C3.74514 0.777467 3.67381 0.831693 3.6097 0.893785C3.54837 0.957121 3.49477 1.02746 3.45 1.10333C3.44228 1.11626 3.43483 1.12935 3.42764 1.14258C3.38606 1.21647 3.35304 1.29483 3.32923 1.37616C3.32433 1.39352 3.31986 1.41099 3.31581 1.42856C3.2952 1.51363 3.28469 1.60081 3.28449 1.68832V13.9885C3.28392 14.136 3.31263 14.2822 3.36899 14.4186C3.42534 14.555 3.50822 14.6789 3.61284 14.7832C3.71747 14.8875 3.84177 14.9701 3.97858 15.0263C4.11539 15.0825 4.262 15.1111 4.40996 15.1105C4.55736 15.1102 4.70325 15.081 4.8393 15.0244C4.97534 14.9678 5.09886 14.8851 5.20278 14.7808C5.3067 14.6766 5.38899 14.553 5.44493 14.4171C5.50087 14.2811 5.52937 14.1355 5.5288 13.9885V2.80156H10.4598V11.3648C10.4595 11.4477 10.4685 11.5305 10.4866 11.6114C10.4866 11.6107 10.4866 11.6122 10.4866 11.6114C10.5249 11.7734 10.599 11.927 10.7035 12.0567C10.7035 12.056 10.7035 12.0575 10.7035 12.0567C10.7559 12.1213 10.8153 12.1821 10.8807 12.2336C10.8807 12.2328 10.8807 12.2343 10.8807 12.2336C10.9457 12.2848 11.0162 12.3309 11.0909 12.3667C11.2419 12.4394 11.4072 12.4775 11.5748 12.478H37.4293C37.5969 12.4775 37.7622 12.4394 37.9132 12.3667C37.988 12.3303 38.0585 12.2856 38.1234 12.2336C38.1889 12.1814 38.2483 12.1221 38.3006 12.0567C38.4053 11.9264 38.4795 11.7742 38.5175 11.6115C38.5356 11.5305 38.5446 11.4478 38.5443 11.3648V2.8016H44.5941C44.7414 2.80218 44.8873 2.77384 45.0235 2.71821C45.1597 2.66257 45.2836 2.58073 45.3882 2.47736C45.4927 2.37398 45.5757 2.2511 45.6326 2.11572C45.6895 1.98035 45.719 1.83513 45.7196 1.68836C45.7202 1.54086 45.6915 1.3947 45.6351 1.25831C45.5788 1.12192 45.4959 0.998009 45.3913 0.893709C45.2866 0.789409 45.1623 0.706788 45.0255 0.650609C44.8887 0.594431 44.7421 0.565806 44.5941 0.566387L4.40638 0.566284ZM11.5728 14.6237C11.2755 14.6249 10.9909 14.7437 10.7814 14.9541C10.572 15.1645 10.455 15.4492 10.4562 15.7456V19.1116C10.4562 26.7749 16.7455 32.9725 24.5 32.9725C32.2546 32.9725 38.5439 26.7744 38.5439 19.1116V15.7456C38.5451 15.4492 38.4281 15.1645 38.2187 14.9541C38.0092 14.7437 37.7246 14.6249 37.4273 14.6237H11.5728ZM24.5 34.3411C21.6811 34.3411 18.9793 34.8259 16.4731 35.7141L24.5 42.6119L32.527 35.7141C30.0208 34.8259 27.319 34.3411 24.5 34.3411ZM34.8348 36.6702C34.799 36.7081 34.7668 36.7455 34.7274 36.7793L25.6166 44.5982V69H47.0503C47.1983 69.0006 47.3449 68.9719 47.4817 68.9157C47.6185 68.8595 47.7428 68.7769 47.8474 68.6726C47.952 68.5683 48.0349 68.4444 48.0913 68.308C48.1476 68.1717 48.1764 68.0255 48.1758 67.878V57.6908C48.1758 48.4285 42.737 40.448 34.8348 36.6702ZM14.1631 36.6724C6.2624 40.4507 0.824227 48.4298 0.824227 57.6908V67.878C0.823668 68.0255 0.852398 68.1717 0.908761 68.3081C0.965123 68.4444 1.048 68.5684 1.15262 68.6726C1.25724 68.7769 1.38154 68.8596 1.51833 68.9157C1.65513 68.9719 1.80174 69.0006 1.94969 69H23.3746V44.596L14.2704 36.7793C14.2301 36.7459 14.1966 36.7097 14.1631 36.6724Z" fill="#1A86FF"/>
</svg>
