<svg width="18" height="17" viewBox="0 0 18 17" fill="none" xmlns="http://www.w3.org/2000/svg">
<path d="M15.75 -0.000244141H2.25C1.00935 -0.000244141 0 1.00911 0 2.24976V10.7998C0 12.0404 1.00935 13.0498 2.25 13.0498H5.80365C5.94765 13.0498 6.084 13.1195 6.1686 13.2365L7.90515 15.6436C8.1621 15.9995 8.56125 16.2038 9 16.2038C9.43875 16.2038 9.8379 15.9995 10.0948 15.6436L11.8314 13.2365C11.916 13.1195 12.0519 13.0498 12.1964 13.0498H15.75C16.9907 13.0498 18 12.0404 18 10.7998V2.24976C18 1.00911 16.9907 -0.000244141 15.75 -0.000244141ZM6.831 9.44031C6.831 9.93756 6.42825 10.3403 5.931 10.3403H5.3127C4.81545 10.3403 4.4127 9.93756 4.4127 9.44031V5.92041C4.4127 5.42316 4.81545 5.02041 5.3127 5.02041H5.931C6.42825 5.02041 6.831 5.42316 6.831 5.92041V9.44031ZM13.568 5.99736L12.6661 9.79401C12.5887 10.1203 12.2962 10.3502 11.9601 10.3502H8.7876C8.37405 10.3502 7.9677 10.2557 7.5978 10.0699L7.28145 9.68556V5.77056L7.3539 5.50956C7.87635 5.24856 8.3016 4.82286 8.56305 4.30041L9.52785 2.37081C9.6003 2.22591 9.74295 2.11701 9.90765 2.10981C10.696 2.07831 11.2522 2.85681 10.9791 3.58491L10.4085 5.10591H12.8628C13.3294 5.10591 13.6755 5.54376 13.5688 5.99826L13.568 5.99736Z" fill="white"/>
<path d="M5.62266 5.89194C5.43636 5.89194 5.28516 6.04314 5.28516 6.22944V6.71274C5.28516 6.89904 5.43636 7.05024 5.62266 7.05024C5.80896 7.05024 5.96016 6.89904 5.96016 6.71274V6.22944C5.96016 6.04314 5.80896 5.89194 5.62266 5.89194Z" fill="white"/>
</svg>
