<svg width="59" height="58" viewBox="0 0 59 58" fill="none" xmlns="http://www.w3.org/2000/svg">
<path fill-rule="evenodd" clip-rule="evenodd" d="M52.2448 18.1953V50.8206C52.2448 54.2497 49.4602 57.0344 46.0311 57.0344H6.36515C2.93603 57.0344 0.151367 54.2497 0.151367 50.8206V11.1547C0.151367 7.72556 2.93603 4.94092 6.36515 4.94092H41.8237" fill="#1A86FF"/>
<path fill-rule="evenodd" clip-rule="evenodd" d="M44.1465 19.4355H8.73652C7.93396 19.4355 7.27734 20.0922 7.27734 20.8947V41.2749C7.27734 42.0775 7.93396 42.7341 8.73652 42.7341H44.1465C44.949 42.7341 45.6056 42.0775 45.6056 41.2749V20.8947C45.6056 20.0922 44.949 19.4355 44.1465 19.4355ZM44.6207 23.8496L33.324 30.8295L43.3925 38.2714C43.9762 38.697 44.0978 39.5239 43.6722 40.1075C43.4169 40.4602 43.0156 40.6426 42.6143 40.6426C42.3468 40.6426 42.0671 40.5575 41.836 40.3872L30.9164 32.3251L26.8671 34.8179L22.1247 32.1792L11.0226 40.3872C10.7916 40.5575 10.5119 40.6426 10.2444 40.6426C9.84311 40.6426 9.44183 40.4602 9.18647 40.1075C8.76087 39.5239 8.88245 38.7091 9.46613 38.2714L19.6076 30.7808L8.10421 24.3847C7.47189 24.032 7.24084 23.2295 7.59348 22.5971C7.94612 21.9648 8.74868 21.7338 9.381 22.0864L26.8185 31.7658L43.2588 21.6122C43.8789 21.2352 44.6815 21.4176 45.0585 22.0378C45.4354 22.6579 45.2409 23.4727 44.6207 23.8496Z" fill="white"/>
<path fill-rule="evenodd" clip-rule="evenodd" d="M58.5802 9.51298C58.5802 4.4301 54.4579 0.307861 49.3751 0.307861C44.2922 0.307861 40.1699 4.4301 40.1699 9.51298C40.1699 14.5959 44.2922 18.7181 49.3751 18.7181C54.4579 18.7181 58.5802 14.5959 58.5802 9.51298Z" fill="white"/>
</svg>
