<svg width="33" height="30" viewBox="0 0 33 30" fill="none" xmlns="http://www.w3.org/2000/svg">
<path d="M16.3773 29.4611C25.0555 29.4611 32.0905 22.8876 32.0905 14.7788C32.0905 6.66993 25.0555 0.0964355 16.3773 0.0964355C7.6991 0.0964355 0.664062 6.66993 0.664062 14.7788C0.664062 22.8876 7.6991 29.4611 16.3773 29.4611Z" fill="#1A86FF"/>
<path d="M10.6318 14.0028H22.1399C23.0578 14.0028 23.9382 14.3436 24.5872 14.9501C25.2363 15.5565 25.6009 16.3791 25.6009 17.2368V19.2096H7.10156V17.2368C7.10147 16.8066 7.19324 16.3808 7.37148 15.9841C7.54973 15.5875 7.81088 15.228 8.13964 14.9269C8.4684 14.6257 8.85815 14.3889 9.28609 14.2302C9.71403 14.0715 10.1715 13.9942 10.6318 14.0028Z" fill="white"/>
<path d="M11.4798 19.2581H7.10156V21.2146H11.4798V19.2581Z" fill="white"/>
<path d="M25.6702 19.2581H21.292V21.2146H25.6702V19.2581Z" fill="white"/>
<path d="M8.71107 16.8972C8.70764 16.6919 8.76967 16.4902 8.88926 16.318C9.00885 16.1457 9.1806 16.0105 9.38265 15.9297C9.5847 15.8489 9.80792 15.8261 10.0239 15.8641C10.2399 15.9022 10.4388 15.9995 10.5954 16.1436C10.7521 16.2876 10.8593 16.472 10.9034 16.6731C10.9476 16.8743 10.9267 17.0832 10.8434 17.2733C10.7601 17.4633 10.6182 17.6259 10.4357 17.7403C10.2532 17.8548 10.0384 17.9159 9.81861 17.9159C9.52785 17.916 9.24874 17.8092 9.04153 17.6186C8.83431 17.428 8.71562 17.1689 8.71107 16.8972Z" fill="#21203D"/>
<path d="M24.0438 16.8971C24.0438 16.6956 23.9798 16.4987 23.86 16.3312C23.7402 16.1636 23.5699 16.0331 23.3707 15.956C23.1715 15.8789 22.9523 15.8587 22.7408 15.898C22.5293 15.9373 22.3351 16.0343 22.1826 16.1768C22.0301 16.3193 21.9263 16.5008 21.8842 16.6984C21.8422 16.896 21.8638 17.1008 21.9463 17.287C22.0288 17.4731 22.1685 17.6322 22.3478 17.7442C22.5271 17.8561 22.7379 17.9158 22.9535 17.9158C23.2427 17.9158 23.52 17.8085 23.7244 17.6175C23.9289 17.4264 24.0438 17.1673 24.0438 16.8971Z" fill="#21203D"/>
<path d="M24.147 15.4905H8.57227L10.4412 9.58843C10.5632 9.13207 10.8431 8.72614 11.2374 8.43373C11.6317 8.14132 12.1184 7.9788 12.6217 7.97144H20.1668C20.6731 7.97525 21.1638 8.13614 21.5616 8.42883C21.9594 8.72152 22.2419 9.12942 22.3646 9.58843L24.147 15.4905ZM10.4758 14.1969H22.2954L20.9456 9.96035C20.8954 9.78241 20.7829 9.62525 20.6262 9.51391C20.4694 9.40256 20.2772 9.34342 20.0803 9.34588H12.6736C12.4774 9.34616 12.2867 9.40635 12.1305 9.51728C11.9743 9.6282 11.8612 9.78379 11.8084 9.96035L10.4758 14.1969Z" fill="white"/>
<path d="M7.74199 14.2128H5.5096C5.32601 14.2128 5.14994 14.1446 5.02013 14.0234C4.89031 13.9021 4.81738 13.7375 4.81738 13.566C4.81738 13.3944 4.89031 13.2299 5.02013 13.1086C5.14994 12.9873 5.32601 12.9192 5.5096 12.9192H7.74199C7.92557 12.9192 8.10164 12.9873 8.23146 13.1086C8.36127 13.2299 8.4342 13.3944 8.4342 13.566C8.4342 13.7375 8.36127 13.9021 8.23146 14.0234C8.10164 14.1446 7.92557 14.2128 7.74199 14.2128Z" fill="white"/>
<path d="M27.2625 14.2128H25.0301C24.8465 14.2128 24.6704 14.1446 24.5406 14.0234C24.4108 13.9021 24.3379 13.7375 24.3379 13.566C24.3379 13.3944 24.4108 13.2299 24.5406 13.1086C24.6704 12.9873 24.8465 12.9192 25.0301 12.9192H27.2625C27.4461 12.9192 27.6221 12.9873 27.752 13.1086C27.8818 13.2299 27.9547 13.3944 27.9547 13.566C27.9547 13.7375 27.8818 13.9021 27.752 14.0234C27.6221 14.1446 27.4461 14.2128 27.2625 14.2128Z" fill="white"/>
</svg>
