<svg width="19" height="18" viewBox="0 0 19 18" fill="none" xmlns="http://www.w3.org/2000/svg">
<path d="M9.40316 -0.000238288C8.93048 0.00298726 8.49279 0.255282 8.24639 0.66322L5.84602 4.61769L2.03658 2.43437C2.03577 2.43436 2.03495 2.43436 2.03413 2.43437C1.49828 2.13146 0.889872 2.24172 0.489451 2.58244C0.0890168 2.92316 -0.124884 3.51279 0.0774489 4.0991C0.0774455 4.09997 0.0774455 4.10084 0.0774489 4.10171L2.86574 12.053C3.05976 12.6045 3.57804 12.975 4.15689 12.9735H14.6667C15.2453 12.9739 15.7622 12.6047 15.9553 12.053L18.7443 4.10171C18.7451 4.10084 18.7459 4.09997 18.7467 4.0991C18.9503 3.51187 18.7357 2.92343 18.3341 2.58244C17.9328 2.24145 17.3205 2.12934 16.7843 2.43437L12.9755 4.61769L10.5771 0.665784C10.3285 0.251995 9.88431 -0.00164884 9.40571 -0.000238288C9.40489 -0.000241414 9.40398 -0.000241414 9.40316 -0.000238288ZM4.21893 13.9356C3.56522 13.9356 3.0311 14.4782 3.0311 15.1394V16.0144C3.0311 16.6757 3.56522 17.2208 4.21893 17.2208H14.602C15.2557 17.2208 15.7923 16.6757 15.7923 16.0144V15.1394C15.7923 14.4782 15.2557 13.9356 14.602 13.9356H4.21893Z" fill="white"/>
</svg>
