<svg width="33" height="30" viewBox="0 0 33 30" fill="none" xmlns="http://www.w3.org/2000/svg">
<path d="M16.3353 29.4611C25.0135 29.4611 32.0485 22.8876 32.0485 14.7788C32.0485 6.66993 25.0135 0.0964355 16.3353 0.0964355C7.65712 0.0964355 0.62207 6.66993 0.62207 14.7788C0.62207 22.8876 7.65712 29.4611 16.3353 29.4611Z" fill="#1A86FF"/>
<path d="M10.071 21.9099C9.16597 21.9164 8.27929 21.6714 7.52345 21.2063C6.76761 20.7411 6.17666 20.0767 5.82556 19.2972C5.47446 18.5178 5.37903 17.6585 5.55138 16.8283C5.72373 15.9981 6.1561 15.2344 6.79363 14.6341C7.43116 14.0339 8.24513 13.6241 9.13229 13.4567C10.0194 13.2894 10.9398 13.372 11.7766 13.6941C12.6134 14.0163 13.329 14.5634 13.8326 15.2661C14.3361 15.9688 14.605 16.7954 14.605 17.6411C14.605 18.7677 14.1284 19.8486 13.2791 20.6482C12.4298 21.4479 11.2767 21.9014 10.071 21.9099ZM10.071 14.682C9.44049 14.682 8.82418 14.8569 8.30017 15.1845C7.77617 15.5122 7.36806 15.9778 7.12758 16.5224C6.88709 17.067 6.82505 17.6661 6.94932 18.2437C7.07359 18.8212 7.37858 19.3513 7.82563 19.7668C8.27267 20.1822 8.84166 20.4643 9.46046 20.5773C10.0793 20.6903 10.72 20.629 11.3016 20.4014C11.8831 20.1737 12.3792 19.7898 12.727 19.2984C13.0748 18.807 13.2586 18.2302 13.2552 17.6411C13.2552 17.2511 13.1727 16.865 13.0125 16.5049C12.8522 16.1448 12.6174 15.8179 12.3215 15.5429C12.0256 15.2679 11.6744 15.0503 11.2882 14.9026C10.902 14.7548 10.4883 14.6798 10.071 14.682Z" fill="white"/>
<path d="M22.5996 21.91C21.6953 21.9132 20.8103 21.6656 20.0567 21.1985C19.3031 20.7313 18.7149 20.0658 18.3664 19.286C18.018 18.5063 17.925 17.6474 18.0994 16.8183C18.2737 15.9892 18.7074 15.227 19.3457 14.6284C19.9839 14.0297 20.7979 13.6216 21.6846 13.4555C22.5713 13.2895 23.4908 13.3731 24.3266 13.6957C25.1624 14.0183 25.8769 14.5655 26.3797 15.2678C26.8825 15.9702 27.1509 16.7962 27.1509 17.6412C27.1509 18.7705 26.6719 19.8539 25.8189 20.654C24.9658 21.4541 23.8083 21.9058 22.5996 21.91ZM22.5996 14.6821C21.9684 14.6789 21.3503 14.851 20.8241 15.1767C20.2978 15.5024 19.887 15.9669 19.6438 16.5113C19.4007 17.0556 19.3362 17.6551 19.4585 18.2338C19.5808 18.8124 19.8844 19.3441 20.3308 19.7611C20.7771 20.1782 21.3461 20.4619 21.9654 20.5762C22.5846 20.6905 23.2263 20.6302 23.8088 20.403C24.3914 20.1758 24.8885 19.7919 25.237 19.3002C25.5856 18.8084 25.7699 18.231 25.7664 17.6412C25.7619 16.8577 25.4268 16.1075 24.8339 15.5534C24.2409 14.9994 23.4381 14.6863 22.5996 14.6821Z" fill="white"/>
<path d="M13.9816 9.49146H10.0879V10.785H13.9816V9.49146Z" fill="white"/>
<path d="M10.711 17.8997L9.41309 17.3823L11.8185 12.1917C11.8709 12.0742 11.96 11.9743 12.0743 11.905C12.1886 11.8358 12.3226 11.8004 12.4588 11.8037H20.6789V13.0973H12.8741L10.711 17.8997Z" fill="white"/>
<path d="M21.9419 17.8511L18.7578 8.92527H16.2139V7.63166H19.2596C19.4071 7.6296 19.5513 7.67277 19.67 7.75454C19.7888 7.8363 19.8756 7.95217 19.9172 8.08442L23.2571 17.4468L21.9419 17.8511Z" fill="white"/>
</svg>
