<svg width="60" height="58" viewBox="0 0 60 58" fill="none" xmlns="http://www.w3.org/2000/svg">
<path fill-rule="evenodd" clip-rule="evenodd" d="M53.0524 18.3232V50.9484C53.0524 54.3775 50.2678 57.1622 46.8386 57.1622H7.17273C3.74361 57.1622 0.958984 54.3775 0.958984 50.9484V11.2825C0.958984 7.85338 3.74361 5.06873 7.17273 5.06873H42.6313" fill="#1A86FF"/>
<path fill-rule="evenodd" clip-rule="evenodd" d="M59.3995 9.64092C59.3995 4.55804 55.2773 0.435791 50.1944 0.435791C45.1115 0.435791 40.9893 4.55804 40.9893 9.64092C40.9893 14.7238 45.1115 18.846 50.1944 18.846C55.2773 18.846 59.3995 14.7238 59.3995 9.64092Z" fill="white"/>
<path fill-rule="evenodd" clip-rule="evenodd" d="M27.2849 14.1401C17.9825 14.1401 10.4434 20.5849 10.4434 28.5254C10.4434 33.28 13.1429 37.4752 17.3016 40.0896L16.5355 46.7776L23.4181 42.5216C24.6584 42.7769 25.9473 42.9228 27.2849 42.9228C36.5873 42.9228 44.1266 36.4781 44.1266 28.5376C44.1266 20.5849 36.5873 14.1401 27.2849 14.1401Z" fill="white"/>
</svg>
