<svg width="66" height="72" viewBox="0 0 66 72" fill="none" xmlns="http://www.w3.org/2000/svg">
<path fill-rule="evenodd" clip-rule="evenodd" d="M43.4868 72L43.4907 43.2012L35.076 42.4612C34.7968 42.4671 34.5186 42.4425 34.2473 42.3872L34.268 42.3892L34.265 42.3754C32.8453 41.9393 32.0294 41.2655 31.54 40.3095L28.23 33.863L28.2132 71.6577H19.9988V47.9487H18.8889V71.6577H10.6833L10.6892 33.862L7.37822 40.3095C6.39754 42.2205 4.11357 43.0058 2.27356 42.0617C0.436511 41.1195 -0.258056 38.8029 0.721637 36.8929L7.21247 24.2397C7.32593 24.0227 7.45419 23.8204 7.59626 23.634C8.18131 21.941 9.79046 20.7235 11.6818 20.7235H27.2355C29.1278 20.7235 30.736 21.9419 31.321 23.634C31.4631 23.8204 31.5923 24.0227 31.7028 24.2397L37.947 36.4075H57.2547C58.6587 36.4075 59.8535 37.3112 60.2876 38.5681C60.3931 38.7072 60.4888 38.8562 60.5707 39.018L65.3922 48.4114C66.1193 49.8291 65.6043 51.5488 64.2389 52.2483C62.8734 52.9488 61.1765 52.3667 60.4503 50.9479L57.9927 46.162L57.9799 72H51.1418V56.6189H50.318V72H43.4868ZM44.3599 27.1857C44.3599 24.0148 46.9349 21.4407 50.1068 21.4407C53.2778 21.4407 55.8528 24.0148 55.8528 27.1857C55.8528 30.3566 53.2778 32.9327 50.1068 32.9327C46.9349 32.9327 44.3599 30.3566 44.3599 27.1857ZM11.8603 8.30221C11.8603 4.03024 15.3282 0.56234 19.6002 0.56234C23.8722 0.56234 27.3411 4.03024 27.3411 8.30221C27.3411 12.5742 23.8722 16.0421 19.6002 16.0421C15.3282 16.0421 11.8603 12.5742 11.8603 8.30221Z" fill="#1A86FF"/>
</svg>
