<svg width="17" height="18" viewBox="0 0 17 18" fill="none" xmlns="http://www.w3.org/2000/svg">
<path d="M14.5485 3.17412C11.7245 0.405131 7.38068 0.0947366 4.21305 2.21585L4.20418 0.998168C4.20269 0.793217 4.03446 0.628262 3.82843 0.629895L3.08283 0.635682C2.87695 0.637241 2.71141 0.804571 2.7129 1.00937L2.73348 3.78645C2.73639 4.19443 3.06993 4.5227 3.47916 4.5227C3.48065 4.5227 3.48281 4.5227 3.48497 4.5227L6.27604 4.50222C6.48199 4.50074 6.64768 4.33326 6.64612 4.12831L6.6403 3.3862C6.63874 3.18132 6.47059 3.01659 6.26478 3.01807L5.79038 3.02148C8.28675 1.78139 11.4057 2.17623 13.5014 4.23064C15.5127 6.20357 16.0622 9.1695 14.9193 11.7127C14.838 11.8937 14.9046 12.1047 15.0821 12.195L15.7476 12.5334C15.9362 12.6293 16.1747 12.552 16.2622 12.3602C17.6839 9.2434 17.0176 5.59621 14.5485 3.17412Z" fill="white"/>
<path d="M14.1028 13.4547C14.1014 13.4547 14.0992 13.4547 14.097 13.4547L11.306 13.4751C11.1 13.4766 10.9343 13.644 10.9359 13.849L10.9417 14.5911C10.9433 14.7959 11.1114 14.9606 11.3172 14.9592L11.7912 14.9558C9.29465 16.1956 6.17624 15.8004 4.08059 13.7467C2.06935 11.7737 1.51979 8.80774 2.66269 6.26463C2.74404 6.08357 2.67738 5.87261 2.49991 5.7823L1.83439 5.44393C1.64581 5.34806 1.40734 5.42531 1.3198 5.61712C-0.102057 8.73383 0.564354 12.381 3.03336 14.8032C4.62881 16.3677 6.71007 17.1474 8.78976 17.1474C10.3911 17.1474 11.9909 16.6835 13.3687 15.7606L13.3776 16.9791C13.3791 17.184 13.5473 17.349 13.7533 17.3474L14.499 17.3416C14.7048 17.34 14.8704 17.1727 14.8689 16.9679L14.8483 14.1909C14.8456 13.7829 14.5121 13.4547 14.1028 13.4547Z" fill="white"/>
</svg>
