<svg width="42" height="42" viewBox="0 0 42 42" fill="none" xmlns="http://www.w3.org/2000/svg">
<path d="M38.1596 17.5726H36.75V17.5H21V24.5H30.8901C29.4473 28.5748 25.5701 31.5 21 31.5C15.2014 31.5 10.5 26.7986 10.5 21C10.5 15.2013 15.2014 10.5 21 10.5C23.6766 10.5 26.1118 11.5097 27.9659 13.1591L32.9158 8.20921C29.7903 5.29634 25.6095 3.49996 21 3.49996C11.3356 3.49996 3.5 11.3356 3.5 21C3.5 30.6643 11.3356 38.5 21 38.5C30.6644 38.5 38.5 30.6643 38.5 21C38.5 19.8266 38.3793 18.6812 38.1596 17.5726Z" fill="#FFC107"/>
<path d="M5.51758 12.8546L11.2672 17.0712C12.823 13.2195 16.5907 10.5 20.9998 10.5C23.6765 10.5 26.1116 11.5097 27.9657 13.1591L32.9156 8.20921C29.7901 5.29634 25.6093 3.49996 20.9998 3.49996C14.2781 3.49996 8.44883 7.29484 5.51758 12.8546Z" fill="#FF3D00"/>
<path d="M20.9993 38.5C25.5195 38.5 29.6268 36.7701 32.7322 33.957L27.3159 29.3738C25.4999 30.7549 23.2808 31.5018 20.9993 31.5C16.4475 31.5 12.5827 28.5976 11.1267 24.5473L5.41992 28.9441C8.31617 34.6115 14.1979 38.5 20.9993 38.5Z" fill="#4CAF50"/>
<path d="M38.1596 17.5726H36.75V17.5H21V24.5H30.8901C30.1999 26.4393 28.9567 28.134 27.314 29.3746L27.3166 29.3729L32.7329 33.9561C32.3496 34.3044 38.5 29.75 38.5 21C38.5 19.8266 38.3793 18.6812 38.1596 17.5726Z" fill="#1976D2"/>
</svg>
