<svg width="169" height="262" viewBox="0 0 169 262" fill="none" xmlns="http://www.w3.org/2000/svg">
<path d="M130.166 261.29L132.549 223.862C132.549 223.862 134.154 230.294 135.358 232.702C136.562 235.11 161.089 223.862 161.089 223.862C161.089 223.862 154.656 180.438 150.631 164.752C146.606 149.066 145.402 128.564 141.791 127.36C138.167 126.156 92.7374 104.84 91.5336 104.84C90.3298 104.84 65.803 107.247 65.803 107.247L25.9912 131.373L31.9496 261.278H130.166V261.29Z" fill="white" stroke="#263238" stroke-width="1.079" stroke-miterlimit="10" stroke-linecap="round" stroke-linejoin="round"/>
<path d="M98.6226 160.776C98.574 162.101 98.501 163.39 98.3916 164.63" stroke="#263238" stroke-width="1.079" stroke-miterlimit="10" stroke-linecap="round" stroke-linejoin="round"/>
<path d="M96.2148 126.156C96.2148 126.156 98.5009 141.052 98.6833 155.073" stroke="#263238" stroke-width="1.079" stroke-miterlimit="10" stroke-linecap="round" stroke-linejoin="round"/>
<path d="M128.025 157.444L128.147 151.084" stroke="#263238" stroke-width="1.079" stroke-miterlimit="10" stroke-linecap="round" stroke-linejoin="round"/>
<path d="M126.834 221.503L127.941 162.186" stroke="#263238" stroke-width="1.079" stroke-miterlimit="10" stroke-linecap="round" stroke-linejoin="round"/>
<path d="M166.038 261.29L163.132 236.812L135.577 242.053L144.989 261.29H166.038Z" fill="white" stroke="#263238" stroke-width="1.079" stroke-miterlimit="10" stroke-linecap="round" stroke-linejoin="round"/>
<path d="M131.199 230.683C131.199 230.683 137.327 228.057 145.195 223.254C153.063 218.438 160.504 217.125 162.693 221.065C164.882 225.005 169.685 235.937 167.946 237.688C166.195 239.439 140.392 247.744 137.765 247.744C135.139 247.744 130.348 238.928 130.348 238.928C130.348 238.928 129.46 235.061 131.199 230.683Z" fill="white" stroke="#263238" stroke-width="1.079" stroke-miterlimit="10" stroke-linecap="round" stroke-linejoin="round"/>
<path d="M70.6425 95.6102C70.6425 95.6102 66.1068 99.2582 64.6111 101.642C62.6047 104.864 61.3887 110.482 61.3887 110.482L78.6802 134.607L89.5391 117.717L93.5641 115.309L110.856 126.971C110.856 126.971 104.824 106.068 98.3916 99.6352C91.9468 93.1904 74.254 93.9929 70.6425 95.6102Z" fill="white" stroke="#263238" stroke-width="1.079" stroke-miterlimit="10" stroke-linecap="round" stroke-linejoin="round"/>
<path d="M91.9351 11.9128C91.9351 11.9128 101.043 19.1967 101.955 23.3068C102.867 27.4047 100.35 36.3788 100.35 36.3788L88.2871 12.8248L91.9351 11.9128Z" fill="#263238" stroke="#263238" stroke-width="1.079" stroke-miterlimit="10" stroke-linecap="round" stroke-linejoin="round"/>
<path d="M89.1378 8.34998C89.1378 8.34998 105.627 44.1368 108.034 56.1996C110.442 68.2623 109.238 79.5225 104.812 87.9615C100.386 96.4005 95.5583 95.1967 95.5583 95.1967V122.532C95.5583 122.532 74.254 105.642 73.038 103.636C71.8341 101.629 69.8156 98.0056 69.8156 98.0056C69.8156 98.0056 67.4079 80.3128 59.7592 75.084C59.7592 75.084 49.7029 76.6892 47.2953 67.4476C44.8876 58.1938 46.894 54.9836 53.3266 54.181C53.3266 54.181 48.0978 40.9145 46.894 32.062C45.6901 23.2217 60.5618 20.4005 69.4143 14.7705C78.2789 9.15253 89.1378 8.34998 89.1378 8.34998Z" fill="white" stroke="#263238" stroke-width="1.079" stroke-miterlimit="10" stroke-linecap="round" stroke-linejoin="round"/>
<path d="M95.571 95.2089L87.8008 92.181L95.109 105.703L95.571 95.2089Z" fill="#263238" stroke="#263238" stroke-width="1.079" stroke-miterlimit="10" stroke-linecap="round" stroke-linejoin="round"/>
<path d="M52.5487 57.0022C52.5487 57.0022 47.3199 54.9958 41.6898 47.7484C36.0597 40.501 34.4546 34.8831 42.091 22.8204C49.7275 10.7577 77.0754 -0.502482 84.7119 0.701358C92.3484 1.9052 97.1759 11.5602 87.9343 17.5916C78.6805 23.623 67.4325 26.0306 67.4325 26.0306C67.4325 26.0306 71.8587 22.407 67.0312 21.6044C62.2037 20.8018 52.5608 25.6294 53.3634 29.6422C54.1659 33.6671 60.1973 32.4511 59.796 38.8959C59.3947 45.3286 53.7646 52.1625 55.771 54.5823C57.7774 56.99 62.605 59.0086 58.58 60.2124C54.555 61.4284 52.5487 57.0022 52.5487 57.0022Z" fill="#263238" stroke="#263238" stroke-width="1.079" stroke-miterlimit="10" stroke-linecap="round" stroke-linejoin="round"/>
<path d="M80.6867 63.4348L74.6553 68.2623" stroke="#263238" stroke-width="1.079" stroke-miterlimit="10" stroke-linecap="round" stroke-linejoin="round"/>
<path d="M77.8779 66.6572C77.8779 66.6572 85.5144 73.8924 98.781 67.8611" stroke="#263238" stroke-width="1.079" stroke-miterlimit="10" stroke-linecap="round" stroke-linejoin="round"/>
<path d="M80.6865 69.0649C80.6865 69.0649 83.0942 74.2937 89.5268 75.8989C95.9595 77.504 92.7492 70.2688 92.7492 70.2688C92.7492 70.2688 83.9089 70.2688 80.6865 69.0649Z" fill="#263238" stroke="#263238" stroke-width="1.079" stroke-miterlimit="10" stroke-linecap="round" stroke-linejoin="round"/>
<path d="M73.7803 44.8421C74.4004 46.7391 74.2302 48.5023 73.3912 48.782C72.5521 49.0617 71.3604 47.7484 70.7281 45.8514C70.108 43.9545 70.2782 42.1912 71.1172 41.9116C71.9562 41.6319 73.1479 42.9452 73.7803 44.8421Z" fill="#263238"/>
<path d="M94.6826 38.8107C95.3028 40.7077 95.1325 42.4709 94.2935 42.7506C93.4544 43.0303 92.2628 41.717 91.6305 39.82C91.0103 37.9231 91.1805 36.1599 92.0196 35.8802C92.8708 35.6005 94.0624 36.9138 94.6826 38.8107Z" fill="#263238"/>
<path d="M84.2374 47.7848L67.4566 53.3298C66.1555 53.7554 64.7449 53.0501 64.3193 51.749L61.8144 44.1855C61.3888 42.8843 62.0941 41.4738 63.3952 41.0482L80.176 35.5032C81.4771 35.0776 82.8877 35.7829 83.3133 37.084L85.8182 44.6475C86.256 45.9487 85.5385 47.3471 84.2374 47.7848Z" stroke="#263238" stroke-width="1.079" stroke-miterlimit="10" stroke-linecap="round" stroke-linejoin="round"/>
<path d="M83.0215 35.9289L88.8583 33.9833" stroke="#263238" stroke-width="1.079" stroke-miterlimit="10" stroke-linecap="round" stroke-linejoin="round"/>
<path d="M61.8876 44.3801L51.3936 54.7283" stroke="#263238" stroke-width="1.079" stroke-miterlimit="10" stroke-linecap="round" stroke-linejoin="round"/>
<path d="M108.825 27.9033L101.043 34.4697" stroke="#263238" stroke-width="1.079" stroke-miterlimit="10" stroke-linecap="round" stroke-linejoin="round"/>
<path d="M110.783 39.7349L94.0025 45.2799C92.7014 45.7055 91.2908 45.0002 90.8652 43.6991L88.3603 36.1355C87.9347 34.8344 88.64 33.4239 89.9411 32.9983L106.722 27.4533C108.023 27.0277 109.434 27.733 109.859 29.0341L112.364 36.5976C112.79 37.8987 112.084 39.3093 110.783 39.7349Z" stroke="#263238" stroke-width="1.079" stroke-miterlimit="10" stroke-linecap="round" stroke-linejoin="round"/>
<path d="M65.0127 38.1056C65.0127 38.1056 69.8402 32.0742 77.0754 32.8768" stroke="#263238" stroke-width="2.1581" stroke-miterlimit="10" stroke-linecap="round" stroke-linejoin="round"/>
<path d="M87.1191 29.6665C87.1191 29.6665 90.3416 26.4441 96.3729 28.0614" stroke="#263238" stroke-width="2.1581" stroke-miterlimit="10" stroke-linecap="round" stroke-linejoin="round"/>
<path d="M88.3359 37.303C88.3359 37.303 100.399 60.6259 99.1948 62.231C97.991 63.8361 89.9411 62.231 89.9411 62.231" fill="white"/>
<path d="M88.3359 37.303C88.3359 37.303 100.399 60.6259 99.1948 62.231C97.991 63.8361 89.9411 62.231 89.9411 62.231" stroke="#263238" stroke-width="1.079" stroke-miterlimit="10" stroke-linecap="round" stroke-linejoin="round"/>
<path d="M30.8302 128.977C30.8302 128.977 23.9963 128.977 21.9899 135.009C19.9835 141.04 1.08685 209.793 3.09325 211.811C5.09965 213.818 30.4289 215.435 33.2501 214.62C36.059 213.817 48.1217 167.573 48.1217 167.573" fill="white"/>
<path d="M30.8302 128.977C30.8302 128.977 23.9963 128.977 21.9899 135.009C19.9835 141.04 1.08685 209.793 3.09325 211.811C5.09965 213.818 30.4289 215.435 33.2501 214.62C36.059 213.817 48.1217 167.573 48.1217 167.573" stroke="#263238" stroke-width="1.079" stroke-miterlimit="10" stroke-linecap="round" stroke-linejoin="round"/>
<path d="M40.8868 213.015C40.8868 213.015 42.4919 204.977 35.658 201.755C28.8241 198.532 17.5639 198.946 10.73 204.163C3.89606 209.391 2.69222 208.188 1.07494 218.232C-0.53018 228.288 6.30375 234.721 11.9338 235.924C17.5639 237.128 22.3914 238.332 29.2254 231.498C36.0593 224.676 40.8868 213.015 40.8868 213.015Z" fill="white" stroke="#263238" stroke-width="1.079" stroke-miterlimit="10" stroke-linecap="round" stroke-linejoin="round"/>
<path d="M83.2402 170.674C83.2402 170.674 80.4312 232.191 69.9736 255.113C69.9736 255.113 80.03 258.335 96.5068 256.718C112.996 255.113 128.269 246.26 128.269 246.26C128.269 246.26 133.899 212.48 136.708 196.003C139.517 179.514 141.134 170.273 141.134 170.273C141.134 170.273 137.51 173.082 117.009 174.298C96.5068 175.501 83.2402 170.674 83.2402 170.674Z" fill="white" stroke="#263238" stroke-width="1.079" stroke-miterlimit="10" stroke-linecap="round" stroke-linejoin="round"/>
<path d="M56.9746 221.053C56.9746 221.053 33.6517 206.582 30.4415 206.582C27.2312 206.582 17.5762 209.805 13.5512 219.046C9.52627 228.3 9.92754 233.115 15.1563 234.733C20.3851 236.338 54.1535 239.56 58.1784 239.56C62.2034 239.56 71.8463 241.567 77.4763 241.567C83.1064 241.567 97.9781 239.961 99.9966 236.739C102.003 233.517 85.5262 234.733 84.3102 234.331C83.1064 233.93 99.3765 230.793 101.602 230.306C103.876 229.808 106.831 226.683 102.404 225.479C102.404 225.479 110.041 221.855 105.213 218.645L82.7538 214.693L89.6971 213.234C89.6971 213.234 105.408 217.441 105.213 212.614C105.128 210.607 92.348 206.582 88.3231 206.582C84.2981 206.582 62.9938 221.053 62.9938 221.053H56.9746Z" fill="white" stroke="#263238" stroke-width="1.079" stroke-miterlimit="10" stroke-linecap="round" stroke-linejoin="round"/>
<path d="M102.404 225.479L81.9023 223.874" stroke="#263238" stroke-width="1.079" stroke-miterlimit="10" stroke-linecap="round" stroke-linejoin="round"/>
</svg>
