<svg width="33" height="30" viewBox="0 0 33 30" fill="none" xmlns="http://www.w3.org/2000/svg">
<path d="M16.306 29.4611C24.9842 29.4611 32.0192 22.8876 32.0192 14.7788C32.0192 6.66993 24.9842 0.0964355 16.306 0.0964355C7.62782 0.0964355 0.592773 6.66993 0.592773 14.7788C0.592773 22.8876 7.62782 29.4611 16.306 29.4611Z" fill="#1A86FF"/>
<path d="M13.5368 16.1858H12.1524V13.1782C12.1516 13.0737 12.178 12.9705 12.2292 12.8776C12.2804 12.7847 12.355 12.7047 12.4466 12.6446L15.9076 10.3808C16.0285 10.2785 16.1858 10.2219 16.3489 10.2219C16.512 10.2219 16.6693 10.2785 16.7902 10.3808L19.5071 12.8872H22.5182V14.1808H19.2302C19.1409 14.1826 19.052 14.1678 18.9689 14.1372C18.8857 14.1067 18.8098 14.061 18.7457 14.0029L16.1499 11.6906L13.5368 13.4531V16.1858Z" fill="white"/>
<path d="M19.9046 23.7209L18.6586 20.4061L15.5264 17.8027V10.8496H16.9108V17.2206L19.8527 19.6623L21.2198 23.2843L19.9046 23.7209Z" fill="white"/>
<path d="M12.4465 24.0443L11.5293 23.0903L14.3154 20.7457L15.5614 17.3176L16.8766 17.7219L15.5095 21.4733L12.4465 24.0443Z" fill="white"/>
<path d="M16.2185 9.23264C17.1838 9.23264 17.9664 8.50145 17.9664 7.59948C17.9664 6.69751 17.1838 5.96631 16.2185 5.96631C15.2532 5.96631 14.4707 6.69751 14.4707 7.59948C14.4707 8.50145 15.2532 9.23264 16.2185 9.23264Z" fill="white"/>
</svg>
