<svg width="83" height="98" viewBox="0 0 83 98" fill="none" xmlns="http://www.w3.org/2000/svg">
<path d="M7.5752 56.8121C12.3054 62.7827 19.1393 67.4521 27.2014 70.0179L11.3812 97.8886L40.7355 72.2067C41.0273 72.2067 41.307 72.231 41.5989 72.231C55.7896 72.231 68.2901 66.1145 75.6469 56.8121H7.5752Z" fill="#1A86FF"/>
<path d="M41.0398 0.474854C18.41 0.474854 0.0605469 16.0396 0.0605469 35.2403C0.0605469 50.1484 11.114 62.8556 26.6423 67.7926L10.8222 95.6633L40.1764 69.9814C40.4683 69.9814 40.7479 70.0057 41.0398 70.0057C63.6695 70.0057 82.019 54.4409 82.019 35.2403C82.019 16.0396 63.6695 0.474854 41.0398 0.474854Z" fill="white"/>
<path d="M26.5576 36.0063C26.5576 33.4892 24.5147 31.4585 22.0098 31.4585C19.4927 31.4585 17.4619 33.5014 17.4619 36.0063C17.4619 38.5235 19.5048 40.5542 22.0098 40.5542C24.5147 40.5542 26.5576 38.5235 26.5576 36.0063Z" fill="#1A86FF"/>
<path d="M46.8281 36.0063C46.8281 33.4892 44.7852 31.4585 42.2803 31.4585C39.7631 31.4585 37.7324 33.5014 37.7324 36.0063C37.7324 38.5235 39.7753 40.5542 42.2803 40.5542C44.7974 40.5542 46.8281 38.5235 46.8281 36.0063Z" fill="#1A86FF"/>
<path d="M62.5625 40.5542C65.0742 40.5542 67.1103 38.518 67.1103 36.0063C67.1103 33.4946 65.0742 31.4585 62.5625 31.4585C60.0508 31.4585 58.0146 33.4946 58.0146 36.0063C58.0146 38.518 60.0508 40.5542 62.5625 40.5542Z" fill="#1A86FF"/>
</svg>
