<svg width="26" height="77" viewBox="0 0 26 77" fill="none" xmlns="http://www.w3.org/2000/svg">
<path d="M13.1575 59L20.3737 67.1519L13 75.1189" stroke="#EAF4FF" stroke-width="2" stroke-miterlimit="10" stroke-linecap="round" stroke-linejoin="round"/>
<path d="M10.2839 0.0118408C4.62502 0.0118408 0.0117188 4.62515 0.0117188 10.284C0.0117188 15.9428 4.62502 20.5561 10.2839 20.5561C12.6809 20.5561 14.8872 19.7312 16.6379 18.3469L23.9265 25.6355C24.0386 25.7489 24.172 25.8391 24.319 25.9008C24.4659 25.9625 24.6237 25.9947 24.7831 25.9953C24.9425 25.996 25.1005 25.9652 25.248 25.9047C25.3955 25.8442 25.5296 25.7552 25.6427 25.6428C25.7557 25.5304 25.8455 25.3968 25.9068 25.2496C25.9681 25.1024 25.9997 24.9446 25.9999 24.7852C26.0001 24.6258 25.9689 24.4679 25.9079 24.3205C25.847 24.1732 25.7576 24.0394 25.6449 23.9267L18.3467 16.6285C19.7246 14.8801 20.556 12.6747 20.556 10.284C20.556 4.62515 15.9427 0.0118408 10.2839 0.0118408ZM10.2839 2.42881C14.6365 2.42881 18.139 5.93138 18.139 10.284C18.139 14.6366 14.6365 18.1391 10.2839 18.1391C5.93126 18.1391 2.42869 14.6366 2.42869 10.284C2.42869 5.93138 5.93125 2.42881 10.2839 2.42881Z" fill="white"/>
</svg>
