<svg width="24" height="24" viewBox="0 0 24 24" fill="none" xmlns="http://www.w3.org/2000/svg">
<path d="M10.7212 19.155H13.1037V23.92H10.7212V19.155Z" fill="#1A86FF"/>
<path d="M19.0598 2.85897L11.9124 0L4.76494 2.85897V7.24271H0V23.92H8.33865V16.7726H15.4861V23.92H23.8247V7.24271H19.0598V2.85897ZM5.95618 19.1551H3.57371V16.7726H5.95618V19.1551ZM5.95618 14.3901H3.57371V12.0077H5.95618V14.3901ZM10.7211 14.3901H8.33865V12.0077H10.7211V14.3901ZM10.7211 4.86024H13.1036V9.62519H10.7211V4.86024ZM15.4861 14.3901H13.1036V12.0077H15.4861V14.3901ZM20.251 19.1551H17.8685V16.7726H20.251V19.1551ZM20.251 12.0077V14.3901H17.8685V12.0077H20.251Z" fill="#1A86FF"/>
</svg>
