<svg width="73" height="57" viewBox="0 0 73 57" fill="none" xmlns="http://www.w3.org/2000/svg">
<path d="M5.7244 8.82838H12.41V56.984H5.7244C5.0211 56.9851 4.3245 56.8473 3.67453 56.5787C3.02456 56.31 2.434 55.9157 1.93669 55.4184C1.43938 54.9211 1.0451 54.3306 0.776443 53.6806C0.507789 53.0306 0.370043 52.334 0.3711 51.6307V14.1817C0.370043 13.4784 0.507789 12.7818 0.776443 12.1318C1.0451 11.4818 1.43938 10.8913 1.93669 10.394C2.434 9.89665 3.02456 9.50237 3.67453 9.23372C4.3245 8.96506 5.0211 8.82732 5.7244 8.82838Z" fill="#1A86FF"/>
<path d="M72.6053 14.1817V51.6307C72.6064 52.334 72.4686 53.0306 72.2 53.6806C71.9313 54.3306 71.537 54.9211 71.0397 55.4184C70.5424 55.9157 69.9519 56.31 69.3019 56.5787C68.6519 56.8473 67.9553 56.9851 67.252 56.984H60.5664V8.82838H67.252C67.9553 8.82732 68.6519 8.96506 69.3019 9.23372C69.9519 9.50237 70.5424 9.89665 71.0397 10.394C71.537 10.8913 71.9313 11.4818 72.2 12.1318C72.4686 12.7818 72.6064 13.4784 72.6053 14.1817Z" fill="#1A86FF"/>
<path d="M48.4635 8.82835V3.95661C48.4635 2.92849 48.0551 1.94248 47.3281 1.21549C46.6011 0.488497 45.6151 0.0800781 44.587 0.0800781H27.9893C26.9612 0.0800781 25.9752 0.488497 25.2482 1.21549C24.5212 1.94248 24.1128 2.92849 24.1128 3.95661V8.84441H17.2266V57H55.7511V8.84441L48.4635 8.82835ZM28.2622 5.1605C28.2622 4.71775 28.4381 4.29313 28.7512 3.98006C29.0643 3.66699 29.4889 3.4911 29.9316 3.4911H43.038C43.4807 3.4911 43.9054 3.66699 44.2184 3.98006C44.5315 4.29313 44.7074 4.71775 44.7074 5.1605V8.82835H28.2622V5.1605Z" fill="#1A86FF"/>
</svg>
