<svg width="348" height="233" viewBox="0 0 348 233" fill="none" xmlns="http://www.w3.org/2000/svg">
<path d="M247.367 103.286L243.405 100.128C242.519 99.4157 242.369 98.1227 243.082 97.2275L274.23 58.2224C274.943 57.3356 276.236 57.1863 277.131 57.8992L281.093 61.057C281.98 61.7698 282.129 63.0628 281.416 63.958L250.268 102.963C249.555 103.85 248.262 103.991 247.367 103.286Z" fill="#EFC53D"/>
<path d="M309.572 83.814L280.308 60.4471L246.587 102.68L275.851 126.046L309.572 83.814Z" fill="#69B0DA"/>
<path d="M249.596 113.589L249.29 109.08L244.822 109.776L248.983 104.571L253.749 108.375L249.596 113.589Z" fill="#D2428F"/>
<path d="M283.411 61.4661L282.718 62.3341L287.492 66.1458L288.185 65.2779L283.411 61.4661Z" fill="#D2428F"/>
<path d="M283.663 93.1909C283.547 93.1909 283.431 93.1744 283.315 93.1495C282.32 92.9174 281.69 91.7322 281.499 89.7181C281.325 87.8864 281.533 85.5573 282.088 83.1703C283.132 78.7194 285.42 74.2685 287.616 74.7741C289.813 75.288 289.887 80.2942 288.843 84.7534C288.288 87.1404 287.442 89.3202 286.464 90.8868C285.519 92.4035 284.558 93.1909 283.663 93.1909ZM287.268 75.5698C286.033 75.5698 284.003 78.6365 282.892 83.3609C282.353 85.6651 282.146 87.8946 282.32 89.6435C282.469 91.1934 282.908 92.2046 283.505 92.3455C284.102 92.4781 284.939 91.7736 285.768 90.4475C286.696 88.9556 287.5 86.8669 288.039 84.5627C289.191 79.6228 288.644 75.8682 287.434 75.5781C287.376 75.5781 287.326 75.5698 287.268 75.5698Z" fill="#090929"/>
<path d="M279.966 88.5908C278.101 88.5908 276.941 88.1101 276.601 87.1901C275.83 85.0766 279.982 82.2668 284.276 80.7003C288.569 79.1338 293.559 78.6199 294.33 80.7334C294.678 81.6949 294.031 82.8719 292.456 84.1317C291.023 85.2838 288.959 86.3778 286.655 87.2233C284.35 88.0604 282.063 88.5494 280.223 88.5908C280.132 88.5908 280.049 88.5908 279.966 88.5908ZM284.558 81.4877C279.792 83.22 276.949 85.7396 277.372 86.9166C277.579 87.4885 278.64 87.8034 280.198 87.7703C281.955 87.7288 284.143 87.2647 286.364 86.4524C288.586 85.6402 290.567 84.5958 291.934 83.4935C293.153 82.5155 293.758 81.5954 293.55 81.0235C293.119 79.8466 289.323 79.7471 284.558 81.4877Z" fill="#090929"/>
<path d="M290.847 91.0775C290.159 91.0775 289.305 90.8372 288.311 90.3482C286.653 89.5442 284.78 88.1517 283.031 86.4278C279.774 83.2202 277.163 78.9434 278.746 77.3354C279.459 76.606 280.801 76.6889 282.617 77.5675C284.274 78.3715 286.147 79.7639 287.896 81.4879C291.154 84.6955 293.764 88.9723 292.181 90.5802C291.858 90.9118 291.411 91.0775 290.847 91.0775ZM280.08 77.6835C279.749 77.6835 279.492 77.7664 279.334 77.9239C278.456 78.8107 279.997 82.2836 283.611 85.8476C285.294 87.5052 287.092 88.8397 288.675 89.6105C290.084 90.2901 291.17 90.4393 291.601 90.0083C292.48 89.1215 290.938 85.6487 287.324 82.0846C285.642 80.427 283.843 79.0925 282.26 78.3217C281.382 77.899 280.627 77.6835 280.08 77.6835Z" fill="#090929"/>
<path d="M277.155 84.0243C276.973 84.7951 277.453 85.5659 278.224 85.7483C278.995 85.9306 279.766 85.4499 279.948 84.6791C280.13 83.9082 279.65 83.1374 278.879 82.9551C278.108 82.781 277.337 83.2535 277.155 84.0243Z" fill="#EFC53D"/>
<path d="M287.648 77.2776C287.466 78.0484 287.946 78.8192 288.717 79.0016C289.488 79.1839 290.259 78.7032 290.441 77.9324C290.624 77.1616 290.143 76.3908 289.372 76.2084C288.601 76.0261 287.83 76.5068 287.648 77.2776Z" fill="#EFC53D"/>
<path d="M287.574 90.1492C287.391 90.9201 287.872 91.6909 288.643 91.8732C289.414 92.0556 290.185 91.5749 290.367 90.804C290.549 90.0332 290.069 89.2624 289.298 89.0801C288.527 88.8977 287.756 89.3784 287.574 90.1492Z" fill="#EFC53D"/>
<path d="M272.804 113.921L259.045 102.938C258.523 102.524 258.44 101.761 258.854 101.239L261.44 98.0068C261.855 97.4847 262.617 97.4018 263.139 97.8162L276.898 108.798C277.42 109.213 277.503 109.975 277.089 110.497L274.503 113.73C274.088 114.252 273.326 114.343 272.804 113.921Z" fill="white"/>
<path d="M278.282 107.754C278.191 107.754 278.1 107.721 278.025 107.663L263.545 96.1003C263.363 95.9594 263.338 95.6942 263.479 95.5201C263.62 95.3378 263.885 95.3129 264.059 95.4538L278.539 107.016C278.721 107.157 278.746 107.422 278.605 107.596C278.531 107.704 278.407 107.754 278.282 107.754Z" fill="#090929"/>
<path d="M279.906 105.723C279.815 105.723 279.724 105.69 279.649 105.632L265.169 94.0697C264.987 93.9288 264.962 93.6636 265.103 93.4895C265.244 93.3155 265.509 93.2823 265.683 93.4232L280.163 104.986C280.346 105.126 280.37 105.392 280.229 105.566C280.155 105.665 280.031 105.723 279.906 105.723Z" fill="#090929"/>
<path d="M145.66 150.48L124.293 158.968C122.03 159.871 119.469 158.761 118.566 156.498L114.513 146.303C113.609 144.04 114.72 141.479 116.983 140.576L138.35 132.088C140.613 131.185 143.174 132.296 144.077 134.558L148.13 144.753C149.034 147.016 147.923 149.577 145.66 150.48Z" fill="#283149"/>
<path d="M124.111 157.26C122.461 157.915 120.605 157.111 119.95 155.462L116.237 146.112C115.582 144.463 116.386 142.606 118.035 141.952L120.77 140.866L130.252 154.823L124.111 157.26Z" fill="#DA445A"/>
<path d="M138.193 133.937C139.843 133.282 141.699 134.086 142.354 135.735L146.067 145.085C146.722 146.734 145.918 148.591 144.269 149.245L141.534 150.331L132.052 136.374L138.193 133.937Z" fill="#3C4A6E"/>
<path d="M149.822 144.306L148.206 144.944L143.995 134.351L145.611 133.713C146.705 133.282 147.94 133.812 148.371 134.907L151.007 141.546C151.455 142.64 150.916 143.875 149.822 144.306Z" fill="#283149"/>
<path d="M139.802 151.085L132.375 154.036L122.877 140.029L130.303 137.07L139.802 151.085Z" fill="#3C4A6E"/>
<path d="M28.6799 144.993C26.5415 141.778 22.1984 140.899 18.9825 143.037C15.7666 145.176 14.888 149.519 17.0264 152.735L28.6799 144.993Z" fill="#E9A82B"/>
<path d="M78.4511 154.061C78.4511 154.061 60.4902 127.041 59.0231 124.828C56.8847 121.612 52.5416 120.733 49.3257 122.872L18.9902 143.038C22.2061 140.899 26.5492 141.778 28.6876 144.994C32.4174 150.613 45.9523 170.978 48.1156 174.227C50.254 177.443 54.5971 178.321 57.813 176.183C62.9601 172.768 88.1485 156.017 88.1485 156.017" fill="#EFC53D"/>
<path d="M57.8125 176.183C61.0284 174.044 61.907 169.701 59.7686 166.485L90.104 146.319C92.2424 149.535 91.3639 153.879 88.148 156.017L57.8125 176.183Z" fill="#E9A82B"/>
<path d="M42.7464 153.92C42.6138 153.92 42.4812 153.854 42.3983 153.738C42.2739 153.547 42.3237 153.29 42.5143 153.166L62.1412 140.12C62.3318 139.996 62.5888 140.045 62.7131 140.236C62.8374 140.426 62.7877 140.683 62.5971 140.808L42.9702 153.854C42.9039 153.895 42.821 153.92 42.7464 153.92Z" fill="#090929"/>
<path d="M46.8567 160.112C46.7241 160.112 46.5915 160.045 46.5086 159.929C46.3843 159.739 46.434 159.482 46.6247 159.357L66.2516 146.311C66.4422 146.187 66.6991 146.237 66.8235 146.428C66.9478 146.618 66.898 146.875 66.7074 146.999L47.0805 160.045C47.0142 160.087 46.9396 160.112 46.8567 160.112Z" fill="#090929"/>
<path d="M50.9759 166.303C50.8433 166.303 50.7107 166.236 50.6278 166.12C50.5034 165.93 50.5532 165.673 50.7438 165.549L70.3707 152.503C70.5613 152.378 70.8183 152.428 70.9426 152.619C71.0669 152.809 71.0172 153.066 70.8265 153.191L51.1997 166.236C51.1334 166.286 51.0505 166.303 50.9759 166.303Z" fill="#090929"/>
<path d="M45.5139 142.283C45.4891 142.283 45.4559 142.283 45.4311 142.275C45.2073 142.225 45.0664 142.01 45.1078 141.786L47.1799 131.923C47.2296 131.699 47.4451 131.55 47.6689 131.599C47.8927 131.649 48.0336 131.865 47.9922 132.088L45.9201 141.952C45.8786 142.142 45.7129 142.283 45.5139 142.283Z" fill="#DA445A"/>
<path d="M51.4816 138.379C51.4567 138.379 51.4236 138.379 51.3987 138.371L41.5355 136.299C41.3118 136.249 41.1709 136.034 41.2123 135.81C41.262 135.586 41.4775 135.437 41.7013 135.487L51.5645 137.559C51.7883 137.608 51.9292 137.824 51.8877 138.048C51.8463 138.247 51.6722 138.379 51.4816 138.379Z" fill="#DA445A"/>
<path d="M119.334 84.4437L79.5977 67.0141L70.768 87.1441L110.504 104.574L119.334 84.4437Z" fill="#3192CC"/>
<path d="M101.327 88.5497C99.8024 92.0225 95.7494 93.6056 92.2765 92.0806C88.8037 90.5555 87.2206 86.5025 88.7457 83.0297C90.2708 79.5568 94.3238 77.9737 97.7966 79.4988C101.269 81.0239 102.853 85.0769 101.327 88.5497Z" fill="#8FD1FA"/>
<path d="M78.3926 75.2715C81.2438 76.523 84.5757 75.2218 85.8273 72.3706L80.6553 70.0995L78.3926 75.2715Z" fill="#8FD1FA"/>
<path d="M114.049 90.9119C111.198 89.6604 109.896 86.3284 111.148 83.4772L116.32 85.7483L114.049 90.9119Z" fill="#8FD1FA"/>
<path d="M76.0308 80.6672C78.882 81.9187 80.1833 85.2507 78.9317 88.1019L73.7598 85.8308L76.0308 80.6672Z" fill="#8FD1FA"/>
<path d="M111.68 96.3076C108.829 95.0561 105.497 96.3574 104.245 99.2086L109.417 101.48L111.68 96.3076Z" fill="#8FD1FA"/>
<path d="M123.423 86.0982L86.4033 63.4662L74.9381 82.2202L111.958 104.852L123.423 86.0982Z" fill="#4EA6DA"/>
<path d="M105.048 87.7458C103.067 90.9783 98.8401 92.006 95.6076 90.0251C92.3751 88.0442 91.3474 83.8171 93.3283 80.5846C95.3092 77.3522 99.5363 76.3244 102.769 78.3053C106.001 80.278 107.021 84.505 105.048 87.7458Z" fill="#8FD1FA"/>
<path d="M84.1133 71.4923C86.7739 73.1168 90.2467 72.2797 91.8712 69.6191L87.0557 66.6768L84.1133 71.4923Z" fill="#8FD1FA"/>
<path d="M117.333 91.7988C114.672 90.1743 113.835 86.7014 115.459 84.0409L120.275 86.9832L117.333 91.7988Z" fill="#8FD1FA"/>
<path d="M81.0381 76.5235C83.6987 78.148 84.5358 81.6209 82.9113 84.2814L78.0957 81.3391L81.0381 76.5235Z" fill="#8FD1FA"/>
<path d="M114.256 96.8297C111.595 95.2052 108.123 96.0423 106.498 98.7029L111.314 101.645L114.256 96.8297Z" fill="#8FD1FA"/>
<path d="M128.417 85.2654L94.6426 58.0297L80.8452 75.1395L114.62 102.375L128.417 85.2654Z" fill="#69B0DA"/>
<path d="M104.626 87.0824C108.421 87.0824 111.497 84.0062 111.497 80.2114C111.497 76.4166 108.421 73.3403 104.626 73.3403C100.831 73.3403 97.7549 76.4166 97.7549 80.2114C97.7549 84.0062 100.831 87.0824 104.626 87.0824Z" fill="#8FD1FA"/>
<path d="M91.3232 65.6983C93.7517 67.6544 97.2992 67.2731 99.2552 64.8446L94.8624 61.3055L91.3232 65.6983Z" fill="#8FD1FA"/>
<path d="M121.634 90.141C119.205 88.185 118.824 84.6293 120.78 82.209L125.173 85.7482L121.634 90.141Z" fill="#8FD1FA"/>
<path d="M87.6261 70.2902C90.0546 72.2462 90.4358 75.8019 88.4798 78.2221L84.0869 74.683L87.6261 70.2902Z" fill="#8FD1FA"/>
<path d="M117.938 94.7246C115.509 92.7686 111.962 93.1498 110.006 95.5783L114.399 99.1175L117.938 94.7246Z" fill="#8FD1FA"/>
<path d="M132.832 102.408H115.426C114.423 102.408 113.603 101.595 113.603 100.584V99.548C113.603 98.5451 114.415 97.7246 115.426 97.7246H132.832C133.834 97.7246 134.655 98.5368 134.655 99.548V100.584C134.655 101.587 133.834 102.408 132.832 102.408Z" fill="#EFC53D"/>
<path d="M134.903 107.082H117.497C116.494 107.082 115.674 106.27 115.674 105.259V104.223C115.674 103.22 116.486 102.399 117.497 102.399H134.903C135.906 102.399 136.726 103.212 136.726 104.223V105.259C136.718 106.27 135.906 107.082 134.903 107.082Z" fill="#E9A82B"/>
<path d="M134.108 97.7247H116.702C115.699 97.7247 114.879 96.9124 114.879 95.9012V94.8652C114.879 93.8623 115.691 93.0417 116.702 93.0417H134.108C135.111 93.0417 135.931 93.854 135.931 94.8652V95.9012C135.931 96.9124 135.119 97.7247 134.108 97.7247Z" fill="#E9A82B"/>
<path d="M131.795 111.757H114.39C113.387 111.757 112.566 110.945 112.566 109.934V108.897C112.566 107.895 113.379 107.074 114.39 107.074H131.795C132.798 107.074 133.619 107.886 133.619 108.897V109.934C133.619 110.945 132.807 111.757 131.795 111.757Z" fill="#EFC53D"/>
<path d="M118.019 105.565C117.447 109.958 113.37 113.522 108.902 113.522C104.443 113.522 101.285 109.958 101.857 105.565C102.429 101.173 106.507 97.6086 110.974 97.6086C115.433 97.6086 118.591 101.173 118.019 105.565Z" fill="#F0A00A"/>
<path d="M112.98 111.341C116.608 108.316 117.394 103.279 114.735 100.09C112.076 96.9017 106.979 96.7693 103.351 99.7945C99.7233 102.82 98.9376 107.857 101.596 111.046C104.255 114.234 109.352 114.367 112.98 111.341Z" fill="#E9A82B"/>
<path d="M112.972 105.565C112.632 108.176 110.212 110.29 107.559 110.29C104.907 110.29 103.034 108.176 103.374 105.565C103.714 102.955 106.134 100.841 108.786 100.841C111.438 100.841 113.312 102.955 112.972 105.565Z" fill="#EFC53D"/>
<path d="M253.263 52.4785C253.611 52.0641 254.05 51.8403 254.581 51.7823C255.111 51.7326 255.899 51.8237 256.935 52.0641C257.979 52.3045 258.675 52.7106 259.04 53.2742C259.396 53.8378 259.463 54.6086 259.239 55.5867L259.106 56.1586C258.974 56.7305 258.858 57.1532 258.758 57.4184C258.659 57.6836 258.468 57.9903 258.186 58.3218C257.639 58.9269 256.645 59.0595 255.202 58.7197C253.752 58.3799 252.857 57.924 252.492 57.3521C252.136 56.7802 252.111 55.8187 252.426 54.476C252.633 53.5643 252.915 52.8929 253.263 52.4785ZM259.04 49.4201C258.559 49.4367 257.938 49.3538 257.167 49.1715C256.404 48.9891 255.807 48.7902 255.376 48.5664C254.954 48.3426 254.68 48.0525 254.581 47.6961C254.473 47.348 254.432 47.0413 254.448 46.801C254.465 46.5523 254.539 46.1793 254.655 45.6738L257.308 34.3021C257.424 33.7965 257.531 33.4235 257.623 33.1832C257.714 32.9428 257.896 32.6859 258.161 32.4206C258.427 32.1554 258.8 32.0062 259.289 31.9814C259.769 31.9565 260.399 32.0311 261.162 32.2134C261.924 32.3875 262.521 32.5947 262.944 32.8351C263.366 33.0754 263.632 33.3738 263.731 33.7385C263.839 34.1032 263.872 34.4181 263.856 34.6751C263.831 34.932 263.764 35.3133 263.648 35.8189L260.996 47.1905C260.88 47.6961 260.772 48.0608 260.681 48.2929C260.59 48.525 260.416 48.7653 260.151 49.0223C259.894 49.2709 259.521 49.4035 259.04 49.4201Z" fill="#DA445A"/>
<path d="M70.8682 126.634C70.7937 126.104 70.918 125.623 71.2329 125.192C71.5479 124.761 72.1447 124.247 73.0232 123.634C73.9018 123.021 74.6726 122.772 75.3274 122.888C75.9905 122.996 76.6038 123.468 77.1757 124.289L77.5155 124.769C77.8471 125.25 78.0874 125.623 78.22 125.872C78.3527 126.12 78.4438 126.469 78.5101 126.908C78.593 127.72 78.0294 128.541 76.8027 129.394C75.5843 130.24 74.6395 130.604 73.9764 130.488C73.3133 130.364 72.5839 129.742 71.7965 128.615C71.2495 127.828 70.9346 127.173 70.8682 126.634ZM72.4679 120.294C72.153 120.658 71.6722 121.065 71.034 121.512C70.3875 121.96 69.8405 122.266 69.3846 122.432C68.9288 122.598 68.5392 122.598 68.1994 122.44C67.8679 122.283 67.6109 122.117 67.4451 121.935C67.2711 121.752 67.039 121.454 66.7489 121.031L60.0851 111.442C59.7867 111.019 59.5878 110.687 59.4717 110.455C59.3557 110.223 59.2894 109.917 59.2645 109.544C59.2396 109.171 59.3806 108.789 59.6955 108.416C60.0022 108.044 60.4746 107.629 61.1211 107.182C61.7676 106.734 62.3146 106.427 62.7788 106.27C63.2347 106.112 63.6408 106.121 63.9806 106.286C64.3204 106.452 64.5774 106.634 64.7597 106.825C64.9338 107.016 65.1741 107.322 65.4642 107.745L72.1281 117.335C72.4265 117.757 72.6254 118.081 72.7331 118.305C72.8409 118.528 72.9072 118.818 72.9155 119.183C72.9321 119.564 72.7829 119.929 72.4679 120.294Z" fill="#DA445A"/>
<path d="M235.98 98.4047C235.872 98.4047 235.773 98.3632 235.69 98.2804C235.524 98.1229 235.524 97.8577 235.69 97.6919L243.34 90.0003L234.712 88.4255C234.571 88.4006 234.455 88.3012 234.405 88.1768C234.356 88.0442 234.372 87.895 234.447 87.779L241.21 78.2142L225.885 79.0265C225.769 79.0347 225.653 78.9933 225.57 78.9104C225.487 78.8275 225.446 78.7115 225.446 78.5955L226.1 64.0576L215.607 74.6005C215.45 74.7579 215.185 74.7662 215.019 74.6005C214.853 74.443 214.853 74.1778 215.019 74.012L226.274 62.7149C226.399 62.5906 226.581 62.5574 226.739 62.632C226.896 62.6983 226.996 62.8558 226.987 63.0299L226.308 78.181L242.031 77.3522C242.188 77.3439 242.337 77.4268 242.412 77.5677C242.487 77.7086 242.478 77.8744 242.387 78.007L235.499 87.7375L244.269 89.3372C244.418 89.3621 244.542 89.4781 244.592 89.619C244.642 89.7682 244.6 89.9257 244.492 90.0334L236.287 98.2804C236.187 98.3632 236.088 98.4047 235.98 98.4047Z" fill="#312D43"/>
<path d="M162.702 108.914C162.636 108.914 162.57 108.898 162.504 108.865L153.635 103.966C153.494 103.892 153.411 103.742 153.42 103.577C153.428 103.419 153.527 103.278 153.676 103.22L164.741 98.6616L154.903 91.1357C154.779 91.0446 154.721 90.8871 154.746 90.7379C154.771 90.5887 154.878 90.4644 155.027 90.4147L165.214 87.0413C165.429 86.9667 165.67 87.091 165.736 87.3065C165.811 87.522 165.686 87.7541 165.471 87.8287L156.03 90.9534L165.819 98.4378C165.935 98.529 166.001 98.6699 165.976 98.8191C165.96 98.9683 165.86 99.0926 165.719 99.1506L154.787 103.651L162.901 108.135C163.1 108.243 163.175 108.5 163.067 108.699C162.984 108.84 162.843 108.914 162.702 108.914Z" fill="#312D43"/>
<path d="M222.104 35.1145C221.01 40.0958 217.951 44.8616 214.114 48.6909C210.367 52.4372 205.452 55.0895 200.778 56.9793C195.266 59.2171 189.663 60.2034 185.395 58.7281C181.59 57.4185 177.918 54.816 174.943 51.5586C172.075 48.4256 169.555 44.6627 167.923 40.9246C165.991 36.5152 165.32 31.9069 165.801 28.4341C166.381 24.2319 169.431 19.292 173.832 15.1809C177.562 11.7081 182.419 8.88177 187.027 6.81796C192.531 4.3646 198.001 3.63522 202.087 5.1437C205.66 6.46156 209.215 8.95636 212.208 12.3463C215.001 15.5125 217.33 19.2671 219.037 22.8891C221.242 27.5804 222.75 32.1555 222.104 35.1145Z" fill="#DA445A"/>
<path d="M200.089 70.9036C202.941 70.9036 205.253 68.5918 205.253 65.74C205.253 62.8881 202.941 60.5763 200.089 60.5763C197.238 60.5763 194.926 62.8881 194.926 65.74C194.926 68.5918 197.238 70.9036 200.089 70.9036Z" fill="#DA445A"/>
<path d="M197.728 77.8077C197.728 79.9793 195.971 81.7364 193.8 81.7364C191.628 81.7364 189.871 79.9793 189.871 77.8077C189.871 75.6362 191.628 73.8791 193.8 73.8791C195.971 73.8791 197.728 75.6362 197.728 77.8077Z" fill="#DA445A"/>
<path d="M211.603 35.2884C213.584 33.0588 214.271 30.1413 213.418 27.2735C212.523 24.2317 210.318 21.4385 207.831 19.5239C205.494 17.717 202.32 16.6229 199.584 18.2558C199.327 18.4049 199.095 18.5873 198.863 18.7696C198.83 18.7613 198.797 18.753 198.764 18.753C197.604 18.6121 196.402 18.6867 195.291 19.0017C194.744 19.0266 194.197 19.068 193.658 19.1177C191.719 19.3084 189.73 19.6731 187.798 20.245C186.646 20.3196 185.536 20.6677 184.5 21.1898C184.765 20.8749 185.038 20.5599 185.337 20.2698C185.71 19.8886 185.129 19.3084 184.748 19.6814C183.919 20.5102 183.207 21.4219 182.602 22.3999C182.552 22.4414 182.502 22.4745 182.452 22.516C180.206 23.8255 178.217 25.5329 176.75 27.7376C173.509 32.6112 173.128 39.2502 176.394 44.2067C177.919 46.5274 180.107 48.4255 182.66 49.5361C185.519 50.7876 188.66 50.9203 191.677 50.1992C191.719 50.1909 191.76 50.1743 191.81 50.166C193.932 50.1992 195.979 49.5112 197.653 48.0856C197.976 47.8121 198.283 47.5137 198.582 47.1988C199.261 46.7678 199.916 46.3036 200.538 45.8229C200.844 45.5908 201.134 45.3422 201.424 45.0852C203.074 44.6791 204.74 44.2315 206.306 43.5933C209.025 42.4827 211.801 40.2283 211.702 36.9958C211.685 36.4736 211.569 35.9763 211.395 35.4956C211.462 35.421 211.536 35.3547 211.603 35.2884ZM211.901 25.6904C213.169 28.2101 213.401 31.1027 211.868 33.5561C211.619 33.9539 211.337 34.3186 211.031 34.6667C210.691 34.0368 210.26 33.4484 209.804 32.9013C208.975 31.9067 208.047 30.9867 207.077 30.1247C207.094 30.1081 207.11 30.0916 207.127 30.075C207.865 29.2461 208.503 28.293 208.95 27.2652C209.738 26.7265 210.442 26.0551 210.699 25.1517C211.047 23.9582 210.235 23.0133 209.323 22.3005C209.307 22.2507 209.298 22.201 209.282 22.1513C209.24 22.027 209.191 21.9026 209.141 21.7866C210.252 22.9635 211.205 24.3063 211.901 25.6904ZM201.043 44.3144C200.911 44.3476 200.786 44.3807 200.654 44.4139C201.458 43.0546 202.071 41.5875 202.51 40.1371C203.066 40.0045 203.621 39.8636 204.16 39.6895C204.002 40.2117 203.795 40.7173 203.546 41.1814C202.908 42.3832 202.038 43.411 201.043 44.3144ZM197.413 46.9253C195.623 47.9779 193.691 48.8399 191.669 49.3455C190.368 49.2957 189.075 48.9559 187.906 48.4172C186.771 47.8867 185.801 47.1739 184.955 46.3534C186.364 46.5191 187.782 46.4197 189.158 46.1047C191.379 46.3948 193.642 46.3699 195.863 46.1213C196.841 46.0135 197.811 45.8561 198.78 45.6737C198.557 45.9721 198.316 46.2622 198.059 46.5357C197.844 46.66 197.628 46.7926 197.413 46.9253ZM175.515 33.3655C175.598 32.0228 176.253 30.8209 177.214 29.8926C176.394 32.1968 176.087 34.675 176.385 37.087C175.813 35.9349 175.44 34.6585 175.515 33.3655ZM177.106 35.1558C177.115 33.0256 177.604 30.8955 178.482 28.9395C179.046 28.5997 179.643 28.3261 180.273 28.1355C179.643 30.8624 179.527 33.7302 179.833 36.4653C180.057 38.5043 180.529 40.5432 181.342 42.433C179.924 41.5129 178.648 40.3774 177.629 39.0347C177.264 37.7749 177.098 36.4405 177.106 35.1558ZM188.785 21.0655C189.73 21.1567 190.658 21.4468 191.545 21.8032C191.437 21.9938 191.313 22.1762 191.221 22.3834C191.064 22.7398 190.956 23.1044 190.89 23.4774C190.666 23.494 190.442 23.5023 190.219 23.5272C188.047 23.8007 186.025 24.8367 185.055 26.7513C183.837 26.7265 182.626 26.7928 181.425 27.0083C181.847 25.6075 182.436 24.2565 183.198 23.005C184.69 22.1762 186.306 21.5297 187.956 21.0406C188.229 21.0324 188.503 21.0324 188.785 21.0655ZM195.316 19.8223C195.722 19.8057 196.128 19.7891 196.534 19.7891C196.385 19.8637 196.236 19.93 196.087 20.0129C195.183 20.5019 194.33 21.0987 193.55 21.77C193.31 21.6457 193.061 21.5214 192.813 21.4053C193.492 20.6179 194.363 20.1123 195.316 19.8223ZM202.137 33.9705C202.46 35.8105 202.311 37.6754 201.839 39.4657C200.969 39.6564 200.082 39.789 199.195 39.8718C199.394 39.6398 199.593 39.3994 199.783 39.1591C201.051 37.5097 201.93 35.4707 201.847 33.4152C201.905 33.4069 201.955 33.3903 202.013 33.3738C202.054 33.5727 202.104 33.7716 202.137 33.9705ZM199.468 44.6791C196.791 45.2427 194.015 45.5577 191.288 45.4333C191.603 45.309 191.909 45.1847 192.216 45.0438C194.462 43.9995 196.65 42.5158 198.424 40.709C199.485 40.6675 200.538 40.5349 201.582 40.336C201.35 41.0405 201.068 41.7367 200.745 42.4081C200.372 43.1706 199.949 43.9414 199.468 44.6791ZM182.643 43.1955C181.275 40.6012 180.645 37.5345 180.521 34.6419C180.43 32.3957 180.621 30.0916 181.176 27.8951C182.328 27.6465 183.538 27.5719 184.723 27.5802C184.682 27.7045 184.632 27.8122 184.607 27.9449C184.301 29.271 184.375 30.622 184.707 31.915C183.82 33.1748 183.132 34.5756 182.776 36.0177C182.411 37.4931 182.477 39.1093 183.356 40.394C184.085 41.4715 185.221 42.2092 186.456 42.5821C189.373 43.4773 192.316 42.1511 194.694 40.4686C195.523 40.6095 196.36 40.6924 197.214 40.709C196.601 41.256 195.962 41.7616 195.324 42.2257C193.492 43.5436 191.429 44.6874 189.224 45.2427C186.936 44.9526 184.723 44.3061 182.643 43.1955ZM190.799 24.3063C190.799 24.5052 190.807 24.7041 190.832 24.903C190.633 25.218 190.442 25.5329 190.26 25.8645C190.036 26.2789 189.837 26.7099 189.655 27.1575C188.528 26.9917 187.401 26.8674 186.265 26.8011C186.166 26.7928 186.058 26.7928 185.958 26.7928C185.983 26.7513 186.008 26.7016 186.033 26.6602C186.63 25.7319 187.583 25.0937 188.619 24.7373C189.323 24.4886 190.061 24.3643 190.799 24.3063ZM193.633 22.8144C193.7 22.8475 193.758 22.8889 193.816 22.9221C193.617 23.121 193.434 23.3282 193.244 23.5437C193.144 23.5354 193.037 23.5272 192.937 23.5189C193.169 23.2702 193.393 23.0381 193.633 22.8144ZM204.367 19.0597C205.312 19.068 206.24 19.3913 207.061 20.1621C207.475 20.5516 207.79 20.9909 208.047 21.4551C207.425 21.0821 206.77 20.7588 206.091 20.4936C205.66 19.872 205.063 19.3913 204.367 19.0597ZM206.232 26.627C206.298 26.1629 206.323 25.6987 206.29 25.2263C206.431 24.8864 206.547 24.5383 206.638 24.1819C206.837 25.0191 206.63 25.8562 206.232 26.627ZM197.023 39.9299C196.543 39.9133 196.054 39.8719 195.573 39.8055C197.62 38.2142 199.468 36.3244 200.985 34.2109C200.952 34.7413 200.853 35.2718 200.679 35.8105C200.165 37.377 199.187 38.7363 198.026 39.9299C197.695 39.9382 197.355 39.9382 197.023 39.9299ZM189.091 37.1533C187.5 35.8437 186.215 34.0949 185.619 32.1139C185.685 32.0228 185.751 31.9316 185.817 31.8487C186.721 30.6717 187.823 29.6191 189.083 28.8234C188.718 30.2242 188.644 31.6912 189.075 33.0671C189.025 33.5395 189.058 34.012 189.439 34.3518C189.555 34.4595 189.696 34.5341 189.837 34.6004C190.227 35.0977 190.716 35.4956 191.337 35.7194C192.846 36.2747 194.628 35.6448 196.103 35.2635C197.504 34.9071 198.938 34.4512 200.289 33.8296C199.618 34.733 198.88 35.5868 198.142 36.3742C197.065 37.518 195.846 38.67 194.512 39.6398C192.539 39.2419 190.666 38.4462 189.091 37.1533ZM193.609 40.2531C192.73 40.8167 191.802 41.2892 190.832 41.6207C188.453 42.4247 185.312 42.118 183.911 39.7475C182.668 37.6257 183.729 34.9734 185.03 32.9593C185.436 34.0202 186.008 35.0314 186.704 35.91C188.536 38.2225 190.956 39.5983 193.609 40.2531ZM191.155 26.1711C191.188 26.254 191.23 26.3203 191.271 26.4032C191.155 26.6187 191.039 26.8259 190.931 27.0414C190.79 27.0912 190.658 27.1243 190.517 27.1823C190.691 26.7928 190.89 26.4115 191.105 26.0385C191.122 26.0717 191.139 26.1214 191.155 26.1711ZM193.617 24.4306C194.28 24.5301 194.943 24.6709 195.581 24.8367C195.54 25.0688 195.49 25.2926 195.465 25.5247C195.424 25.823 195.407 26.1297 195.391 26.4364C195.349 26.511 195.316 26.5856 195.274 26.6602C194.305 26.4944 193.343 26.4944 192.407 26.6519C192.34 26.569 192.282 26.4861 192.224 26.4032C192.606 25.765 193.028 25.16 193.492 24.5798C193.534 24.53 193.575 24.4803 193.617 24.4306ZM194.611 23.3697C194.885 23.5437 195.134 23.7344 195.399 23.925C195.034 23.8338 194.661 23.7592 194.288 23.6929C194.388 23.5852 194.495 23.4774 194.611 23.3697ZM198.78 19.9549C198.814 19.9217 198.855 19.8886 198.888 19.8554C199.236 19.8803 199.584 19.9051 199.933 19.9383C199.642 20.1704 199.369 20.4273 199.104 20.6925C198.805 20.6511 198.507 20.6345 198.2 20.6594C198.374 20.4107 198.573 20.1704 198.78 19.9549ZM206 22.9221C205.991 23.1376 205.975 23.3448 205.933 23.5603C205.892 23.4526 205.85 23.3365 205.809 23.2288C205.643 22.8475 205.428 22.4911 205.187 22.1596C205.494 22.3751 205.768 22.632 206 22.9221ZM199.46 21.5628C199.477 21.5628 199.493 21.5711 199.502 21.5794C199.46 21.6043 199.419 21.6208 199.377 21.6457C199.402 21.6125 199.427 21.5877 199.46 21.5628ZM200.455 21.9689C202.311 23.0381 203.09 25.102 203.041 27.1409C201.615 26.2789 200.123 25.5329 198.573 24.9362C198.233 24.8036 197.894 24.6792 197.545 24.5632C197.537 24.5549 197.529 24.5466 197.521 24.5383C198.316 23.494 199.311 22.5491 200.455 21.9689ZM199.526 32.4455C199.51 32.4372 199.493 32.4289 199.477 32.4289C199.618 32.346 199.758 32.2631 199.891 32.1719C200.131 32.0145 200.364 31.8404 200.604 31.6746C200.629 31.7409 200.654 31.8073 200.679 31.8736C200.306 32.0725 199.924 32.2714 199.526 32.4455ZM196.833 29.8761C197.786 30.2325 198.731 30.622 199.651 31.0613C199.725 31.0945 199.8 31.1359 199.875 31.1773C199.468 31.4591 199.046 31.7244 198.615 31.9813C197.86 31.4757 197.255 30.738 196.833 29.8761ZM196.642 25.8645C196.758 25.6656 196.874 25.4749 197.007 25.276C197.04 25.2843 197.081 25.3009 197.114 25.3092C197.778 25.9059 198.407 26.5441 198.971 27.2321C199.477 27.8537 199.933 28.5168 200.339 29.2047C200.248 29.213 200.156 29.2213 200.065 29.2213C199.029 28.1023 197.662 27.2901 196.203 26.8674C196.294 26.6104 196.393 26.3535 196.501 26.1048C196.551 26.0303 196.592 25.9474 196.642 25.8645ZM202.577 28.9229C202.402 28.956 202.228 28.9975 202.046 29.0224C201.781 29.0638 201.516 29.097 201.242 29.1301C200.612 28.0112 199.858 26.9668 199.004 26.0137C200.372 26.5773 201.706 27.2569 202.966 28.0443C202.933 28.2515 202.908 28.4505 202.858 28.6494C202.767 28.7405 202.668 28.8317 202.577 28.9229ZM196.236 27.7874C196.236 27.7791 196.236 27.7625 196.236 27.7459C197.189 28.0526 198.084 28.5251 198.847 29.1798C198.863 29.1964 198.88 29.213 198.905 29.2296C198.316 29.213 197.728 29.155 197.156 29.0555C196.916 28.9643 196.675 28.8732 196.435 28.7903C196.335 28.467 196.269 28.1272 196.236 27.7874ZM199.684 30.0584C199.717 30.0998 199.75 30.1496 199.783 30.191C199.692 30.1496 199.609 30.1081 199.518 30.0667C199.568 30.0667 199.626 30.0584 199.684 30.0584ZM200.944 30.3816C200.869 30.2573 200.778 30.133 200.695 30.017C200.72 30.017 200.753 30.0087 200.778 30.0087C200.836 30.1247 200.902 30.249 200.96 30.3651C200.952 30.3734 200.952 30.3734 200.944 30.3816ZM201.971 30.5972C202.088 30.4977 202.204 30.3899 202.32 30.2905C202.245 30.4811 202.17 30.6717 202.088 30.8624C202.046 30.7712 202.005 30.6883 201.971 30.5972ZM195.589 32.3543C195.15 31.5337 195.25 30.4645 195.457 29.5031C195.581 29.5445 195.714 29.586 195.838 29.6191C196.219 30.7298 196.858 31.7161 197.786 32.4372C197.529 32.5698 197.272 32.7024 197.007 32.8184C196.816 32.9013 196.617 32.9759 196.418 33.0588C196.087 32.9511 195.797 32.7273 195.589 32.3543ZM203.447 29.586C203.629 29.5445 203.812 29.5114 203.986 29.4616C203.753 29.6854 203.513 29.8926 203.273 30.0998C203.339 29.9341 203.397 29.76 203.447 29.586ZM203.314 24.0493C202.867 23.0547 202.179 22.2093 201.35 21.6125C201.98 21.4219 202.643 21.3556 203.339 21.4385C204.466 22.3336 205.295 23.552 205.453 25.0771C205.038 25.9971 204.441 26.8591 203.861 27.547C203.969 26.3701 203.828 25.1848 203.314 24.0493ZM201.375 20.7671C201.051 20.85 200.753 20.9661 200.455 21.0904C200.33 21.0324 200.214 20.9826 200.09 20.9412C200.397 20.6677 200.728 20.4024 201.076 20.1704C201.433 20.303 201.781 20.4605 202.121 20.6428C201.872 20.6677 201.615 20.7008 201.375 20.7671ZM194.537 28.2101C194.446 28.1852 194.363 28.1604 194.272 28.1355C194.172 28.0858 194.073 28.0443 193.981 27.9946C193.675 27.8205 193.385 27.6133 193.111 27.3895C193.708 27.3398 194.305 27.3564 194.893 27.4393C194.777 27.6713 194.661 27.9366 194.537 28.2101ZM192.141 27.6133C192.083 27.605 192.034 27.5885 191.976 27.5802C192.009 27.5719 192.042 27.5553 192.083 27.5553C192.1 27.5719 192.125 27.5968 192.141 27.6133ZM190.393 28.1106C190.401 28.1106 190.417 28.1106 190.426 28.1189C190.127 28.8151 189.862 29.528 189.655 30.249C189.721 29.5777 189.87 28.9146 190.086 28.2598C190.194 28.2101 190.293 28.1604 190.393 28.1106ZM189.962 32.6278C190.194 31.1359 190.633 29.6688 191.246 28.2847C192.216 28.4753 193.178 28.7157 194.131 28.9892C194.156 28.9975 194.18 29.0141 194.205 29.0224C193.609 30.6552 193.343 32.5035 195.092 33.1085C195.1 33.1085 195.1 33.1085 195.109 33.1085C195.2 33.2246 195.299 33.3157 195.407 33.4069C194.611 33.6556 193.799 33.8379 192.979 33.9208C192.332 33.9871 191.677 33.9954 191.023 33.9539C190.832 33.9374 190.575 33.9457 190.359 33.8959C190.161 33.6058 190.011 33.2909 189.904 32.951C189.928 32.8433 189.953 32.7273 189.962 32.6278ZM196.501 33.9042C196.957 33.9871 197.446 33.9622 197.918 33.8711C196.667 34.2855 195.382 34.6004 194.114 34.8822C193.169 35.0895 192.175 35.1889 191.354 34.7994C193.128 34.874 194.86 34.5258 196.501 33.9042ZM204.906 28.3096C204.889 28.3178 204.872 28.3178 204.856 28.3261C204.74 28.2432 204.615 28.1604 204.499 28.0692C204.806 27.7045 205.088 27.3232 205.361 26.9254C205.254 27.4061 205.096 27.862 204.906 28.3096ZM198.391 21.4634C197.744 22.2259 197.181 23.0464 196.708 23.8587C196.683 23.8421 196.667 23.8255 196.642 23.8007C196.874 23.0298 197.181 22.2756 197.57 21.5877C197.844 21.5214 198.117 21.4799 198.391 21.4634ZM195.962 23.2868C195.73 23.121 195.507 22.9553 195.266 22.7978C195.639 22.5077 196.029 22.2425 196.443 22.027C196.261 22.4414 196.103 22.8641 195.962 23.2868ZM205.552 21.1733C205.627 21.2976 205.685 21.4136 205.743 21.5462C205.171 21.1484 204.508 20.8749 203.812 20.734C203.737 20.676 203.654 20.6345 203.579 20.5765C204.251 20.734 204.906 20.9246 205.552 21.1733ZM197.454 20.2615C197.313 20.4605 197.181 20.6677 197.048 20.8749C196.932 20.908 196.816 20.9412 196.7 20.9909C195.904 21.2976 195.175 21.7617 194.512 22.3171C194.454 22.2756 194.388 22.2425 194.321 22.2093C195.274 21.4136 196.327 20.7506 197.454 20.2615ZM192.614 24.3146C192.324 24.6958 192.042 25.0937 191.793 25.4998C191.768 25.4335 191.744 25.3755 191.727 25.3009C191.71 25.2263 191.702 25.16 191.686 25.0854C191.868 24.8119 192.067 24.5466 192.266 24.298C192.274 24.2897 192.274 24.2897 192.282 24.2814C192.39 24.298 192.506 24.3063 192.614 24.3146ZM185.784 27.605C186.862 27.6465 187.931 27.7625 189 27.9034C188.569 28.1521 188.146 28.4173 187.749 28.724C186.887 29.3788 186.083 30.1662 185.362 31.0364C185.345 30.9536 185.328 30.8707 185.312 30.7878C185.163 29.7352 185.204 28.5996 185.56 27.5885C185.643 27.605 185.718 27.605 185.784 27.605ZM202.974 32.1885C202.966 32.1802 202.966 32.1802 202.958 32.1719C203.414 31.799 203.853 31.4011 204.234 30.9453C204.591 30.5226 204.914 30.0667 205.187 29.5777C205.428 29.76 205.652 29.9589 205.884 30.1496C205.792 30.2407 205.701 30.3319 205.61 30.4148C204.839 31.1276 203.952 31.7658 202.974 32.1885ZM206.464 29.5694C206.19 29.3456 205.908 29.1384 205.627 28.9229C206.232 28.6991 206.828 28.4422 207.4 28.1521C207.475 28.1106 207.558 28.0692 207.632 28.0277C207.293 28.5831 206.895 29.0969 206.464 29.5694ZM206.605 27.6299C207.243 26.6602 207.69 25.5744 207.533 24.3974C207.442 23.6929 207.177 23.0796 206.795 22.5657C206.779 22.2507 206.721 21.9441 206.638 21.6374C206.878 21.7534 207.119 21.8695 207.351 21.9938C207.69 22.1844 208.138 22.4331 208.569 22.7398C208.909 24.0493 208.785 25.4666 208.262 26.7596C207.724 27.1077 207.135 27.3813 206.605 27.6299ZM209.605 23.7012C209.928 24.1488 210.061 24.6544 209.812 25.1931C209.721 25.392 209.597 25.5661 209.456 25.7402C209.597 25.0688 209.655 24.3891 209.605 23.7012ZM204.135 19.8471C203.563 19.6979 202.983 19.5736 202.402 19.4576C202.485 19.4244 202.568 19.3913 202.651 19.3664C203.182 19.4493 203.679 19.6068 204.135 19.8471ZM192.879 22.3916C192.539 22.7315 192.208 23.0796 191.901 23.4526C191.843 23.4526 191.793 23.4526 191.735 23.4526C191.851 22.9801 192.042 22.5325 192.299 22.1181C192.49 22.2093 192.688 22.3005 192.879 22.3916ZM181.483 24.4886C181.085 25.3672 180.762 26.2706 180.505 27.2072C180.024 27.3315 179.551 27.5056 179.096 27.7045C179.75 26.5276 180.554 25.4418 181.483 24.4886ZM182.005 43.8005C182.22 44.1901 182.444 44.5631 182.693 44.9278C181.557 44.4802 180.513 43.8171 179.667 42.8805C179.228 42.3998 178.863 41.8611 178.549 41.2974C179.593 42.2755 180.753 43.1126 182.005 43.8005ZM183.414 44.4968C184.151 44.8283 184.906 45.1101 185.668 45.3505C185.975 45.4416 186.29 45.5245 186.597 45.6074C185.743 45.624 184.881 45.5494 184.044 45.3588C183.82 45.077 183.613 44.7951 183.414 44.4968ZM202.742 39.2502C203.215 37.2444 203.248 35.1723 202.809 33.1748C202.891 33.2577 202.991 33.3406 203.074 33.4318C204.367 34.8988 204.707 36.8797 204.383 38.7529C203.836 38.9353 203.298 39.1093 202.742 39.2502ZM204.516 34.0534C204.267 33.5975 203.952 33.1997 203.604 32.8184C204.698 32.288 205.701 31.5172 206.538 30.6966C207.616 31.6498 208.61 32.6941 209.489 33.8213C209.854 34.2855 210.177 34.7828 210.426 35.3132C209.141 36.5482 207.541 37.4848 205.925 38.1727C205.71 38.2639 205.486 38.3468 205.262 38.438C205.262 38.4048 205.279 38.3799 205.279 38.3468C205.444 36.8715 205.221 35.3547 204.516 34.0534ZM203.248 18.3055C203.24 18.3055 203.24 18.3055 203.231 18.3055C202.95 18.3635 202.668 18.4381 202.394 18.5293C201.955 18.4795 201.516 18.463 201.076 18.4878C201.441 18.3718 201.814 18.2972 202.204 18.264C202.552 18.2475 202.9 18.2557 203.248 18.3055ZM192.042 21.0738C191.429 20.8251 190.807 20.6262 190.177 20.477C191.18 20.2615 192.191 20.1041 193.186 19.988C192.755 20.2947 192.374 20.6594 192.042 21.0738ZM179.112 26.1214C178.631 26.8342 178.209 27.5885 177.844 28.3676C177.512 28.5748 177.206 28.8069 176.916 29.0555C177.247 28.467 177.62 27.9117 178.026 27.373C178.358 26.9337 178.723 26.5193 179.112 26.1214ZM176.286 42.3667C175.25 40.2863 174.835 37.9904 174.96 35.7028C175.333 37.0621 176.045 38.3468 176.907 39.4823C176.949 39.6066 176.974 39.7309 177.023 39.8553C178.035 42.7811 180.14 45.0604 183.132 45.9804C183.273 46.0218 183.422 46.0467 183.571 46.0881C185.055 47.8287 186.994 49.13 189.199 49.7682C189.042 49.7847 188.876 49.8013 188.718 49.8096C183.48 50.0748 178.607 47.0081 176.286 42.3667ZM210.815 37.8246C210.583 39.1922 209.746 40.4106 208.685 41.2892C207.566 42.2092 206.199 42.7894 204.839 43.2452C204.085 43.4939 203.322 43.7259 202.56 43.9332C203.745 42.6236 204.665 41.0985 205.08 39.3745C207.127 38.6452 209.116 37.6174 210.724 36.1586C210.873 36.6891 210.915 37.2444 210.815 37.8246Z" fill="white"/>
<path d="M112.018 41.4217C115.292 45.3338 120.216 48.1436 125.379 49.7681C130.435 51.3512 136.021 51.4341 141.036 50.9451C146.962 50.3732 152.374 48.6575 155.483 45.3753C158.251 42.4495 160.298 38.4462 161.434 34.186C162.528 30.0832 163.025 25.5826 162.743 21.513C162.412 16.7141 160.887 12.3129 158.848 9.45344C156.386 5.99718 151.396 3.02994 145.595 1.42199C140.68 0.062699 135.068 -0.194241 130.029 0.120718C124.012 0.493695 118.831 2.37515 115.906 5.60762C113.353 8.42567 111.347 12.2881 110.269 16.6726C109.258 20.7671 108.935 25.1765 109.093 29.1798C109.291 34.3352 110.071 39.0927 112.018 41.4217Z" fill="#DA445A"/>
<path d="M141.127 60.7669C142.445 63.2949 145.562 64.2729 148.09 62.955C150.618 61.6372 151.596 58.5208 150.278 55.9928C148.96 53.4648 145.843 52.4868 143.315 53.8047C140.788 55.1308 139.81 58.2472 141.127 60.7669Z" fill="#DA445A"/>
<path d="M154.341 73.2467C155.339 71.3197 154.585 68.9492 152.658 67.952C150.731 66.9547 148.36 67.7085 147.363 69.6354C146.366 71.5624 147.12 73.9329 149.047 74.9301C150.974 75.9273 153.344 75.1736 154.341 73.2467Z" fill="#DA445A"/>
<path d="M159.816 79.5567C160.554 80.9657 162.286 81.5127 163.695 80.7751C165.104 80.0374 165.651 78.3051 164.913 76.8961C164.176 75.4871 162.443 74.94 161.034 75.6777C159.625 76.4071 159.087 78.1476 159.816 79.5567Z" fill="#DA445A"/>
<path d="M117.84 32.2464C118.37 28.7818 119.083 25.3504 119.978 21.9605C119.73 21.9936 119.473 22.0268 119.224 22.06C121.163 25.2344 123.294 28.6161 126.766 30.282C127.032 30.4064 127.405 30.2572 127.388 29.9256C127.197 25.0769 127.015 20.2365 126.824 15.3878C126.808 14.8573 125.971 14.8573 125.996 15.3878C126.186 20.2365 126.368 25.0769 126.559 29.9256C126.766 29.8096 126.974 29.6853 127.181 29.5692C123.832 27.9613 121.802 24.7039 119.937 21.6455C119.754 21.3472 119.274 21.3969 119.182 21.745C118.287 25.1349 117.575 28.5663 117.044 32.0309C116.961 32.553 117.765 32.7768 117.84 32.2464Z" fill="white"/>
<path d="M132.972 18.919C130.792 19.7147 129.341 21.8117 129.134 24.091C128.927 26.3786 130.353 29.2049 132.88 29.3707C134.182 29.4619 135.5 28.6662 135.873 27.3981C136.022 26.8842 135.226 26.6687 135.077 27.1743C134.696 28.4673 133.096 28.832 131.985 28.2766C130.866 27.713 130.154 26.4863 129.98 25.268C129.648 22.9969 131.007 20.5104 133.187 19.7147C133.693 19.5324 133.477 18.7367 132.972 18.919Z" fill="white"/>
<path d="M128.241 25.9892C130.081 24.547 131.929 23.0965 133.769 21.6544C133.944 21.5134 133.91 21.2151 133.769 21.0659C133.595 20.8918 133.355 20.925 133.181 21.0659C131.341 22.5081 129.493 23.9585 127.653 25.4007C127.479 25.5416 127.512 25.84 127.653 25.9892C127.827 26.1715 128.067 26.1301 128.241 25.9892Z" fill="white"/>
<path d="M136.173 17.6843C136.712 21.1488 137.433 24.5802 138.336 27.9702C138.419 28.2934 138.941 28.4012 139.09 28.0696C140.035 26.0058 140.972 23.9337 141.917 21.8699C141.668 21.8368 141.411 21.8036 141.163 21.7705C141.71 24.0415 142.63 26.2048 143.898 28.1608C144.072 28.4343 144.594 28.4343 144.652 28.0613C145.365 23.7762 145.555 19.4248 145.191 15.0983C145.149 14.5679 144.32 14.5679 144.362 15.0983C144.718 19.3503 144.553 23.6353 143.856 27.8458C144.105 27.8127 144.362 27.7795 144.611 27.7464C143.384 25.8401 142.489 23.7597 141.958 21.555C141.884 21.2317 141.353 21.124 141.204 21.4555C140.259 23.5193 139.323 25.5914 138.378 27.6552C138.626 27.6884 138.883 27.7215 139.132 27.7547C138.228 24.3647 137.507 20.9333 136.969 17.4688C136.894 16.9383 136.09 17.1621 136.173 17.6843Z" fill="white"/>
<path d="M151.275 13.9131C149.758 14.1535 147.653 14.7668 147.628 16.6732C147.62 17.4854 148.117 18.1402 148.606 18.737C149.219 19.4746 149.899 20.1543 150.521 20.8837C151.648 22.2181 152.775 24.1907 151.955 25.9644C151.408 27.1497 149.584 27.8044 148.639 26.7104C148.291 26.3043 147.703 26.8927 148.051 27.2989C148.739 28.0945 149.874 28.2603 150.844 27.9371C151.955 27.5641 152.734 26.6607 152.966 25.5086C153.596 22.2844 150.744 20.1626 149.004 17.9247C148.424 17.1787 148.225 16.3499 148.971 15.6288C149.626 14.9906 150.62 14.858 151.49 14.7254C152.021 14.6342 151.797 13.8302 151.275 13.9131Z" fill="white"/>
<path d="M147.492 178.271C158.217 169.08 171.495 156.473 184.475 151.707C199.394 146.22 207.491 163.162 194.57 174.55C194.57 174.55 181.657 184.355 163.091 196.655C150.716 204.844 129.929 193.323 147.492 178.271Z" fill="#EFBFDA"/>
<path d="M168.237 157.609C171.636 155.039 177.371 151.74 179.949 150.282C195.838 141.289 209.298 143.502 209.298 143.502C208.925 158.678 210.732 189.278 195.448 177.103C195.448 177.103 189.547 182.747 180.438 190.886L168.237 157.609Z" fill="#733BE7"/>
<path d="M173.609 172.246L166.299 185.971L173.651 176.175L178.665 186.038L173.609 172.246Z" fill="#E9A3CA"/>
<path d="M191.611 158.213C191.611 158.213 181.433 174.285 180.446 190.886L187.342 184.645L191.611 158.213Z" fill="#5B1CDE"/>
<path d="M223.514 143.841C215.565 143.261 202.975 140.957 195.648 151.45C188.106 162.25 186.025 173.414 184.185 182.739C180.629 200.733 180.638 227.861 180.638 227.861L254.877 228.714L255.051 157.111C255.051 157.111 247.119 145.764 237.736 144.629C228.354 143.51 228.81 144.231 223.514 143.841Z" fill="#733BE7"/>
<path d="M222.195 170.422L216.601 184.007C216.112 185.2 217.048 186.485 218.333 186.386L230.426 185.399C231.652 185.3 232.382 183.982 231.818 182.888L225.328 170.29C224.649 168.98 222.751 169.063 222.195 170.422Z" fill="#1A86FF"/>
<path d="M244.822 175.005L254.976 185.971L254.984 180.235L244.822 175.005Z" fill="#5B1CDE"/>
<path d="M312.994 129.436C300.951 142.491 284.731 161.512 284.731 161.512L265.203 152.702C255.564 148.127 239.741 170.53 239.741 170.53C239.741 170.53 274.71 189.328 285.41 189.328C295.53 189.328 306.405 174.857 328.286 147.629C335.862 138.197 345.832 131.964 345.41 128.318C344.979 124.671 337.428 130.423 337.428 130.423C337.428 130.423 349.761 118.736 346.893 116.606C344.034 114.476 333.872 124.289 333.872 124.289C333.872 124.289 342.791 111.989 340.13 110.133C338.34 108.881 332.579 114.434 329.015 119.557C329.015 119.557 335.994 106.071 333.143 105.475C330.292 104.878 321.746 121.14 321.746 121.14C321.746 121.14 324.739 109.279 321.465 108.865C318.199 108.425 312.994 129.436 312.994 129.436Z" fill="#EFBFDA"/>
<path d="M275.615 155.727L261.417 183.336C261.417 183.336 237.041 171.915 232.457 167.48C227.874 163.046 235.267 144.604 239.494 144.977C246.904 145.624 258.988 147.688 275.615 155.727Z" fill="#733BE7"/>
<path d="M334.221 130.796C334.038 130.796 333.873 130.68 333.823 130.497C332.853 127.107 325.128 122.275 325.046 122.226C324.855 122.101 324.789 121.853 324.913 121.654C325.037 121.463 325.286 121.397 325.485 121.521C325.816 121.728 333.566 126.577 334.619 130.265C334.685 130.489 334.552 130.713 334.337 130.779C334.295 130.787 334.254 130.796 334.221 130.796Z" fill="#E692C0"/>
<path d="M323.729 131.085C323.712 131.085 323.695 131.085 323.679 131.085C323.455 131.061 323.289 130.853 323.314 130.63C323.745 127.008 321.399 121.355 321.375 121.297C321.283 121.09 321.383 120.841 321.598 120.758C321.814 120.667 322.054 120.766 322.137 120.982C322.237 121.222 324.591 126.892 324.135 130.729C324.118 130.928 323.936 131.085 323.729 131.085Z" fill="#E692C0"/>
<path d="M211.187 144.629C211.187 144.629 204.93 155.595 218.572 155.702C232.215 155.81 236.21 144.455 236.21 144.455C236.21 144.455 223.172 143.519 217.586 143.353C212 143.187 211.187 144.629 211.187 144.629Z" fill="#5B1CDE"/>
<path d="M182.08 107.737C171.098 113.473 183.489 132.511 185.37 131.716C187.252 130.928 189.838 103.684 182.08 107.737Z" fill="#3449F3"/>
<path d="M212.481 147.397C212.075 145.98 209.986 142.06 209.986 142.06L224.043 125.002L232.415 144.14C232.415 144.14 228.304 150.199 222.452 150.729C219.228 151.019 213.501 150.945 212.481 147.397Z" fill="#EFBFDA"/>
<path d="M222.261 129.975C222.261 129.975 220.944 142.574 211.188 144.629L209.986 142.051L222.261 129.975Z" fill="#E9A3CA"/>
<path d="M183.19 129.362C187.492 140.601 200.09 146.22 211.329 141.919C222.568 137.617 228.188 125.019 223.886 113.78C219.585 102.541 206.986 96.921 195.747 101.223C184.508 105.524 178.889 118.123 183.19 129.362Z" fill="#EFBFDA"/>
<path d="M225.543 128.417C230.035 126.179 235.348 100.021 221.772 89.1799C221.772 89.1799 224.59 84.2815 219.119 82.1182C213.649 79.955 213.069 86.7929 213.069 86.7929C213.069 86.7929 211.046 77.858 205.419 78.9438C199.791 80.0296 203.894 87.2985 203.894 87.2985C203.894 87.2985 173.251 85.3756 173.21 102.441C173.169 119.507 196.534 109.23 196.534 109.23C202.186 106.461 207.781 104.348 207.781 104.348C207.781 104.348 225.949 108.973 224.457 118.612C222.973 128.251 225.543 128.417 225.543 128.417Z" fill="#3449F3"/>
<path d="M218.574 112.172C218.574 112.172 220.265 103.734 226.017 103.378C231.769 103.022 237.472 114.095 228.106 117.684C223.083 119.607 221.135 117.642 221.135 117.642" fill="#EFBFDA"/>
<path d="M222.676 113.407C222.584 113.407 222.493 113.382 222.419 113.316C222.236 113.175 222.203 112.918 222.344 112.736L226.414 107.506C226.555 107.323 226.812 107.29 226.994 107.431C227.176 107.572 227.209 107.829 227.068 108.011L222.999 113.241C222.924 113.349 222.8 113.407 222.676 113.407Z" fill="#E692C0"/>
<path d="M204.061 117.476C204.401 118.363 205.395 118.811 206.282 118.471C207.169 118.131 207.617 117.136 207.277 116.249C206.937 115.363 205.943 114.915 205.056 115.255C204.161 115.595 203.721 116.589 204.061 117.476Z" fill="#090929"/>
<path d="M199.594 127.281C198.732 127.281 197.928 126.759 197.605 125.914C197.397 125.383 197.414 124.803 197.646 124.281C197.878 123.759 198.301 123.361 198.831 123.162C199.047 123.079 199.279 123.187 199.362 123.394C199.445 123.601 199.337 123.842 199.13 123.924C198.798 124.049 198.541 124.297 198.4 124.612C198.259 124.936 198.251 125.292 198.376 125.615C198.632 126.295 199.395 126.626 200.075 126.37C200.29 126.287 200.522 126.394 200.605 126.602C200.688 126.809 200.58 127.049 200.373 127.132C200.1 127.232 199.843 127.281 199.594 127.281Z" fill="#E692C0"/>
<path d="M188.503 123.435C188.843 124.322 189.838 124.77 190.725 124.43C191.612 124.09 192.059 123.096 191.719 122.209C191.379 121.322 190.385 120.874 189.498 121.214C188.611 121.554 188.164 122.549 188.503 123.435Z" fill="#090929"/>
<path d="M190.618 108.11C191.339 109.345 192.549 112.279 192.474 113.34C192.416 114.211 188.272 120.584 183.78 121.314C179.288 122.043 177.597 120.974 177.597 120.974C177.29 120.717 184.244 116.291 190.618 108.11Z" fill="#161FDE"/>
<path d="M196.078 107.265C196.484 108.632 197.794 111.525 198.614 112.196C199.286 112.743 206.77 114.094 210.376 111.326C213.981 108.558 214.362 106.593 214.362 106.593C214.387 106.196 206.397 108.234 196.078 107.265Z" fill="#161FDE"/>
<path d="M198.748 136.465C198.665 136.465 198.582 136.44 198.516 136.39C198.334 136.257 198.284 136.009 198.417 135.818C198.558 135.611 201.948 130.845 208.106 131.608C208.33 131.633 208.487 131.84 208.462 132.064C208.437 132.287 208.238 132.453 208.006 132.42C202.362 131.724 199.121 136.241 199.088 136.291C199.005 136.398 198.881 136.465 198.748 136.465Z" fill="#E675B3"/>
<path d="M170.608 132.329C164.268 119.44 166.008 109.668 170.053 106.345C172.059 104.695 174.603 105.864 172.788 108.475C171.23 110.713 170.542 115.454 170.749 115.777C171.354 113.257 172.407 109.876 173.924 108.351C176.501 105.756 179.982 104.563 181.88 106.204C182.635 106.85 181.947 107.837 181.947 107.837C181.947 107.837 184.831 106.668 185.627 108.574C186.696 111.152 183.273 112.926 183.273 112.926C183.273 112.926 185.867 111.078 186.845 113.481C187.541 115.189 185.096 116.904 183.008 119.001C180.43 121.595 183.323 128.964 184.5 129.992C185.685 131.019 189.912 135.868 188.445 141.28C185.652 151.583 163.364 191.268 163.364 191.268C153.012 203.253 132.647 197.923 144.152 176.05L170.608 132.329Z" fill="#EFBFDA"/>
<path d="M174.032 118.355C173.808 118.355 173.626 118.172 173.617 117.948C173.559 115.362 174.662 112.379 175.731 110.895C176.734 109.494 181.284 107.654 181.798 107.447C182.014 107.364 182.254 107.464 182.337 107.679C182.42 107.895 182.32 108.135 182.105 108.218C180.77 108.748 177.132 110.356 176.402 111.376C175.557 112.561 174.388 115.371 174.446 117.932C174.455 118.164 174.272 118.346 174.04 118.355H174.032Z" fill="#E692C0"/>
<path d="M177.81 122.358C177.586 122.358 177.404 122.176 177.396 121.952C177.338 119.366 178.44 116.382 179.509 114.898C180.537 113.464 183.032 112.569 183.14 112.536C183.355 112.462 183.595 112.569 183.67 112.785C183.745 113 183.637 113.241 183.421 113.315C183.397 113.324 181.067 114.161 180.189 115.387C179.344 116.564 178.175 119.382 178.233 121.935C178.241 122.167 178.059 122.35 177.827 122.358C177.818 122.358 177.81 122.358 177.81 122.358Z" fill="#E692C0"/>
<path d="M188.444 141.695C188.411 141.695 188.369 141.686 188.336 141.678C188.112 141.62 187.988 141.388 188.046 141.173C189.397 136.191 185.651 131.541 184.233 130.306C183.255 129.453 181.672 125.64 181.565 122.549C181.507 120.833 181.888 119.54 182.717 118.703C183.131 118.288 183.562 117.882 183.977 117.493C185.551 116.017 186.911 114.733 186.463 113.63C186.256 113.116 185.966 112.818 185.576 112.702C185.054 112.553 184.416 112.768 183.968 112.984C183.794 113.1 183.62 113.199 183.463 113.282C183.272 113.382 183.032 113.315 182.916 113.133C182.8 112.951 182.849 112.702 183.032 112.578C183.048 112.561 183.231 112.437 183.504 112.296C184.316 111.765 185.949 110.431 185.245 108.724C184.623 107.215 182.128 108.201 182.103 108.21C181.938 108.276 181.739 108.226 181.623 108.085C181.507 107.944 181.498 107.737 181.606 107.588C181.656 107.522 182.054 106.892 181.606 106.511C179.99 105.11 176.807 106.03 174.213 108.641C174.055 108.806 173.79 108.806 173.624 108.641C173.459 108.483 173.459 108.218 173.624 108.052C176.525 105.126 180.189 104.198 182.145 105.881C182.592 106.27 182.684 106.751 182.626 107.182C183.819 106.917 185.41 106.975 185.999 108.409C186.554 109.743 186.057 110.928 185.294 111.823C185.46 111.832 185.634 111.857 185.8 111.906C186.438 112.089 186.919 112.569 187.226 113.315C187.889 114.948 186.264 116.473 184.532 118.098C184.126 118.479 183.703 118.877 183.289 119.291C182.634 119.954 182.319 121.04 182.377 122.524C182.485 125.499 184.026 129.038 184.764 129.685C186.281 131.011 190.292 136.009 188.834 141.396C188.792 141.579 188.626 141.695 188.444 141.695Z" fill="#E692C0"/>
<path d="M81.3673 226.087H134.371C139.32 226.087 143.381 221.71 143.049 216.737L141.209 188.905C140.928 184.686 137.554 181.503 133.36 181.503H80.3561C75.4079 181.503 71.3466 185.88 71.6781 190.853L73.5182 218.685C73.7917 222.904 77.165 226.087 81.3673 226.087Z" fill="#161FDE"/>
<path d="M78.5919 226.087H131.596C136.544 226.087 140.606 221.71 140.274 216.737L138.434 188.905C138.152 184.686 134.779 181.503 130.585 181.503H77.5807C72.6325 181.503 68.5712 185.88 68.9027 190.853L70.7428 218.685C71.0246 222.904 74.3979 226.087 78.5919 226.087Z" fill="#3449F3"/>
<path d="M109.218 207.637L105.372 200.765C104.543 199.282 102.314 199.597 101.758 201.271L99.4873 208.142C99.0646 209.419 99.9514 210.695 101.261 210.695H107.378C108.936 210.695 109.972 208.971 109.218 207.637Z" fill="white"/>
<path d="M74.4384 187.305C74.397 188.159 75.0435 188.847 75.8889 188.847C76.7343 188.847 77.4471 188.159 77.4885 187.305C77.53 186.451 76.8835 185.763 76.0381 185.763C75.2009 185.763 74.4799 186.451 74.4384 187.305Z" fill="#69B0DA"/>
<path d="M326.256 226.086H3.17445C1.4256 226.086 0 227.504 0 229.261C0 231.01 1.41732 232.435 3.17445 232.435H326.256C328.004 232.435 329.43 231.018 329.43 229.261C329.43 227.512 328.004 226.086 326.256 226.086Z" fill="#1A86FF"/>
<path d="M214.34 213.223H253.03C250.991 213.223 249.342 214.873 249.342 216.912V222.423C249.342 224.462 250.991 226.112 253.03 226.112H214.34C212.301 226.112 210.651 224.462 210.651 222.423V216.912C210.651 214.873 212.301 213.223 214.34 213.223Z" fill="#EFC53D"/>
<path d="M289.248 224.57C288.95 223.915 288.784 223.186 288.784 222.415V216.903C288.784 216.133 288.95 215.412 289.248 214.748H253.045C251.859 214.748 250.89 215.71 250.89 216.903V222.415C250.89 223.6 251.851 224.57 253.045 224.57H289.248Z" fill="white"/>
<path d="M288.784 217.989H257.744C257.512 217.989 257.33 217.807 257.33 217.575C257.33 217.343 257.512 217.16 257.744 217.16H288.784C289.017 217.16 289.199 217.343 289.199 217.575C289.199 217.807 289.008 217.989 288.784 217.989Z" fill="black"/>
<path d="M267.242 221.056H253.848C253.616 221.056 253.434 220.873 253.434 220.641C253.434 220.409 253.616 220.227 253.848 220.227H267.242C267.474 220.227 267.656 220.409 267.656 220.641C267.656 220.865 267.474 221.056 267.242 221.056Z" fill="black"/>
<path d="M212.548 223.021H216.485V216.25H212.548V223.021Z" fill="#DA445A"/>
<path d="M289.25 224.985C289.092 224.985 288.943 224.893 288.868 224.744C288.537 224.015 288.371 223.228 288.371 222.424V216.912C288.371 216.108 288.537 215.32 288.868 214.591C288.96 214.384 289.208 214.293 289.415 214.384C289.623 214.475 289.714 214.724 289.623 214.931C289.341 215.552 289.2 216.224 289.2 216.912V222.424C289.2 223.111 289.341 223.783 289.623 224.404C289.714 224.612 289.623 224.86 289.415 224.952C289.366 224.976 289.308 224.985 289.25 224.985Z" fill="black"/>
<path d="M291.231 214.757H253.021C251.836 214.757 250.866 215.718 250.866 216.912V222.423C250.866 223.609 251.828 224.578 253.021 224.578H291.231V226.112H253.021C250.982 226.112 249.333 224.462 249.333 222.423V216.912C249.333 214.873 250.982 213.223 253.021 213.223H291.231V214.757Z" fill="#E9A82B"/>
<path d="M287.542 200.318H248.852C250.891 200.318 252.54 201.967 252.54 204.006V209.518C252.54 211.557 250.891 213.206 248.852 213.206H287.542C289.581 213.206 291.23 211.557 291.23 209.518V204.006C291.23 201.967 289.581 200.318 287.542 200.318Z" fill="#1A86FF"/>
<path d="M212.64 211.673C212.938 211.018 213.104 210.289 213.104 209.518V204.006C213.104 203.236 212.938 202.515 212.64 201.851H248.843C250.029 201.851 250.998 202.813 250.998 204.006V209.518C250.998 210.703 250.037 211.673 248.843 211.673H212.64Z" fill="white"/>
<path d="M244.136 205.092H213.096C212.864 205.092 212.682 204.91 212.682 204.678C212.682 204.446 212.864 204.263 213.096 204.263H244.136C244.368 204.263 244.55 204.446 244.55 204.678C244.55 204.91 244.368 205.092 244.136 205.092Z" fill="black"/>
<path d="M248.031 208.151H234.637C234.405 208.151 234.223 207.968 234.223 207.736C234.223 207.504 234.405 207.322 234.637 207.322H248.031C248.263 207.322 248.446 207.504 248.446 207.736C248.446 207.968 248.263 208.151 248.031 208.151Z" fill="black"/>
<path d="M289.332 203.343H285.395V210.115H289.332V203.343Z" fill="#EFC53D"/>
<path d="M212.64 212.087C212.582 212.087 212.524 212.079 212.466 212.054C212.259 211.963 212.168 211.715 212.259 211.507C212.541 210.886 212.682 210.214 212.682 209.526V204.015C212.682 203.327 212.541 202.655 212.259 202.034C212.168 201.826 212.259 201.578 212.466 201.487C212.673 201.387 212.922 201.487 213.013 201.694C213.345 202.423 213.51 203.211 213.51 204.015V209.526C213.51 210.339 213.345 211.118 213.013 211.847C212.947 211.996 212.798 212.087 212.64 212.087Z" fill="black"/>
<path d="M210.651 201.851H248.861C250.046 201.851 251.016 202.813 251.016 204.006V209.518C251.016 210.703 250.054 211.673 248.861 211.673H210.651V213.207H248.861C250.9 213.207 252.549 211.557 252.549 209.518V204.006C252.549 201.967 250.9 200.318 248.861 200.318H210.651V201.851Z" fill="#BB4765"/>
</svg>
