<svg width="21" height="21" viewBox="0 0 21 21" fill="none" xmlns="http://www.w3.org/2000/svg">
<path d="M20.3099 10.7332C20.3107 10.0366 20.2514 9.34128 20.1326 8.65479H10.4258V12.5916H15.9854C15.8716 13.2203 15.6308 13.8197 15.2775 14.3535C14.9242 14.8874 14.4657 15.3447 13.9297 15.6978V18.2533H17.2477C19.1905 16.4744 20.3099 13.8437 20.3099 10.7332Z" fill="#4285F4"/>
<path d="M10.425 20.7222C13.2026 20.7222 15.5414 19.8164 17.2469 18.2548L13.9289 15.6993C13.0054 16.3212 11.816 16.6761 10.425 16.6761C7.74023 16.6761 5.46149 14.8788 4.64663 12.4568H1.22852V15.0903C2.08521 16.7832 3.39886 18.2064 5.02281 19.2009C6.64676 20.1954 8.51708 20.7221 10.425 20.7222Z" fill="#34A853"/>
<path d="M4.64694 12.4566C4.21616 11.1874 4.21616 9.81304 4.64694 8.54391V5.9104H1.22883C0.508144 7.33456 0.132812 8.90635 0.132812 10.5002C0.132812 12.0941 0.508144 13.6659 1.22883 15.0901L4.64694 12.4566Z" fill="#FBBC04"/>
<path d="M10.425 4.3246C11.8928 4.30078 13.3112 4.85155 14.3735 5.85785L17.3112 2.94041C15.4484 1.20282 12.9805 0.248861 10.425 0.278503C8.51708 0.278589 6.64676 0.805282 5.02281 1.79978C3.39886 2.79428 2.08521 4.21744 1.22852 5.91038L4.64663 8.54389C5.46149 6.12191 7.74023 4.3246 10.425 4.3246Z" fill="#EA4335"/>
</svg>
