<svg width="21" height="22" viewBox="0 0 21 22" fill="none" xmlns="http://www.w3.org/2000/svg">
<path d="M20.8663 11.1334C20.8663 5.4872 16.2903 0.911133 10.6441 0.911133C4.99794 0.911133 0.421875 5.4872 0.421875 11.1334C0.421875 16.2365 4.15938 20.4651 9.04688 21.2318V14.0882H6.45137V11.1334H9.04688V8.88127C9.04688 6.31971 10.5722 4.90419 12.9081 4.90419C14.0262 4.90419 15.1962 5.10384 15.1962 5.10384V7.61947H13.9064C12.6366 7.61947 12.2413 8.40811 12.2413 9.21669V11.1334H15.0764L14.6232 14.0882H12.2413V21.2318C17.1288 20.4651 20.8663 16.2365 20.8663 11.1334Z" fill="#1877F2"/>
<path d="M14.623 14.0881L15.0762 11.1332H12.2411V9.21655C12.2411 8.40798 12.6364 7.61933 13.9062 7.61933H15.196V5.10371C15.196 5.10371 14.026 4.90405 12.908 4.90405C10.572 4.90405 9.04668 6.31957 9.04668 8.88114V11.1332H6.45117V14.0881H9.04668V21.2317C9.56776 21.3135 10.1008 21.3554 10.6439 21.3554C11.187 21.3554 11.72 21.3135 12.2411 21.2317V14.0881H14.623Z" fill="white"/>
</svg>
