<svg width="7" height="7" viewBox="0 0 7 7" fill="none" xmlns="http://www.w3.org/2000/svg">
<path fill-rule="evenodd" clip-rule="evenodd" d="M0.877707 0.299338C0.626702 0.550344 0.626702 0.957305 0.877707 1.20831L2.84715 3.17775L0.877707 5.14719C0.626702 5.3982 0.626702 5.80516 0.877707 6.05616C1.12871 6.30717 1.53567 6.30717 1.78668 6.05616L3.75612 4.08672L5.72556 6.05616C5.97657 6.30717 6.38353 6.30717 6.63453 6.05616C6.88554 5.80516 6.88554 5.3982 6.63453 5.14719L4.66509 3.17775L6.63453 1.20831C6.88554 0.957305 6.88554 0.550344 6.63453 0.299338C6.38353 0.0483325 5.97657 0.0483325 5.72556 0.299338L3.75612 2.26878L1.78668 0.299338C1.53567 0.0483325 1.12871 0.0483325 0.877707 0.299338Z" fill="white"/>
</svg>
