<svg width="7" height="28" viewBox="0 0 7 28" fill="none" xmlns="http://www.w3.org/2000/svg">
<path d="M3.48933 0.284479C3.82258 0.282346 4.15299 0.341826 4.46153 0.459513C4.77006 0.577199 5.05063 0.750768 5.28708 0.970203C5.52353 1.18964 5.71118 1.4506 5.83924 1.73809C5.96729 2.02558 6.03322 2.33389 6.03321 2.64528V24.9275C6.0622 25.2551 6.01817 25.5847 5.90392 25.8955C5.78967 26.2063 5.60767 26.4916 5.36942 26.7334C5.13118 26.9752 4.84187 27.1682 4.51975 27.3002C4.19763 27.4322 3.84971 27.5004 3.49798 27.5004C3.14624 27.5004 2.79833 27.4322 2.47622 27.3002C2.1541 27.1682 1.86478 26.9752 1.62653 26.7334C1.38828 26.4916 1.20629 26.2063 1.09204 25.8955C0.977787 25.5847 0.933769 25.2551 0.962755 24.9275V2.64528C0.962755 2.01915 1.22894 1.41867 1.70276 0.975927C2.17659 0.533188 2.81924 0.284479 3.48933 0.284479Z" fill="white"/>
</svg>
