<svg width="22" height="15" viewBox="0 0 22 15" fill="none" xmlns="http://www.w3.org/2000/svg">
<path d="M16.9392 6.91383L17.1111 9.99976C17.1366 10.449 16.8756 10.8656 16.3281 11.2498C15.7807 11.6339 15.0327 11.9382 14.0842 12.1629C13.1357 12.3875 12.1076 12.4998 11 12.4998C9.89236 12.4998 8.8643 12.3875 7.9158 12.1629C6.9673 11.9382 6.21932 11.6339 5.67188 11.2498C5.12442 10.8656 4.86342 10.449 4.88889 9.99976L5.06076 6.91383L10.5417 8.68141C10.6817 8.72698 10.8345 8.74976 11 8.74976C11.1655 8.74976 11.3183 8.72698 11.4583 8.68141L16.9392 6.91383ZM22 3.74977C22 3.89951 21.93 4.00042 21.7899 4.0525L11.0955 7.49001C11.07 7.49652 11.0382 7.49978 11 7.49978C10.9618 7.49978 10.93 7.49652 10.9045 7.49001L4.67883 5.4783C4.4051 5.69965 4.17911 6.0626 4.00087 6.56716C3.82263 7.07172 3.71441 7.65277 3.67621 8.31032C4.07725 8.54469 4.27777 8.89951 4.27777 9.37477C4.27777 9.824 4.09317 10.1723 3.72397 10.4197L4.27776 14.6482C4.29049 14.7393 4.26503 14.8207 4.20137 14.8923C4.14408 14.9639 4.0677 14.9998 3.97222 14.9998H2.13889C2.04341 14.9998 1.96702 14.9639 1.90973 14.8923C1.84607 14.8207 1.8206 14.7393 1.83333 14.6482L2.38715 10.4197C2.01794 10.1723 1.83334 9.82398 1.83334 9.37476C1.83334 8.8995 2.04023 8.53817 2.45399 8.29078C2.52401 6.94313 2.83593 5.86891 3.38976 5.06813L0.210068 4.0525C0.0700227 4.00043 0 3.89952 0 3.74977C0 3.60002 0.0700227 3.49911 0.210068 3.44704L10.9045 0.00952407C10.93 0.0030118 10.9618 -0.000244141 11 -0.000244141C11.0382 -0.000244141 11.07 0.0030118 11.0955 0.00952407L21.7899 3.44702C21.93 3.4991 22 3.60002 22 3.74977Z" fill="white"/>
</svg>
