<svg width="17" height="16" viewBox="0 0 17 16" fill="none" xmlns="http://www.w3.org/2000/svg">
<path d="M13.2509 10.1983C13.2335 10.2132 13.2259 10.2366 13.2312 10.2589L14.1908 14.5308C14.2978 15.0062 14.1146 15.4798 13.7139 15.7661C13.3132 16.0523 12.7984 16.0769 12.3704 15.8301L8.53112 13.6138C8.51076 13.6018 8.48575 13.6024 8.46656 13.6138L4.62731 15.8306C4.43131 15.9438 4.21669 15.9998 4.00382 15.9998C3.75198 15.9998 3.50131 15.9215 3.28436 15.7666C2.88363 15.4804 2.70042 15.0068 2.80744 14.5314L3.7671 10.26C3.77234 10.2372 3.76478 10.2143 3.74733 10.1994L0.415253 7.29643C0.0441828 6.97362 -0.0913337 6.48454 0.0622128 6.02175C0.215759 5.55839 0.617074 5.24129 1.11087 5.19444L5.54278 4.77107C5.56604 4.76879 5.58582 4.75451 5.59512 4.73337L7.37487 0.723652C7.57261 0.276859 8.00417 -0.000244141 8.49971 -0.000244141C8.99524 -0.000244141 9.4268 0.276859 9.62513 0.723652L11.4043 4.73337C11.4136 4.75451 11.434 4.76879 11.4572 4.77107L15.8891 5.19444C16.3829 5.24129 16.7842 5.55839 16.9378 6.02175C17.0913 6.48512 16.9558 6.97362 16.5847 7.29643L13.2527 10.1977L13.2509 10.1983Z" fill="white"/>
</svg>
