<svg width="3" height="6" viewBox="0 0 3 6" fill="none" xmlns="http://www.w3.org/2000/svg">
<path d="M2.82555 3.8422C2.8543 4.04073 2.8543 4.24196 2.82555 4.44049C2.75426 4.66954 2.60169 4.86914 2.39292 5.00644C2.16635 5.14244 1.90057 5.21016 1.63148 5.20048C1.35189 5.21006 1.07717 5.13023 0.85275 4.97412C0.646047 4.82108 0.494955 4.61209 0.420117 4.37579C0.397393 4.22562 0.397393 4.07321 0.420117 3.92303H0.627785C0.634742 4.03613 0.634742 4.14954 0.627785 4.26264C0.672194 4.44724 0.781942 4.61242 0.939282 4.73153C1.10214 4.85032 1.30378 4.91315 1.51035 4.90943C1.69872 4.91508 1.8849 4.87016 2.04682 4.78004C2.19197 4.67778 2.30057 4.53685 2.35832 4.37579C2.38601 4.19886 2.38601 4.01913 2.35832 3.8422C2.36125 3.62145 2.32017 3.40212 2.23718 3.19541C2.17715 3.0425 2.06505 2.91221 1.91812 2.82457C1.77119 2.73694 1.59754 2.69678 1.42383 2.71029C1.36131 2.6959 1.29599 2.6959 1.23347 2.71029C1.23347 2.71029 1.23346 2.71029 1.12963 2.71029V2.61327C1.4926 2.09774 1.88544 1.60115 2.30639 1.12566H0.350894C0.324442 1.05777 0.324442 0.983332 0.350894 0.915441C1.15645 0.849562 1.96511 0.822546 2.77364 0.834562C2.82981 0.904536 2.86016 0.989684 2.86016 1.07715C2.86766 1.10911 2.86766 1.14221 2.86016 1.17417L1.75262 2.48393C1.98189 2.50119 2.20248 2.57362 2.39292 2.69415C2.56884 2.79545 2.70299 2.94927 2.77364 3.13072C2.8417 3.36225 2.85935 3.60419 2.82555 3.8422Z" fill="white"/>
</svg>
