<svg width="6" height="19" viewBox="0 0 6 19" fill="none" xmlns="http://www.w3.org/2000/svg">
<path d="M3.35654 0.757478C3.01897 0.748833 2.68296 0.803485 2.36839 0.91825C2.05382 1.03302 1.76706 1.20555 1.52507 1.42563C1.28307 1.64572 1.09074 1.90891 0.959466 2.19964C0.828187 2.49037 0.760616 2.80274 0.760742 3.11828V16.604C0.813351 17.1985 1.10325 17.7528 1.57289 18.1568C2.04253 18.5609 2.65758 18.7852 3.29597 18.7852C3.93436 18.7852 4.54942 18.5609 5.01906 18.1568C5.4887 17.7528 5.77859 17.1985 5.8312 16.604V3.11828C5.83134 2.50047 5.57228 1.90722 5.10963 1.46585C4.64697 1.02448 4.01759 0.770173 3.35654 0.757478Z" fill="white"/>
</svg>
