<svg width="3" height="6" viewBox="0 0 3 6" fill="none" xmlns="http://www.w3.org/2000/svg">
<path d="M2.52696 3.8259C2.54836 3.99239 2.54836 4.16067 2.52696 4.32716C2.46333 4.58156 2.31117 4.80908 2.09433 4.974C1.86112 5.12591 1.58253 5.20511 1.29829 5.20036C1.01793 5.2155 0.741222 5.13509 0.519547 4.974C0.304248 4.82857 0.150987 4.61658 0.0869141 4.37567V4.14932V4.06844H0.294576C0.294576 4.06844 0.294581 4.06844 0.381108 4.06844C0.467634 4.06844 0.381108 4.16549 0.381108 4.19782C0.425517 4.38243 0.535258 4.54766 0.692597 4.66677C0.853269 4.78932 1.05644 4.85258 1.26368 4.84461C1.4788 4.85056 1.68858 4.78139 1.85206 4.65058C2.0148 4.52455 2.12001 4.3453 2.14624 4.14932C2.16824 4.02077 2.16824 3.8898 2.14624 3.76125C2.16339 3.61616 2.16339 3.46972 2.14624 3.32463C2.12284 3.14059 2.0235 2.97234 1.86936 2.85569C1.69338 2.73672 1.48085 2.67433 1.26368 2.67784C1.07007 2.67424 0.878926 2.71887 0.709906 2.80718C0.557487 2.88426 0.440532 3.0108 0.381108 3.16292H0.156137C0.156137 3.08207 0.156137 0.753612 0.156137 0.753612C0.909622 0.687529 1.66645 0.660558 2.42313 0.672781C2.44528 0.746822 2.44528 0.825095 2.42313 0.899135C1.77172 0.930298 1.11904 0.930298 0.467633 0.899135V2.59701C0.598389 2.49685 0.744148 2.41509 0.900266 2.35442C1.06404 2.28818 1.24098 2.25512 1.41942 2.25741C1.69564 2.25331 1.96684 2.32653 2.19816 2.46763C2.30766 2.53908 2.40079 2.63022 2.47211 2.73573C2.54343 2.84124 2.59149 2.959 2.61349 3.08209C2.61921 3.33249 2.59012 3.5825 2.52696 3.8259Z" fill="white"/>
</svg>
