<svg width="3" height="6" viewBox="0 0 3 6" fill="none" xmlns="http://www.w3.org/2000/svg">
<path d="M2.32041 2.83963C2.54472 2.94744 2.72208 3.12459 2.82227 3.34089C2.91382 3.53396 2.95532 3.74449 2.9434 3.95536C2.9522 4.23427 2.87405 4.50953 2.71844 4.74768C2.61483 4.90742 2.4648 5.03641 2.28581 5.1196C2.08154 5.21318 1.85552 5.25762 1.62821 5.24894C1.40166 5.25003 1.17745 5.20595 0.9706 5.1196C0.790254 5.02348 0.640841 4.88387 0.537967 4.71535C0.412111 4.49148 0.352379 4.24029 0.364916 3.98768C0.36216 3.77745 0.403306 3.56873 0.486053 3.37322C0.596673 3.16761 0.771738 2.99841 0.987909 2.88814C0.833127 2.78115 0.693564 2.65616 0.572585 2.51621C0.430467 2.33948 0.357198 2.12269 0.364916 1.90174C0.356017 1.69557 0.416539 1.492 0.537967 1.31965C0.64802 1.15495 0.803422 1.02093 0.987909 0.931584C1.18859 0.845073 1.4072 0.800881 1.62821 0.802197C1.86274 0.796488 2.09498 0.846559 2.30312 0.94772C2.49597 1.03341 2.65385 1.17526 2.75305 1.35197C2.85889 1.51804 2.91285 1.70849 2.9088 1.90174C2.91383 2.12234 2.84083 2.33832 2.70113 2.51621C2.59297 2.65815 2.45073 2.77443 2.28581 2.85577C2.28581 2.85577 2.30311 2.82346 2.32041 2.83963ZM1.21287 2.61323C1.34956 2.6699 1.49618 2.70277 1.64551 2.71024C1.8018 2.72144 1.95842 2.69279 2.09863 2.62729C2.23884 2.56179 2.35736 2.46192 2.44155 2.33836C2.5464 2.20192 2.60106 2.03736 2.5973 1.86942C2.60068 1.72135 2.55865 1.57546 2.47617 1.44899C2.39862 1.32046 2.28491 1.21421 2.14736 1.14175C1.99786 1.06835 1.8317 1.02957 1.66282 1.0286C1.49418 1.03136 1.32845 1.07004 1.17827 1.14175C1.0454 1.21454 0.937378 1.32108 0.866772 1.44899C0.776288 1.58487 0.728326 1.74171 0.728326 1.90174C0.728326 2.06178 0.776288 2.21862 0.866772 2.3545C0.958744 2.46499 1.07732 2.55364 1.21287 2.61323ZM2.57999 3.92299C2.60885 3.77327 2.60885 3.61995 2.57999 3.47023C2.52107 3.3185 2.41196 3.18827 2.2685 3.09836C2.11073 2.9979 1.92285 2.94694 1.73204 2.95283C1.55832 2.93933 1.38467 2.97944 1.23773 3.06707C1.0908 3.1547 0.978716 3.285 0.918686 3.43791C0.844247 3.5956 0.808763 3.76692 0.814858 3.93918C0.806956 4.15333 0.860739 4.36555 0.9706 4.55364C1.04996 4.67288 1.16312 4.76921 1.29753 4.83201C1.43194 4.8948 1.58234 4.9216 1.73204 4.90938C1.87963 4.9198 2.02758 4.89395 2.16116 4.83438C2.29474 4.77481 2.40932 4.6836 2.49348 4.56983C2.58169 4.36485 2.6115 4.14195 2.57999 3.92299Z" fill="white"/>
</svg>
