<svg width="18" height="14" viewBox="0 0 18 14" fill="none" xmlns="http://www.w3.org/2000/svg">
<path d="M16.7931 7.98438C16.7931 7.75237 16.6265 7.63637 16.2933 7.63637H6.03457C5.78313 7.63637 5.51441 7.70763 5.22839 7.85014C4.94238 7.99266 4.71766 8.16667 4.55422 8.37216L1.78208 11.9815C1.66894 12.1406 1.61237 12.2732 1.61237 12.3793C1.61237 12.6113 1.77894 12.7273 2.1121 12.7273H12.3709C12.6223 12.7273 12.8926 12.6544 13.1818 12.5085C13.4709 12.3627 13.6941 12.187 13.8512 11.9815L16.6234 8.37216C16.7365 8.22633 16.7931 8.09706 16.7931 7.98437L16.7931 7.98438ZM6.03457 6.36364H13.2761V4.77273C13.2761 4.50758 13.1881 4.2822 13.0121 4.09659C12.836 3.91099 12.6223 3.81819 12.3709 3.81819H6.93976C6.68832 3.81819 6.47459 3.72539 6.29858 3.53978C6.12257 3.35417 6.03457 3.12879 6.03457 2.86364V2.22728C6.03457 1.96212 5.94657 1.73674 5.77056 1.55114C5.59455 1.36553 5.38083 1.27273 5.1294 1.27274H2.1121C1.86066 1.27274 1.64694 1.36554 1.47093 1.55115C1.29492 1.73675 1.20691 1.96213 1.20691 2.22729V10.7088L3.62074 7.57671C3.89732 7.22539 4.26191 6.93538 4.7145 6.70669C5.1671 6.478 5.60712 6.36364 6.03457 6.36364ZM18 7.98438C18 8.39536 17.8554 8.79309 17.5663 9.17756L14.7847 12.7869C14.5144 13.1383 14.1498 13.4283 13.6909 13.657C13.2321 13.8857 12.792 14 12.3709 14H2.1121C1.53379 14 1.03719 13.7812 0.622316 13.3437C0.207439 12.9062 0 12.3826 0 11.7727V2.22728C0 1.61743 0.207439 1.09375 0.622316 0.65625C1.03719 0.21875 1.53379 0 2.1121 0H5.1294C5.70771 0 6.2043 0.21875 6.61918 0.65625C7.03406 1.09375 7.24149 1.61743 7.24149 2.22728V2.54546H12.3709C12.9492 2.54546 13.4458 2.76421 13.8607 3.2017C14.2755 3.6392 14.483 4.16288 14.483 4.77273V6.36364H16.2934C16.6328 6.36364 16.944 6.44484 17.2268 6.60724C17.5097 6.76965 17.7203 7.00332 17.8586 7.30825C17.9529 7.52036 18 7.74573 18 7.98438Z" fill="#1A86FF"/>
</svg>
