<svg width="6" height="14" viewBox="0 0 6 14" fill="none" xmlns="http://www.w3.org/2000/svg">
<path d="M3.29908 0.331055C2.96583 0.331048 2.63586 0.392654 2.32819 0.512306C2.02052 0.631958 1.74123 0.80729 1.50639 1.02823C1.27155 1.24917 1.08579 1.51132 0.959843 1.79962C0.833893 2.08791 0.770238 2.39666 0.77252 2.70804V11.8118C0.825129 12.4062 1.11502 12.9605 1.58466 13.3645C2.0543 13.7686 2.66935 13.9928 3.30774 13.9928C3.94613 13.9928 4.56119 13.7686 5.03083 13.3645C5.50047 12.9605 5.79036 12.4062 5.84297 11.8118V2.78892C5.85458 2.47004 5.79737 2.15223 5.67473 1.85444C5.5521 1.55666 5.36658 1.28497 5.12919 1.05562C4.8918 0.826256 4.60741 0.643891 4.293 0.519412C3.97858 0.394933 3.64056 0.33087 3.29908 0.331055Z" fill="white"/>
</svg>
