<svg width="17" height="18" viewBox="0 0 17 18" fill="none" xmlns="http://www.w3.org/2000/svg">
<path d="M15.611 9.59367C15.4723 9.42946 15.3958 9.21834 15.3958 8.99976C15.3958 8.78117 15.4723 8.57005 15.611 8.40584L16.7185 7.11001C16.8405 6.96843 16.9163 6.79029 16.9349 6.60114C16.9536 6.41199 16.9141 6.22155 16.8223 6.05716L15.0919 2.94358C15.001 2.77937 14.8625 2.64921 14.6963 2.57165C14.5301 2.49409 14.3445 2.47309 14.1661 2.51164L12.5396 2.85359C12.3326 2.89807 12.1172 2.86222 11.9339 2.75281C11.7506 2.64339 11.6121 2.46798 11.5446 2.25967L11.0169 0.612896C10.9588 0.434162 10.8482 0.27892 10.7007 0.169115C10.5532 0.0593088 10.3763 0.000492676 10.1949 0.000979655H6.73416C6.5455 -0.00926279 6.35879 0.0450074 6.20256 0.155501C6.04633 0.265995 5.92917 0.426639 5.86897 0.612896L5.38447 2.25967C5.31698 2.46798 5.17853 2.64339 4.99523 2.75281C4.81193 2.86222 4.59647 2.89807 4.3895 2.85359L2.71968 2.51164C2.55058 2.48678 2.37819 2.51454 2.22423 2.5914C2.07027 2.66827 1.94162 2.79081 1.85449 2.94358L0.124112 6.05716C0.0299451 6.21972 -0.0123955 6.40909 0.00314371 6.59818C0.0186829 6.78728 0.0913063 6.96643 0.210631 7.11001L1.30942 8.40584C1.44813 8.57005 1.52463 8.78117 1.52463 8.99976C1.52463 9.21834 1.44813 9.42946 1.30942 9.59367L0.210631 10.8895C0.0913063 11.0331 0.0186829 11.2122 0.00314371 11.4013C-0.0123955 11.5904 0.0299451 11.7798 0.124112 11.9424L1.85449 15.0559C1.94542 15.2201 2.08387 15.3503 2.2501 15.4279C2.41633 15.5054 2.60186 15.5264 2.78025 15.4879L4.4068 15.1459C4.61377 15.1014 4.82924 15.1373 5.01253 15.2467C5.19583 15.3561 5.33429 15.5315 5.40177 15.7398L5.92954 17.3866C5.98974 17.5729 6.1069 17.7335 6.26313 17.844C6.41935 17.9545 6.60606 18.0088 6.79473 17.9985H10.2555C10.4369 17.999 10.6138 17.9402 10.7613 17.8304C10.9088 17.7206 11.0194 17.5653 11.0774 17.3866L11.6052 15.7398C11.6727 15.5315 11.8111 15.3561 11.9944 15.2467C12.1777 15.1373 12.3932 15.1014 12.6002 15.1459L14.2267 15.4879C14.4051 15.5264 14.5906 15.5054 14.7569 15.4279C14.9231 15.3503 15.0615 15.2201 15.1525 15.0559L16.8828 11.9424C16.9747 11.778 17.0141 11.5875 16.9955 11.3984C16.9768 11.2092 16.9011 11.0311 16.779 10.8895L15.611 9.59367ZM14.3219 10.7995L15.014 11.6094L13.9066 13.6071L12.8857 13.3912C12.2625 13.2587 11.6143 13.3688 11.0641 13.7005C10.5139 14.0323 10.0999 14.5627 9.90076 15.1909L9.57199 16.1988H7.3571L7.04563 15.1729C6.84651 14.5447 6.43254 14.0143 5.8823 13.6825C5.33206 13.3508 4.68386 13.2407 4.06073 13.3732L3.0398 13.5891L1.91506 11.6004L2.60721 10.7905C3.03284 10.2956 3.26815 9.65481 3.26815 8.99076C3.26815 8.32671 3.03284 7.68595 2.60721 7.191L1.91506 6.38111L3.0225 4.40138L4.04342 4.61735C4.66655 4.74983 5.31476 4.63974 5.865 4.30797C6.41524 3.9762 6.82921 3.44585 7.02833 2.8176L7.3571 1.80073H9.57199L9.90076 2.8266C10.0999 3.45485 10.5139 3.9852 11.0641 4.31697C11.6143 4.64874 12.2625 4.75883 12.8857 4.62635L13.9066 4.41038L15.014 6.40811L14.3219 7.218C13.901 7.71181 13.6686 8.34886 13.6686 9.00875C13.6686 9.66865 13.901 10.3057 14.3219 10.7995ZM8.46455 5.40025C7.78007 5.40025 7.11097 5.61135 6.54185 6.00687C5.97273 6.40239 5.52916 6.96456 5.26722 7.62228C5.00528 8.28001 4.93675 9.00375 5.07028 9.70199C5.20382 10.4002 5.53342 11.0416 6.01742 11.545C6.50141 12.0484 7.11806 12.3912 7.78938 12.5301C8.46071 12.669 9.15655 12.5977 9.78892 12.3253C10.4213 12.0528 10.9618 11.5915 11.3421 10.9995C11.7223 10.4076 11.9253 9.71167 11.9253 8.99976C11.9253 8.04511 11.5607 7.12956 10.9117 6.45452C10.2627 5.77948 9.3824 5.40025 8.46455 5.40025ZM8.46455 10.7995C8.12231 10.7995 7.78776 10.694 7.5032 10.4962C7.21864 10.2984 6.99685 10.0174 6.86588 9.68849C6.73491 9.35963 6.70065 8.99776 6.76741 8.64864C6.83418 8.29952 6.99898 7.97884 7.24098 7.72714C7.48298 7.47544 7.7913 7.30403 8.12696 7.23458C8.46263 7.16514 8.81055 7.20078 9.12673 7.337C9.44292 7.47322 9.71317 7.7039 9.9033 7.99987C10.0934 8.29583 10.1949 8.6438 10.1949 8.99976C10.1949 9.47708 10.0126 9.93485 9.68811 10.2724C9.3636 10.6099 8.92347 10.7995 8.46455 10.7995Z" fill="white"/>
</svg>
