<svg width="6" height="25" viewBox="0 0 6 25" fill="none" xmlns="http://www.w3.org/2000/svg">
<path d="M3.1946 0.771973C2.86135 0.771965 2.53139 0.833572 2.22371 0.953224C1.91604 1.07288 1.63674 1.24821 1.4019 1.46915C1.16706 1.69008 0.981314 1.95224 0.855364 2.24054C0.729414 2.52883 0.665745 2.83758 0.668028 3.14896V22.8117C0.720637 23.4061 1.01053 23.9604 1.48017 24.3645C1.94981 24.7685 2.56487 24.9927 3.20326 24.9927C3.84165 24.9927 4.4567 24.7685 4.92634 24.3645C5.39598 23.9604 5.68588 23.4061 5.73849 22.8117V3.14896C5.73849 2.51855 5.47047 1.91398 4.9934 1.46821C4.51633 1.02244 3.86928 0.771973 3.1946 0.771973Z" fill="white"/>
</svg>
