<svg width="5" height="4" viewBox="0 0 5 4" fill="none" xmlns="http://www.w3.org/2000/svg">
<path d="M4.35852 2.35211C4.35852 2.03229 4.25703 1.71967 4.06688 1.45375C3.87673 1.18784 3.60645 0.980584 3.29024 0.858197C2.97403 0.73581 2.62608 0.703785 2.29039 0.766178C1.95469 0.82857 1.64634 0.982573 1.40432 1.20871C1.1623 1.43486 0.997486 1.72298 0.930713 2.03665C0.86394 2.35032 0.898211 2.67543 1.02919 2.9709C1.16017 3.26637 1.38198 3.51891 1.66656 3.69659C1.95115 3.87427 2.28573 3.9691 2.62799 3.9691C3.08696 3.9691 3.52713 3.79874 3.85167 3.4955C4.1762 3.19225 4.35852 2.78096 4.35852 2.35211Z" fill="white"/>
</svg>
