<svg width="4" height="6" viewBox="0 0 4 6" fill="none" xmlns="http://www.w3.org/2000/svg">
<path d="M3.09942 3.84221C3.10312 4.04582 3.06796 4.24841 2.99559 4.44049C2.92429 4.66955 2.77172 4.86914 2.56296 5.00645C2.34268 5.14215 2.08247 5.21 1.81883 5.20048C1.53847 5.21563 1.26176 5.13522 1.04009 4.97413C0.822536 4.83074 0.668651 4.61789 0.607454 4.3758C0.58473 4.22562 0.58473 4.07321 0.607454 3.92304H0.797814H0.884346C0.874152 4.03603 0.874152 4.14965 0.884346 4.26264C0.915585 4.44804 1.02067 4.6155 1.17853 4.73154C1.34671 4.85268 1.55466 4.91558 1.76691 4.90943C1.94956 4.9129 2.12953 4.86803 2.28607 4.78005C2.44095 4.68702 2.55228 4.54255 2.59757 4.3758C2.62527 4.19887 2.62527 4.01914 2.59757 3.84221C2.60867 3.6209 2.56731 3.40005 2.47643 3.19542C2.4164 3.04251 2.30432 2.91221 2.15738 2.82458C2.01045 2.73694 1.83679 2.69679 1.66308 2.71029C1.60655 2.69502 1.54656 2.69502 1.49003 2.71029C1.45097 2.72393 1.40795 2.72393 1.36889 2.71029V2.61327C1.73187 2.09774 2.12471 1.60115 2.54565 1.12566H0.590152C0.563699 1.05777 0.563699 0.983336 0.590152 0.915446C1.40149 0.849554 2.21591 0.822539 3.0302 0.834567C3.05297 0.914018 3.05297 0.997705 3.0302 1.07716C3.0379 1.09232 3.04189 1.10888 3.04189 1.12566C3.04189 1.14244 3.0379 1.15901 3.0302 1.17417L1.92266 2.48394C2.15727 2.50131 2.38343 2.57361 2.58027 2.69415C2.7513 2.80057 2.88398 2.95271 2.96098 3.13073C3.05076 3.35863 3.09761 3.59936 3.09942 3.84221Z" fill="white"/>
</svg>
