<svg width="6" height="26" viewBox="0 0 6 26" fill="none" xmlns="http://www.w3.org/2000/svg">
<path d="M2.97579 0.947321C3.30904 0.945188 3.63945 1.00472 3.94799 1.1224C4.25653 1.24009 4.5371 1.41361 4.77355 1.63304C5.01 1.85248 5.19766 2.11349 5.32571 2.40098C5.45377 2.68847 5.51968 2.99678 5.51968 3.30817V23.8117C5.46707 24.4062 5.17717 24.9605 4.70753 25.3645C4.23789 25.7685 3.62283 25.9928 2.98444 25.9928C2.34605 25.9928 1.731 25.7685 1.26136 25.3645C0.791715 24.9605 0.501827 24.4062 0.449219 23.8117V3.30817C0.449219 2.68205 0.715404 2.08156 1.18923 1.63882C1.66305 1.19608 2.3057 0.947321 2.97579 0.947321Z" fill="white"/>
</svg>
