<svg width="32" height="36" viewBox="0 0 32 36" fill="none" xmlns="http://www.w3.org/2000/svg">
<path d="M1.41667 9.5625C1.22222 9.75 1.02778 9.99107 0.833332 10.2857H10.6667V0.803571C10.3611 0.991071 10.1111 1.17857 9.91667 1.36607L1.41667 9.5625ZM11.3333 12.8571H0V34.0714C0 34.6071 0.194443 35.0625 0.583332 35.4375C0.972221 35.8125 1.44444 36 2 36H30C30.5556 36 31.0278 35.8125 31.4167 35.4375C31.8056 35.0625 32 34.6071 32 34.0714V1.92857C32 1.39286 31.8056 0.9375 31.4167 0.5625C31.0278 0.1875 30.5556 0 30 0H13.3333V10.9286C13.3333 11.4643 13.1389 11.9196 12.75 12.2946C12.3611 12.6696 11.8889 12.8571 11.3333 12.8571ZM8 27.6429V26.3571C8 26.1696 8.0625 26.0156 8.1875 25.8951C8.3125 25.7746 8.47222 25.7143 8.66667 25.7143H23.3333C23.5278 25.7143 23.6875 25.7746 23.8125 25.8951C23.9375 26.0156 24 26.1696 24 26.3571V27.6429C24 27.8304 23.9375 27.9844 23.8125 28.1049C23.6875 28.2254 23.5278 28.2857 23.3333 28.2857H8.66667C8.47222 28.2857 8.3125 28.2254 8.1875 28.1049C8.0625 27.9844 8 27.8304 8 27.6429ZM8 22.5V21.2143C8 21.0268 8.0625 20.8728 8.1875 20.7522C8.3125 20.6317 8.47222 20.5714 8.66667 20.5714H23.3333C23.5278 20.5714 23.6875 20.6317 23.8125 20.7522C23.9375 20.8728 24 21.0268 24 21.2143V22.5C24 22.6875 23.9375 22.8415 23.8125 22.9621C23.6875 23.0826 23.5278 23.1429 23.3333 23.1429H8.66667C8.47222 23.1429 8.3125 23.0826 8.1875 22.9621C8.0625 22.8415 8 22.6875 8 22.5ZM8 17.3571V16.0714C8 15.8839 8.0625 15.7299 8.1875 15.6094C8.3125 15.4888 8.47222 15.4286 8.66667 15.4286H23.3333C23.5278 15.4286 23.6875 15.4888 23.8125 15.6094C23.9375 15.7299 24 15.8839 24 16.0714V17.3571C24 17.5446 23.9375 17.6987 23.8125 17.8192C23.6875 17.9397 23.5278 18 23.3333 18H8.66667C8.47222 18 8.3125 17.9397 8.1875 17.8192C8.0625 17.6987 8 17.5446 8 17.3571Z" fill="#1A86FF"/>
</svg>
