<svg width="7" height="7" viewBox="0 0 7 7" fill="none" xmlns="http://www.w3.org/2000/svg">
<path d="M6.56984 3.74453C6.58706 3.18489 6.4252 2.63318 6.10497 2.15997C5.78474 1.68677 5.32071 1.3136 4.77224 1.0882C4.22377 0.862793 3.6158 0.795411 3.02611 0.89467C2.43643 0.99393 1.89184 1.25532 1.46203 1.64539C1.03222 2.03546 0.736721 2.53648 0.613349 3.08435C0.489978 3.63222 0.54434 4.20203 0.76948 4.72087C0.99462 5.23971 1.3803 5.68399 1.87718 5.99688C2.37406 6.30976 2.95954 6.47702 3.55871 6.47725C4.34386 6.48169 5.09946 6.19774 5.66269 5.68658C6.22592 5.17543 6.5517 4.47798 6.56984 3.74453Z" fill="white"/>
</svg>
