<svg width="3" height="6" viewBox="0 0 3 6" fill="none" xmlns="http://www.w3.org/2000/svg">
<path d="M0.393442 5.13568C0.380164 5.06615 0.380164 4.99498 0.393442 4.92546C0.385938 4.8935 0.385938 4.8604 0.393442 4.82844L1.91631 3.0336C2.24847 2.70264 2.46565 2.28551 2.5393 1.83704C2.54416 1.73056 2.52336 1.6244 2.47843 1.52645C2.4335 1.42849 2.36559 1.34122 2.27972 1.27108C2.10025 1.11876 1.86445 1.03757 1.62212 1.04467C1.37445 1.03672 1.13292 1.11776 0.947208 1.27108C0.867209 1.34468 0.804387 1.43294 0.762691 1.53034C0.720994 1.62775 0.701328 1.73218 0.704934 1.83704V2.01488C0.704934 2.09573 0.445355 2.09571 0.445355 2.09571C0.415551 2.00069 0.415551 1.89969 0.445355 1.80466C0.439236 1.6604 0.468849 1.51679 0.531884 1.38497C0.594919 1.25315 0.689674 1.13667 0.808769 1.04467C1.05661 0.841686 1.37954 0.737249 1.70865 0.753625C1.94295 0.749965 2.17466 0.799922 2.38355 0.899149C2.56734 0.98202 2.72304 1.11074 2.83349 1.27108C2.93908 1.44315 2.9929 1.63871 2.98924 1.83704C2.89475 2.3348 2.6271 2.78949 2.2278 3.13061L0.808769 4.74761H2.93732C2.9625 4.82124 2.9625 4.90039 2.93732 4.97402H0.324219L0.393442 5.13568Z" fill="white"/>
</svg>
