<svg width="6" height="12" viewBox="0 0 6 12" fill="none" xmlns="http://www.w3.org/2000/svg">
<path d="M2.54611 0.147217C1.87602 0.147217 1.23337 0.395926 0.759548 0.838665C0.285723 1.2814 0.0195312 1.88189 0.0195312 2.50802V9.42877C0.0195312 10.0549 0.285723 10.6554 0.759548 11.0981C1.23337 11.5409 1.87602 11.7896 2.54611 11.7896C3.2162 11.7896 3.85884 11.5409 4.33266 11.0981C4.80649 10.6554 5.07268 10.0549 5.07268 9.42877V2.52421C5.07496 2.21282 5.0113 1.90408 4.88535 1.61578C4.7594 1.32748 4.57365 1.06533 4.33881 0.844389C4.10397 0.623451 3.82467 0.44807 3.517 0.328418C3.20933 0.208766 2.87936 0.147209 2.54611 0.147217Z" fill="white"/>
</svg>
