<svg width="19" height="4" viewBox="0 0 19 4" fill="none" xmlns="http://www.w3.org/2000/svg">
<path d="M14.0177 1.84361C14.0213 2.20163 14.1422 2.55062 14.365 2.84647C14.5878 3.14232 14.9025 3.37172 15.2693 3.50568C15.6361 3.63963 16.0386 3.67212 16.4258 3.59903C16.8131 3.52594 17.1677 3.35056 17.4448 3.09507C17.7219 2.83957 17.9091 2.51543 17.9827 2.16365C18.0562 1.81186 18.0129 1.44823 17.8582 1.11873C17.7034 0.789225 17.4442 0.508656 17.1133 0.312499C16.7824 0.116342 16.3947 0.0134081 15.9991 0.0167135C15.4687 0.021146 14.962 0.216112 14.5904 0.558721C14.2188 0.901329 14.0128 1.36352 14.0177 1.84361ZM4.01808 1.92717C4.01443 1.56915 3.89357 1.22015 3.67078 0.924303C3.44799 0.628457 3.13328 0.399052 2.76645 0.265097C2.39961 0.131143 1.99713 0.0986557 1.6099 0.171744C1.22266 0.244832 0.868073 0.420213 0.590962 0.675708C0.313851 0.931204 0.126666 1.25534 0.0530814 1.60712C-0.0205036 1.95891 0.0228137 2.32254 0.177557 2.65205C0.332299 2.98155 0.591515 3.26212 0.92243 3.45827C1.25334 3.65443 1.64109 3.75737 2.03663 3.75406C2.56705 3.74963 3.07378 3.55466 3.44538 3.21205C3.81697 2.86944 4.02298 2.40726 4.01808 1.92717ZM11.0178 1.86867C11.0141 1.51065 10.8933 1.16166 10.6705 0.865809C10.4477 0.569963 10.133 0.340558 9.76615 0.206603C9.39931 0.072649 8.99683 0.0401618 8.6096 0.11325C8.22236 0.186338 7.86777 0.361719 7.59066 0.617215C7.31355 0.87271 7.12637 1.19684 7.05278 1.54863C6.9792 1.90041 7.02251 2.26405 7.17726 2.59355C7.332 2.92305 7.59122 3.20362 7.92213 3.39978C8.25304 3.59594 8.64079 3.69887 9.03634 3.69557C9.56675 3.69113 10.0735 3.49617 10.4451 3.15356C10.8167 2.81095 11.0227 2.34876 11.0178 1.86867Z" fill="#B0BEC5"/>
</svg>
