<svg width="6" height="20" viewBox="0 0 6 20" fill="none" xmlns="http://www.w3.org/2000/svg">
<path d="M2.81376 0.754883C3.14782 0.754883 3.47861 0.816334 3.78725 0.935788C4.09588 1.05524 4.37633 1.23034 4.61255 1.45107C4.84877 1.67179 5.03615 1.93382 5.16399 2.22221C5.29183 2.5106 5.35763 2.81972 5.35763 3.13187V17.4908C5.30502 18.0853 5.01513 18.6395 4.54549 19.0436C4.07585 19.4476 3.46079 19.6719 2.8224 19.6719C2.18401 19.6719 1.56896 19.4476 1.09932 19.0436C0.629678 18.6395 0.339777 18.0853 0.287169 17.4908V3.13187C0.284886 2.82049 0.348555 2.51174 0.474505 2.22345C0.600455 1.93515 0.78621 1.67299 1.02105 1.45206C1.25589 1.23112 1.53518 1.05579 1.84285 0.936134C2.15053 0.816482 2.4805 0.754876 2.81376 0.754883Z" fill="white"/>
</svg>
