<svg width="4" height="6" viewBox="0 0 4 6" fill="none" xmlns="http://www.w3.org/2000/svg">
<path d="M3.32324 3.82603C3.34464 3.99252 3.34464 4.1608 3.32324 4.32729C3.26771 4.58476 3.11396 4.81466 2.89061 4.97413C2.65848 5.1281 2.37914 5.20751 2.09457 5.20048C1.82424 5.20444 1.55986 5.12615 1.34134 4.97739C1.12282 4.82862 0.962011 4.61745 0.883188 4.3758C0.873573 4.30061 0.873573 4.22464 0.883188 4.14944V4.06857H1.07355C1.11968 4.29327 1.23379 4.50094 1.40235 4.6669C1.56521 4.78568 1.76686 4.84847 1.97343 4.84474C2.18882 4.85229 2.3992 4.78291 2.56181 4.65071C2.72369 4.52164 2.83358 4.3448 2.8733 4.14944C2.88662 4.02038 2.88662 3.89044 2.8733 3.76138C2.88189 3.61596 2.88189 3.47018 2.8733 3.32476C2.86147 3.23188 2.82923 3.14229 2.77861 3.06159C2.72799 2.9809 2.66007 2.91084 2.57911 2.85582C2.40432 2.73466 2.19097 2.67203 1.97343 2.67797C1.7801 2.6766 1.58956 2.72109 1.41966 2.80731C1.27163 2.88505 1.16041 3.01208 1.10817 3.16305H0.883188C0.883188 3.0822 0.883188 0.753739 0.883188 0.753739C1.63669 0.687953 2.39351 0.660982 3.15019 0.672909C3.20506 0.737339 3.23548 0.816934 3.23671 0.899263C2.57953 0.930168 1.92109 0.930168 1.26391 0.899263V2.59714C1.39776 2.50116 1.54291 2.41974 1.69654 2.35455C1.86682 2.28964 2.04911 2.25668 2.23301 2.25754C2.50854 2.25807 2.77836 2.33092 3.01175 2.46775C3.22366 2.61745 3.36611 2.83736 3.40978 3.08222C3.4155 3.33261 3.3864 3.58263 3.32324 3.82603Z" fill="white"/>
</svg>
