<svg width="3" height="6" viewBox="0 0 3 6" fill="none" xmlns="http://www.w3.org/2000/svg">
<path d="M0.155042 5.13562C0.148258 5.0657 0.148258 4.99533 0.155042 4.92541C0.147538 4.89345 0.147538 4.86035 0.155042 4.82839L1.67792 3.03355C2.01008 2.70259 2.22725 2.28546 2.3009 1.83698C2.30576 1.73051 2.28496 1.62435 2.24003 1.5264C2.1951 1.42844 2.1272 1.34117 2.04133 1.27103C1.85561 1.11771 1.61409 1.03667 1.36642 1.04462C1.12409 1.03751 0.888284 1.11871 0.708811 1.27103C0.625079 1.34197 0.559744 1.42981 0.517765 1.52788C0.475787 1.62594 0.458268 1.73165 0.466538 1.83698V2.01483C0.385761 2.06855 0.288797 2.09684 0.18966 2.09566C0.165371 1.99997 0.165371 1.90031 0.18966 1.80461C0.183952 1.66194 0.212008 1.51989 0.271835 1.38852C0.331662 1.25715 0.42178 1.1397 0.535761 1.04462C0.787113 0.847345 1.10754 0.743714 1.43563 0.753574C1.67016 0.747865 1.90241 0.797937 2.11055 0.899098C2.29765 0.97724 2.45465 1.10704 2.56048 1.27103C2.66608 1.4431 2.7199 1.63866 2.71623 1.83698C2.65885 2.32335 2.44115 2.78104 2.09324 3.14675L0.656898 4.76375H2.80275C2.85762 4.82818 2.88806 4.90777 2.88928 4.9901C2.80276 4.9901 0.276179 4.9901 0.276179 4.9901L0.155042 5.13562Z" fill="white"/>
</svg>
