<svg width="199" height="3" viewBox="0 0 199 3" fill="none" xmlns="http://www.w3.org/2000/svg">
<path d="M197.1 2.4959H1.65335C1.42387 2.4959 1.20378 2.41071 1.04152 2.25909C0.879247 2.10747 0.788086 1.90183 0.788086 1.68741C0.788086 1.47298 0.879247 1.26734 1.04152 1.11572C1.20378 0.964099 1.42387 0.878906 1.65335 0.878906H197.203C197.433 0.878906 197.653 0.964099 197.815 1.11572C197.977 1.26734 198.069 1.47298 198.069 1.68741C198.07 1.80226 198.044 1.91597 197.994 2.02097C197.945 2.12596 197.871 2.21985 197.78 2.29635C197.688 2.37284 197.58 2.43021 197.463 2.46462C197.345 2.49903 197.222 2.50969 197.1 2.4959Z" fill="white"/>
</svg>
