<svg width="6" height="15" viewBox="0 0 6 15" fill="none" xmlns="http://www.w3.org/2000/svg">
<path d="M3.00419 0.737793C2.67093 0.737786 2.34096 0.799392 2.03328 0.919044C1.72561 1.0387 1.44632 1.21403 1.21148 1.43497C0.97664 1.6559 0.790884 1.91811 0.664934 2.2064C0.538984 2.4947 0.475316 2.8034 0.477598 3.11478V12.1538C0.530207 12.7483 0.820108 13.3026 1.28975 13.7066C1.75939 14.1106 2.37444 14.3349 3.01283 14.3349C3.65122 14.3349 4.26628 14.1106 4.73592 13.7066C5.20556 13.3026 5.49545 12.7483 5.54806 12.1538V3.11478C5.54806 2.80263 5.48226 2.49356 5.35442 2.20517C5.22658 1.91678 5.0392 1.65475 4.80298 1.43403C4.56676 1.2133 4.28631 1.0382 3.97768 0.918748C3.66904 0.799293 3.33825 0.737793 3.00419 0.737793Z" fill="white"/>
</svg>
