<svg width="18" height="18" viewBox="0 0 18 18" fill="none" xmlns="http://www.w3.org/2000/svg">
<path d="M15.327 2.60676C15.321 2.59776 15.315 2.58876 15.306 2.58276C15.291 2.56776 15.273 2.55576 15.255 2.54076C13.635 0.968756 11.43 -0.000244141 9 -0.000244141C6.57 -0.000244141 4.365 0.968756 2.745 2.53776C2.727 2.55276 2.709 2.56476 2.694 2.57976C2.685 2.58876 2.682 2.59776 2.673 2.60376C1.023 4.23876 0 6.50076 0 8.99976C0 11.4988 1.023 13.7608 2.673 15.3928C2.679 15.4018 2.685 15.4108 2.694 15.4168C2.709 15.4318 2.727 15.4468 2.745 15.4588C4.365 17.0308 6.57 17.9998 9 17.9998C11.43 17.9998 13.635 17.0308 15.255 15.4618C15.273 15.4468 15.288 15.4348 15.306 15.4198C15.315 15.4108 15.318 15.4018 15.327 15.3958C16.977 13.7608 18 11.4988 18 8.99976C18 6.50076 16.977 4.23876 15.327 2.60676ZM6.12 1.75476C5.721 2.30976 5.37 2.98176 5.082 3.74376C4.71 3.52776 4.356 3.27876 4.023 3.00276C4.644 2.48076 5.352 2.05776 6.12 1.75476ZM3.159 3.83976C3.639 4.25076 4.158 4.60776 4.71 4.90476C4.428 5.96076 4.254 7.13976 4.212 8.39976H1.224C1.359 6.65676 2.067 5.07576 3.159 3.83976ZM1.224 9.59976H4.209C4.251 10.8598 4.425 12.0388 4.707 13.0948C4.155 13.3948 3.636 13.7488 3.156 14.1598C2.067 12.9238 1.359 11.3428 1.224 9.59976ZM4.02 14.9998C4.353 14.7208 4.707 14.4748 5.079 14.2588C5.367 15.0208 5.718 15.6928 6.117 16.2478C5.352 15.9418 4.644 15.5188 4.02 14.9998ZM8.4 16.6768C7.551 16.3378 6.726 15.2938 6.159 13.7368C6.876 13.4548 7.626 13.2838 8.4 13.2268V16.6768ZM8.4 12.0208C7.506 12.0778 6.639 12.2698 5.811 12.5848C5.592 11.6998 5.451 10.6948 5.412 9.59976H8.4V12.0208ZM8.4 8.39976H5.412C5.451 7.30476 5.592 6.29976 5.811 5.41476C6.642 5.72976 7.509 5.92176 8.4 5.97876V8.39976ZM8.4 4.77576C7.626 4.71876 6.876 4.54776 6.159 4.26576C6.729 2.70876 7.551 1.66476 8.4 1.32576V4.77576ZM16.776 8.39976H13.791C13.749 7.13976 13.575 5.96076 13.293 4.90476C13.845 4.60476 14.364 4.25076 14.844 3.83976C15.933 5.07576 16.641 6.65676 16.776 8.39976ZM13.98 2.99976C13.647 3.27876 13.293 3.52476 12.921 3.74076C12.633 2.97876 12.282 2.30676 11.883 1.75176C12.648 2.05776 13.356 2.48076 13.98 2.99976ZM9.6 1.32276C10.449 1.66176 11.274 2.70576 11.841 4.26276C11.124 4.54476 10.374 4.71576 9.6 4.77276V1.32276ZM9.6 5.97876C10.494 5.92176 11.361 5.72976 12.189 5.41476C12.408 6.29976 12.549 7.30476 12.588 8.39976H9.6V5.97876ZM9.6 9.59976H12.588C12.549 10.6948 12.408 11.6998 12.189 12.5848C11.358 12.2698 10.491 12.0778 9.6 12.0208V9.59976ZM9.6 16.6768V13.2238C10.374 13.2808 11.124 13.4518 11.841 13.7338C11.274 15.2938 10.449 16.3348 9.6 16.6768ZM11.88 16.2448C12.279 15.6898 12.63 15.0178 12.918 14.2558C13.29 14.4718 13.644 14.7208 13.977 14.9968C13.356 15.5188 12.648 15.9418 11.88 16.2448ZM14.841 14.1598C14.361 13.7488 13.842 13.3918 13.29 13.0948C13.572 12.0388 13.746 10.8598 13.788 9.59976H16.773C16.641 11.3428 15.933 12.9238 14.841 14.1598Z" fill="white"/>
</svg>
