<svg width="6" height="16" viewBox="0 0 6 16" fill="none" xmlns="http://www.w3.org/2000/svg">
<path d="M2.87019 0.913141C2.2001 0.913141 1.55745 1.16185 1.08363 1.60459C0.609805 2.04733 0.343614 2.64782 0.343614 3.27394V12.9759C0.314628 13.3035 0.358652 13.6331 0.472903 13.9439C0.587154 14.2548 0.76915 14.54 1.0074 14.7818C1.24564 15.0236 1.53496 15.2166 1.85708 15.3486C2.17919 15.4806 2.52711 15.5488 2.87884 15.5488C3.23058 15.5488 3.57849 15.4806 3.90061 15.3486C4.22273 15.2166 4.51204 15.0236 4.75029 14.7818C4.98853 14.54 5.17053 14.2548 5.28478 13.9439C5.39903 13.6331 5.44306 13.3035 5.41407 12.9759V3.27394C5.41408 2.96255 5.34816 2.65424 5.22011 2.36675C5.09205 2.07927 4.9044 1.8183 4.66795 1.59887C4.4315 1.37943 4.15092 1.20586 3.84238 1.08817C3.53385 0.970488 3.20344 0.911009 2.87019 0.913141Z" fill="white"/>
</svg>
