<svg width="6" height="25" viewBox="0 0 6 25" fill="none" xmlns="http://www.w3.org/2000/svg">
<path d="M2.65208 0.583063C2.98533 0.58093 3.31574 0.640459 3.62428 0.758146C3.93281 0.875833 4.21339 1.04935 4.44984 1.26879C4.68629 1.48822 4.87395 1.74924 5.002 2.03672C5.13005 2.32421 5.19597 2.63252 5.19596 2.94392V22.1538C5.14335 22.7483 4.85347 23.3026 4.38383 23.7066C3.91419 24.1106 3.29913 24.3349 2.66074 24.3349C2.02235 24.3349 1.4073 24.1106 0.937656 23.7066C0.468015 23.3026 0.178114 22.7483 0.125506 22.1538V3.02475C0.113889 2.70798 0.170656 2.39226 0.292417 2.09643C0.414178 1.80061 0.598443 1.53074 0.834224 1.30289C1.07001 1.07503 1.35248 0.893852 1.66479 0.770186C1.97711 0.646521 2.31288 0.582877 2.65208 0.583063Z" fill="white"/>
</svg>
