<svg width="3" height="6" viewBox="0 0 3 6" fill="none" xmlns="http://www.w3.org/2000/svg">
<path d="M2.68835 3.82581C2.69655 4.0284 2.66728 4.2308 2.60182 4.42409C2.53053 4.65315 2.37796 4.85274 2.16919 4.99005C1.95443 5.13805 1.6916 5.2123 1.42506 5.20027C1.14782 5.21203 0.874142 5.13815 0.646321 4.99005C0.429633 4.84263 0.271395 4.63222 0.196386 4.39177C0.175423 4.20363 0.175423 4.01395 0.196386 3.82581V1.86926C0.185304 1.71885 0.210663 1.56803 0.270586 1.42805C0.33051 1.28807 0.423449 1.16253 0.542487 1.06076C0.65962 0.956311 0.798266 0.875227 0.949988 0.822412C1.10171 0.769596 1.26334 0.746148 1.42506 0.753523C1.74855 0.739692 2.0651 0.844072 2.30763 1.04457C2.41755 1.14182 2.50379 1.26001 2.56052 1.39113C2.61726 1.52226 2.64315 1.66326 2.63644 1.80456C2.6042 1.84473 2.56239 1.87735 2.51433 1.8998C2.46627 1.92225 2.41328 1.93395 2.35955 1.93395C2.33385 1.68281 2.22496 1.44538 2.04805 1.25479C1.87566 1.11465 1.6535 1.03968 1.42506 1.04457C1.19366 1.04079 0.969936 1.12211 0.802069 1.27097C0.71714 1.34869 0.650258 1.44191 0.605597 1.54485C0.560936 1.64779 0.539451 1.75822 0.542487 1.86926V2.87179C0.654566 2.74161 0.796503 2.63662 0.957817 2.56455C1.12724 2.49701 1.31012 2.46394 1.49428 2.46754C1.74201 2.45171 1.98837 2.51294 2.19497 2.64163C2.40157 2.77033 2.55679 2.95927 2.63644 3.17902C2.70031 3.38913 2.71797 3.60915 2.68835 3.82581ZM2.32494 3.82581C2.35768 3.66556 2.35768 3.50098 2.32494 3.34073C2.30934 3.25556 2.27518 3.17426 2.22457 3.10194C2.17396 3.02962 2.10799 2.9678 2.03075 2.92029C1.86825 2.81457 1.67499 2.75789 1.47698 2.75789C1.27896 2.75789 1.0857 2.81457 0.923206 2.92029C0.770316 3.02942 0.660709 3.18307 0.61171 3.35692C0.589041 3.51792 0.589041 3.68099 0.61171 3.842C0.588986 3.99217 0.588986 4.14458 0.61171 4.29475C0.649414 4.46897 0.754064 4.62425 0.905904 4.73132C1.06877 4.85011 1.27041 4.91294 1.47698 4.90922C1.67617 4.91784 1.87225 4.86057 2.03075 4.74751C2.19142 4.63822 2.30254 4.47671 2.34224 4.29475C2.3609 4.13849 2.35508 3.9805 2.32494 3.82581Z" fill="white"/>
</svg>
