<svg width="6" height="17" viewBox="0 0 6 17" fill="none" xmlns="http://www.w3.org/2000/svg">
<path d="M2.70822 0.422907C2.03813 0.422907 1.39548 0.671616 0.921657 1.11436C0.447832 1.55709 0.181641 2.15758 0.181641 2.78371V14.7819C0.234249 15.3763 0.524143 15.9306 0.993784 16.3347C1.46343 16.7387 2.07848 16.9629 2.71687 16.9629C3.35526 16.9629 3.97031 16.7387 4.43995 16.3347C4.90959 15.9306 5.19949 15.3763 5.2521 14.7819V2.78371C5.2521 2.47232 5.18618 2.164 5.05813 1.87652C4.93008 1.58903 4.74242 1.32807 4.50597 1.10863C4.26952 0.889196 3.98895 0.715627 3.68041 0.59794C3.37187 0.480253 3.04147 0.420774 2.70822 0.422907Z" fill="white"/>
</svg>
