<svg width="5" height="4" viewBox="0 0 5 4" fill="none" xmlns="http://www.w3.org/2000/svg">
<path d="M4.35852 1.67095C4.35852 1.35114 4.25703 1.03851 4.06688 0.7726C3.87673 0.506686 3.60645 0.299431 3.29024 0.177045C2.97403 0.054658 2.62608 0.022633 2.29039 0.0850252C1.95469 0.147417 1.64634 0.30142 1.40432 0.527562C1.1623 0.753703 0.997486 1.04183 0.930713 1.3555C0.86394 1.66916 0.898211 1.99429 1.02919 2.28976C1.16017 2.58522 1.38198 2.83776 1.66656 3.01544C1.95115 3.19312 2.28573 3.28796 2.62799 3.28796C2.85525 3.28796 3.08028 3.24612 3.29024 3.16486C3.5002 3.0836 3.69097 2.9645 3.85167 2.81435C4.01236 2.6642 4.13983 2.48594 4.2268 2.28976C4.31376 2.09357 4.35852 1.8833 4.35852 1.67095Z" fill="white"/>
</svg>
