<svg width="18" height="18" viewBox="0 0 18 18" fill="none" xmlns="http://www.w3.org/2000/svg">
<path d="M16.213 10.9296L16.5558 10.5864L15.253 9.28218L14.9102 9.6254L16.213 10.9296ZM7.66124 1.66821L7.31844 2.01103L8.57424 3.26918L8.91704 2.92616L7.66124 1.66821ZM18 6.30912H16.061V6.79452H18V6.30912ZM7.33544 6.30912H5.39645V6.79452H7.33544V6.30912ZM15.2866 3.2892L16.5704 2.00362L16.2274 1.6604L14.9436 2.94598L15.2866 3.2892ZM12.0282 4.92201L13.0616 5.95669C13.1067 6.00175 13.1424 6.05525 13.1668 6.11414C13.1911 6.17303 13.2037 6.23616 13.2037 6.29991C13.2037 6.36366 13.1911 6.42678 13.1668 6.48567C13.1424 6.54457 13.1067 6.59807 13.0616 6.64313L1.86106 17.8575C1.67187 18.0472 1.36507 18.0472 1.17547 17.8575L0.142071 16.8229C0.0970306 16.7778 0.0613022 16.7243 0.0369244 16.6654C0.0125484 16.6065 0 16.5434 0 16.4796C0 16.4159 0.0125484 16.3528 0.0369244 16.2939C0.0613022 16.235 0.0970306 16.1815 0.142071 16.1364L11.3426 4.92201C11.3876 4.87687 11.441 4.84105 11.4999 4.81662C11.5587 4.79218 11.6217 4.7796 11.6854 4.7796C11.7491 4.7796 11.8122 4.79218 11.871 4.81662C11.9298 4.84105 11.9832 4.87687 12.0282 4.92201ZM10.0168 9.14561L12.8426 6.31693L11.676 5.14869L8.85024 7.97777L10.0168 9.14561ZM12.1828 -0.000244141H11.698V1.94114H12.1828V-0.000244141ZM12.1828 10.6775H11.698V12.6189H12.1828V10.6775Z" fill="white"/>
</svg>
