<svg width="18" height="18" viewBox="0 0 18 18" fill="none" xmlns="http://www.w3.org/2000/svg">
<path d="M13.5 8.99976C13.5 11.5198 11.52 13.4998 9 13.4998C6.48 13.4998 4.5 11.5198 4.5 8.99976C4.5 6.47976 6.48 4.49976 9 4.49976C11.52 4.49976 13.5 6.47976 13.5 8.99976ZM9 6.29976C7.47 6.29976 6.3 7.46976 6.3 8.99976C6.3 10.5298 7.47 11.6998 9 11.6998C10.53 11.6998 11.7 10.5298 11.7 8.99976C11.7 7.46976 10.53 6.29976 9 6.29976ZM8.1 2.69976V0.899756C8.1 0.359756 8.46 -0.000244141 9 -0.000244141C9.54 -0.000244141 9.9 0.359756 9.9 0.899756V2.69976C9.9 3.23976 9.54 3.59976 9 3.59976C8.46 3.59976 8.1 3.23976 8.1 2.69976ZM2.61 2.60976C2.97 2.24976 3.51 2.24976 3.87 2.60976L5.13 3.86976C5.49 4.22976 5.49 4.76976 5.13 5.12976C4.95 5.30976 4.68 5.39976 4.5 5.39976C4.32 5.39976 4.05 5.30976 3.87 5.12976L2.61 3.86976C2.25 3.59976 2.25 2.96976 2.61 2.60976ZM0.9 8.09976H2.7C3.24 8.09976 3.6 8.45976 3.6 8.99976C3.6 9.53976 3.24 9.89976 2.7 9.89976H0.9C0.360001 9.89976 0 9.53976 0 8.99976C0 8.45976 0.360001 8.09976 0.9 8.09976ZM3.87 12.7798C4.23 12.4198 4.77 12.4198 5.13 12.7798C5.49 13.1398 5.49 13.6798 5.13 14.0398L3.87 15.2998C3.69 15.4798 3.42 15.5698 3.24 15.5698C3.06 15.5698 2.79 15.4798 2.61 15.2998C2.25 14.9398 2.25 14.3998 2.61 14.0398L3.87 12.7798ZM9.9 15.2998V17.0998C9.9 17.6398 9.54 17.9998 9 17.9998C8.46 17.9998 8.1 17.6398 8.1 17.0998V15.2998C8.1 14.7598 8.46 14.3998 9 14.3998C9.54 14.3998 9.9 14.7598 9.9 15.2998ZM15.39 15.3898C15.21 15.5698 14.94 15.6598 14.76 15.6598C14.58 15.6598 14.31 15.5698 14.13 15.3898L12.87 14.1298C12.51 13.7698 12.51 13.2298 12.87 12.8698C13.23 12.5098 13.77 12.5098 14.13 12.8698L15.39 14.1298C15.75 14.3998 15.75 15.0298 15.39 15.3898ZM18 8.99976C18 9.53976 17.64 9.89976 17.1 9.89976H15.3C14.76 9.89976 14.4 9.53976 14.4 8.99976C14.4 8.45976 14.76 8.09976 15.3 8.09976H17.1C17.64 8.09976 18 8.45976 18 8.99976ZM14.13 2.60976C14.49 2.24976 15.03 2.24976 15.39 2.60976C15.75 2.96976 15.75 3.50976 15.39 3.86976L14.13 5.12976C13.95 5.39976 13.68 5.48976 13.41 5.48976C13.14 5.48976 12.96 5.39976 12.78 5.21976C12.42 4.85976 12.42 4.31976 12.78 3.95976L14.13 2.60976Z" fill="white"/>
</svg>
