<svg width="34" height="36" viewBox="0 0 34 36" fill="none" xmlns="http://www.w3.org/2000/svg">
<path d="M7.55556 25.2H20.7778V28.8H7.55556V25.2ZM7.55556 18H26.4444V21.6H7.55556V18ZM7.55556 10.8H26.4444V14.4H7.55556V10.8ZM30.2222 3.6H22.3267C21.5333 1.512 19.4556 0 17 0C14.5444 0 12.4667 1.512 11.6733 3.6H3.77778C3.51333 3.6 3.26778 3.618 3.02222 3.672C2.28556 3.816 1.62444 4.176 1.11444 4.662C0.774444 4.986 0.491111 5.382 0.302222 5.814C0.113333 6.228 0 6.696 0 7.2V32.4C0 32.886 0.113333 33.372 0.302222 33.804C0.491111 34.236 0.774444 34.614 1.11444 34.956C1.62444 35.442 2.28556 35.802 3.02222 35.946C3.26778 35.982 3.51333 36 3.77778 36H30.2222C32.3 36 34 34.38 34 32.4V7.2C34 5.22 32.3 3.6 30.2222 3.6ZM17 3.15C17.7744 3.15 18.4167 3.762 18.4167 4.5C18.4167 5.238 17.7744 5.85 17 5.85C16.2256 5.85 15.5833 5.238 15.5833 4.5C15.5833 3.762 16.2256 3.15 17 3.15ZM30.2222 32.4H3.77778V7.2H30.2222V32.4Z" fill="white"/>
</svg>
