<svg width="6" height="20" viewBox="0 0 6 20" fill="none" xmlns="http://www.w3.org/2000/svg">
<path d="M2.84206 0.754883C2.50881 0.754876 2.17885 0.816482 1.87117 0.936134C1.5635 1.05579 1.2842 1.23112 1.04936 1.45206C0.814517 1.67299 0.628775 1.93515 0.502825 2.22345C0.376875 2.51174 0.313206 2.82049 0.315489 3.13187V17.4908C0.368098 18.0853 0.657998 18.6395 1.12764 19.0436C1.59728 19.4476 2.21234 19.6719 2.85072 19.6719C3.48911 19.6719 4.10417 19.4476 4.57381 19.0436C5.04345 18.6395 5.33334 18.0853 5.38595 17.4908V3.13187C5.38595 2.81972 5.32014 2.5106 5.1923 2.22221C5.06446 1.93382 4.87709 1.67179 4.64087 1.45107C4.40465 1.23034 4.1242 1.05524 3.81557 0.935788C3.50693 0.816334 3.17613 0.754883 2.84206 0.754883Z" fill="white"/>
</svg>
