<svg width="4" height="6" viewBox="0 0 4 6" fill="none" xmlns="http://www.w3.org/2000/svg">
<path d="M1.15959 4.87712C1.0376 4.76303 0.942302 4.62654 0.879743 4.47623C0.817185 4.32592 0.788728 4.1651 0.796182 4.00398V1.96654C0.788409 1.80296 0.816653 1.63962 0.879163 1.48665C0.941672 1.33367 1.03712 1.19433 1.15959 1.07721C1.43053 0.853107 1.7846 0.737003 2.14599 0.753795C2.51198 0.74108 2.86989 0.856418 3.14971 1.07721C3.27218 1.19433 3.36763 1.33367 3.43014 1.48665C3.49265 1.63962 3.52089 1.80296 3.51312 1.96654V4.00398C3.52057 4.1651 3.49211 4.32592 3.42955 4.47623C3.367 4.62654 3.2717 4.76303 3.14971 4.87712C2.87159 5.09708 2.51901 5.21781 2.15464 5.21781C1.79027 5.21781 1.43771 5.09708 1.15959 4.87712ZM2.89012 4.66695C2.98399 4.58455 3.05742 4.48394 3.10525 4.3722C3.15308 4.26047 3.17417 4.14027 3.16702 4.02011V1.93422C3.17301 1.81418 3.15139 1.69435 3.10363 1.58277C3.05587 1.4712 2.98306 1.37045 2.89012 1.28738C2.68489 1.1198 2.41825 1.0329 2.14599 1.04484C1.87937 1.03543 1.6191 1.12228 1.41917 1.28738C1.32961 1.37277 1.25903 1.47393 1.21151 1.58494C1.16398 1.69596 1.14045 1.81467 1.14228 1.93422V4.02011C1.13846 4.13991 1.16107 4.25915 1.20871 4.37043C1.25634 4.4817 1.32799 4.58267 1.41917 4.66695C1.51608 4.75174 1.6306 4.81699 1.75562 4.85871C1.88065 4.90044 2.01353 4.91774 2.14599 4.90949C2.2753 4.93013 2.40772 4.92645 2.53549 4.89868C2.66327 4.87092 2.78383 4.81962 2.89012 4.74778V4.66695Z" fill="white"/>
</svg>
