<svg width="6" height="17" viewBox="0 0 6 17" fill="none" xmlns="http://www.w3.org/2000/svg">
<path d="M3.16609 0.748835C2.496 0.748835 1.85335 0.997544 1.37952 1.44028C0.905698 1.88302 0.639513 2.48351 0.639513 3.10964V13.9274C0.610527 14.2549 0.654545 14.5845 0.768796 14.8953C0.883047 15.2062 1.06504 15.4915 1.30329 15.7333C1.54154 15.975 1.83086 16.168 2.15298 16.3001C2.47509 16.4321 2.823 16.5002 3.17474 16.5002C3.52647 16.5002 3.87439 16.4321 4.19651 16.3001C4.51862 16.168 4.80793 15.975 5.04618 15.7333C5.28443 15.4915 5.46642 15.2062 5.58067 14.8953C5.69493 14.5845 5.73896 14.2549 5.70997 13.9274V3.10964C5.70998 2.79825 5.64406 2.48993 5.51601 2.20245C5.38795 1.91496 5.2003 1.65399 4.96385 1.43456C4.7274 1.21512 4.44682 1.04155 4.13828 0.923868C3.82974 0.806181 3.49934 0.746702 3.16609 0.748835Z" fill="white"/>
</svg>
