<svg width="19" height="4" viewBox="0 0 19 4" fill="none" xmlns="http://www.w3.org/2000/svg">
<path d="M14.0177 1.83079C14.0213 2.18881 14.1422 2.53781 14.365 2.83365C14.5878 3.1295 14.9025 3.3589 15.2693 3.49286C15.6361 3.62681 16.0386 3.6593 16.4258 3.58621C16.8131 3.51312 17.1677 3.33774 17.4448 3.08225C17.7219 2.82675 17.9091 2.50262 17.9827 2.15083C18.0562 1.79905 18.0129 1.43541 17.8582 1.10591C17.7034 0.776408 17.4442 0.495838 17.1133 0.299681C16.7824 0.103525 16.3947 0.00059072 15.9991 0.00389615C15.4687 0.00832859 14.962 0.203295 14.5904 0.545903C14.2188 0.888512 14.0128 1.3507 14.0177 1.83079ZM4.01808 1.91435C4.01443 1.55633 3.89357 1.20733 3.67078 0.911486C3.44799 0.61564 3.13328 0.386234 2.76645 0.25228C2.39961 0.118326 1.99713 0.0858383 1.6099 0.158926C1.22266 0.232014 0.868073 0.407396 0.590962 0.662891C0.313851 0.918386 0.126666 1.24252 0.0530814 1.59431C-0.0205036 1.94609 0.0228137 2.30973 0.177557 2.63923C0.332299 2.96873 0.591515 3.2493 0.92243 3.44546C1.25334 3.64161 1.64109 3.74455 2.03663 3.74124C2.56705 3.73681 3.07378 3.54184 3.44538 3.19924C3.81697 2.85663 4.02298 2.39444 4.01808 1.91435ZM11.0178 1.85586C11.0141 1.49784 10.8933 1.14884 10.6705 0.852992C10.4477 0.557146 10.133 0.32774 9.76615 0.193786C9.39931 0.0598316 8.99683 0.0273444 8.6096 0.100432C8.22236 0.173521 7.86777 0.348902 7.59066 0.604397C7.31355 0.859893 7.12637 1.18403 7.05278 1.53581C6.9792 1.8876 7.02251 2.25123 7.17726 2.58074C7.332 2.91024 7.59122 3.19081 7.92213 3.38696C8.25304 3.58312 8.64079 3.68605 9.03634 3.68275C9.56675 3.67832 10.0735 3.48335 10.4451 3.14074C10.8167 2.79813 11.0227 2.33595 11.0178 1.85586Z" fill="#B0BEC5"/>
</svg>
