<svg width="4" height="6" viewBox="0 0 4 6" fill="none" xmlns="http://www.w3.org/2000/svg">
<path d="M3.14343 3.66424C3.15015 3.72877 3.15015 3.7938 3.14343 3.85832C3.14343 3.93917 2.79732 3.93915 2.79732 3.93915V5.08721C2.70651 5.10912 2.61125 5.10912 2.52044 5.08721C2.45088 4.69183 2.4219 4.29117 2.43391 3.89065H0.478413C0.457717 3.82191 0.457717 3.74916 0.478413 3.68043C0.470317 3.64853 0.470317 3.61531 0.478413 3.58341L1.88014 0.818359H2.0705C2.0705 0.915379 0.7726 3.61573 0.7726 3.61573H2.50313V2.54856C2.59394 2.52665 2.68922 2.52665 2.78002 2.54856C2.82051 2.91951 2.82051 3.29329 2.78002 3.66424H3.07421H3.14343Z" fill="white"/>
</svg>
