<svg width="19" height="18" viewBox="0 0 19 18" fill="none" xmlns="http://www.w3.org/2000/svg">
<path d="M9.44564 0.987305C7.7343 0.987305 6.06139 1.46148 4.63847 2.34987C3.21555 3.23826 2.10652 4.50096 1.45162 5.9783C0.79672 7.45563 0.625365 9.08126 0.95923 10.6496C1.29309 12.2179 2.11718 13.6585 3.32728 14.7893C4.53737 15.92 6.07914 16.69 7.75759 17.0019C9.43604 17.3139 11.1758 17.1538 12.7569 16.5419C14.3379 15.9299 15.6893 14.8936 16.6401 13.5641C17.5908 12.2345 18.0983 10.6714 18.0983 9.07229C18.0983 6.92802 17.1867 4.87157 15.564 3.35534C13.9413 1.83911 11.7405 0.987305 9.44564 0.987305Z" fill="#212225"/>
</svg>
