<svg width="4" height="6" viewBox="0 0 4 6" fill="none" xmlns="http://www.w3.org/2000/svg">
<path d="M3.10578 2.14418V4.10073C3.11108 4.25054 3.08306 4.39972 3.02348 4.53888C2.96391 4.67805 2.87407 4.80417 2.75966 4.90923C2.50831 5.10651 2.18788 5.21014 1.85979 5.20028C1.5363 5.21411 1.21975 5.10973 0.977218 4.90923C0.869068 4.81074 0.784006 4.69231 0.727406 4.56149C0.670805 4.43066 0.64391 4.29029 0.648426 4.14924C0.683865 4.11371 0.726709 4.08531 0.774329 4.06585C0.821948 4.04638 0.873327 4.03625 0.925304 4.03604H1.01184C1.00184 4.14743 1.01667 4.25957 1.05539 4.36533C1.09411 4.47109 1.15588 4.56818 1.2368 4.65051C1.31966 4.7236 1.41772 4.78 1.5249 4.81616C1.63208 4.85233 1.74607 4.86749 1.85979 4.86072C1.9775 4.86665 2.09522 4.84957 2.20547 4.81059C2.31572 4.77161 2.41607 4.71157 2.50009 4.63432C2.58109 4.5547 2.64423 4.46077 2.68583 4.35803C2.72744 4.25529 2.74667 4.14582 2.74237 4.03604V3.13052C2.63052 3.26507 2.48883 3.37541 2.32703 3.45394C2.1576 3.52149 1.97473 3.55456 1.79057 3.55096C1.5401 3.56867 1.29063 3.50627 1.08309 3.37405C0.875554 3.24183 0.722281 3.04762 0.648426 2.82329C0.567026 2.61655 0.531683 2.39646 0.544585 2.1765C0.537724 1.97397 0.56697 1.77179 0.631117 1.57822C0.707111 1.35132 0.858689 1.15302 1.06375 1.01226C1.27851 0.864266 1.54134 0.790012 1.80788 0.802044C2.09212 0.797293 2.37071 0.876542 2.60392 1.02845C2.80937 1.17576 2.96059 1.37921 3.03655 1.61054C3.07903 1.78574 3.10223 1.96457 3.10578 2.14418ZM2.37896 3.03351C2.53496 2.93428 2.64595 2.78444 2.69044 2.61307C2.71184 2.44658 2.71184 2.2783 2.69044 2.11181C2.71316 1.96164 2.71316 1.80922 2.69044 1.65905C2.65429 1.48425 2.54932 1.32849 2.39625 1.22248C2.23112 1.10946 2.02968 1.05241 1.82517 1.06077C1.62921 1.05679 1.43642 1.10745 1.27141 1.20629C1.11421 1.31863 1.00402 1.47879 0.959909 1.65905C0.935524 1.81453 0.935524 1.97251 0.959909 2.12799C0.924463 2.288 0.924463 2.45307 0.959909 2.61307C0.975504 2.69824 1.00967 2.77954 1.06028 2.85186C1.11088 2.92418 1.17686 2.986 1.25411 3.03351C1.41229 3.1489 1.6072 3.21155 1.80788 3.21155C2.00855 3.21155 2.20347 3.1489 2.36165 3.03351H2.37896Z" fill="white"/>
</svg>
