<svg width="6" height="26" viewBox="0 0 6 26" fill="none" xmlns="http://www.w3.org/2000/svg">
<path d="M2.67989 0.947321C2.00981 0.947321 1.36716 1.19608 0.89333 1.63882C0.419505 2.08156 0.15332 2.68205 0.15332 3.30817V23.8117C0.205929 24.4062 0.495816 24.9605 0.965458 25.3645C1.4351 25.7685 2.05015 25.9928 2.68854 25.9928C3.32693 25.9928 3.94199 25.7685 4.41163 25.3645C4.88127 24.9605 5.17117 24.4062 5.22378 23.8117V3.30817C5.22379 2.99678 5.15785 2.68847 5.0298 2.40098C4.90175 2.11349 4.71409 1.85248 4.47764 1.63304C4.24119 1.41361 3.96063 1.24009 3.65209 1.1224C3.34355 1.00472 3.01314 0.945188 2.67989 0.947321Z" fill="white"/>
</svg>
