<svg width="6" height="21" viewBox="0 0 6 21" fill="none" xmlns="http://www.w3.org/2000/svg">
<path d="M2.60456 0.0246582C2.27131 0.0246509 1.94135 0.0862572 1.63367 0.205909C1.326 0.325561 1.0467 0.500893 0.811859 0.721831C0.577017 0.942768 0.391275 1.20492 0.265325 1.49322C0.139375 1.78152 0.0757061 2.09026 0.0779887 2.40165V18.2321C0.0490027 18.5596 0.093027 18.8892 0.207278 19.2001C0.321529 19.5109 0.503525 19.7962 0.741771 20.038C0.980018 20.2798 1.26933 20.4728 1.59145 20.6048C1.91357 20.7368 2.26148 20.8049 2.61321 20.8049C2.96495 20.8049 3.31287 20.7368 3.63498 20.6048C3.9571 20.4728 4.24641 20.2798 4.48466 20.038C4.7229 19.7962 4.9049 19.5109 5.01915 19.2001C5.1334 18.8892 5.17743 18.5596 5.14845 18.2321V2.40165C5.14845 1.77123 4.88042 1.16662 4.40335 0.720844C3.92628 0.275072 3.27924 0.0246582 2.60456 0.0246582Z" fill="white"/>
</svg>
