<svg width="19" height="17" viewBox="0 0 19 17" fill="none" xmlns="http://www.w3.org/2000/svg">
<path d="M9.44564 0.721191C7.7343 0.721191 6.06139 1.19537 4.63847 2.08376C3.21555 2.97215 2.10652 4.23484 1.45162 5.71218C0.79672 7.18952 0.625365 8.81515 0.95923 10.3835C1.29309 11.9518 2.11718 13.3924 3.32728 14.5231C4.53737 15.6538 6.07914 16.4238 7.75759 16.7358C9.43604 17.0478 11.1758 16.8877 12.7569 16.2757C14.3379 15.6638 15.6893 14.6275 16.6401 13.298C17.5908 11.9684 18.0983 10.4052 18.0983 8.80618C18.0983 6.66191 17.1867 4.60545 15.564 3.08922C13.9413 1.57299 11.7405 0.721191 9.44564 0.721191Z" fill="#212225"/>
</svg>
