<svg width="14" height="13" viewBox="0 0 14 13" fill="none" xmlns="http://www.w3.org/2000/svg">
<path d="M6.5587 12.8405C5.26346 12.8437 3.99636 12.4875 2.91798 11.8171C1.83961 11.1467 0.998498 10.1923 0.501251 9.07473C0.00400358 7.95721 -0.126997 6.72691 0.124853 5.53974C0.376702 4.35258 1.00006 3.26199 1.91594 2.4062C2.83181 1.55042 3.99897 0.967956 5.26948 0.732629C6.54 0.497302 7.85669 0.619705 9.05268 1.08433C10.2487 1.54896 11.2701 2.33488 11.9876 3.34251C12.705 4.35014 13.0862 5.53411 13.0828 6.74437C13.0782 8.35984 12.3894 9.90792 11.1669 11.0502C9.94437 12.1925 8.28759 12.8362 6.5587 12.8405ZM6.5587 1.84486C5.5319 1.84486 4.52815 2.12937 3.6744 2.66241C2.82064 3.19544 2.15523 3.95306 1.76229 4.83947C1.36935 5.72587 1.26654 6.70124 1.46686 7.64224C1.66717 8.58324 2.16163 9.44761 2.88768 10.126C3.61374 10.8045 4.53879 11.2665 5.54586 11.4536C6.55294 11.6408 7.59679 11.5448 8.54543 11.1776C9.49407 10.8104 10.3049 10.1887 10.8753 9.39093C11.4458 8.59319 11.7503 7.65529 11.7503 6.69586C11.7503 5.40929 11.2033 4.17543 10.2297 3.26569C9.25609 2.35595 7.93559 1.84486 6.5587 1.84486Z" fill="white"/>
</svg>
