<svg width="6" height="24" viewBox="0 0 6 24" fill="none" xmlns="http://www.w3.org/2000/svg">
<path d="M3.3282 0.682673C2.65811 0.682673 2.01547 0.931382 1.54164 1.37412C1.06782 1.81686 0.801621 2.41735 0.801621 3.04348V21.4287C0.772635 21.7563 0.816666 22.0859 0.930917 22.3967C1.04517 22.7076 1.22716 22.9929 1.46541 23.2347C1.70366 23.4765 1.99297 23.6694 2.31508 23.8014C2.6372 23.9334 2.98512 24.0016 3.33686 24.0016C3.68859 24.0016 4.0365 23.9334 4.35862 23.8014C4.68073 23.6694 4.97006 23.4765 5.2083 23.2347C5.44655 22.9929 5.62854 22.7076 5.7428 22.3967C5.85705 22.0859 5.90106 21.7563 5.87208 21.4287V3.04348C5.87209 2.73208 5.80617 2.42377 5.67811 2.13628C5.55006 1.8488 5.36241 1.58783 5.12596 1.3684C4.88951 1.14896 4.60893 0.975393 4.30039 0.857706C3.99185 0.740019 3.66144 0.68054 3.3282 0.682673Z" fill="white"/>
</svg>
