<svg width="3" height="6" viewBox="0 0 3 6" fill="none" xmlns="http://www.w3.org/2000/svg">
<path d="M2.09888 2.83955C2.32319 2.94737 2.50054 3.12451 2.60072 3.34082C2.67757 3.53743 2.71283 3.74612 2.70455 3.95529C2.71406 4.21473 2.64828 4.47173 2.51419 4.69909C2.41467 4.86193 2.2635 4.9919 2.08156 5.07102C1.88348 5.16459 1.66303 5.2091 1.44127 5.20036C1.21455 5.20299 0.989999 5.15884 0.783661 5.07102C0.599271 4.97993 0.448513 4.83906 0.351029 4.66677C0.219164 4.44446 0.153459 4.19318 0.160695 3.9391C0.16343 3.7278 0.210441 3.51903 0.299115 3.32463C0.404801 3.11579 0.581191 2.94533 0.800984 2.83955C0.638512 2.74136 0.497546 2.61512 0.385647 2.46763C0.237342 2.29304 0.157917 2.07605 0.160695 1.85316C0.159988 1.64794 0.219852 1.44654 0.333733 1.27106C0.448441 1.11002 0.602704 0.976928 0.783661 0.882951C0.990515 0.796603 1.21472 0.752522 1.44127 0.753613C1.6758 0.747904 1.90804 0.797975 2.11618 0.899136C2.30407 0.985723 2.45614 1.12782 2.54881 1.30339C2.65466 1.46946 2.7086 1.6599 2.70455 1.85316C2.70958 2.07375 2.6366 2.28974 2.4969 2.46763C2.39511 2.60886 2.25865 2.72528 2.09888 2.80718C2.09888 2.80718 2.06427 2.82338 2.09888 2.83955ZM0.991343 2.61315C1.12654 2.67384 1.27403 2.70691 1.42398 2.71017C1.5861 2.71628 1.74713 2.68284 1.89123 2.61315C2.02354 2.54843 2.13652 2.45399 2.22001 2.33829C2.3119 2.19704 2.35984 2.03464 2.35845 1.86935C2.33338 1.74199 2.28035 1.62086 2.20271 1.5136C2.12036 1.38856 2.00773 1.28332 1.8739 1.20637C1.71827 1.13279 1.54648 1.09403 1.37206 1.09317C1.20896 1.09608 1.04888 1.13487 0.904811 1.20637C0.767263 1.27883 0.653552 1.38508 0.576006 1.5136C0.499483 1.64822 0.457997 1.79777 0.454883 1.95018C0.459698 2.11938 0.520101 2.28311 0.62792 2.41912C0.724725 2.51729 0.851679 2.58506 0.991343 2.61315ZM2.35845 3.92291C2.35955 3.76832 2.33022 3.61485 2.27192 3.47016C2.24882 3.39203 2.20941 3.31898 2.15595 3.25515C2.10248 3.19132 2.03604 3.13801 1.96044 3.09828C1.85009 3.03044 1.72561 2.98519 1.59519 2.96559C1.46478 2.94598 1.33138 2.95245 1.20383 2.98453C1.07628 3.01662 0.957476 3.07364 0.855221 3.15177C0.752967 3.2299 0.669603 3.3274 0.610624 3.43783C0.550914 3.59898 0.521631 3.76859 0.524092 3.9391C0.51619 4.15326 0.569973 4.36547 0.679834 4.55357C0.768778 4.66098 0.882877 4.74793 1.01337 4.80775C1.14385 4.86758 1.28726 4.8987 1.43261 4.8987C1.57796 4.8987 1.72139 4.86758 1.85188 4.80775C1.98237 4.74793 2.09647 4.66098 2.18541 4.55357C2.30795 4.36373 2.36811 4.14442 2.35845 3.92291Z" fill="white"/>
</svg>
