<svg width="5" height="4" viewBox="0 0 5 4" fill="none" xmlns="http://www.w3.org/2000/svg">
<path d="M4.35852 2.33063C4.35852 2.01082 4.25703 1.69818 4.06688 1.43227C3.87673 1.16635 3.60645 0.959099 3.29024 0.836713C2.97403 0.714326 2.62608 0.682301 2.29039 0.744693C1.95469 0.807085 1.64634 0.961095 1.40432 1.18724C1.1623 1.41338 0.997486 1.7015 0.930713 2.01516C0.86394 2.32883 0.898211 2.65396 1.02919 2.94942C1.16017 3.24489 1.38198 3.49743 1.66656 3.67511C1.95115 3.85278 2.28573 3.94762 2.62799 3.94762C3.08696 3.94762 3.52713 3.77726 3.85167 3.47402C4.1762 3.17077 4.35852 2.75948 4.35852 2.33063Z" fill="white"/>
</svg>
