<svg width="5" height="4" viewBox="0 0 5 4" fill="none" xmlns="http://www.w3.org/2000/svg">
<path d="M4.35852 2.01153C4.35852 1.69172 4.25703 1.37909 4.06688 1.11318C3.87673 0.847262 3.60645 0.640008 3.29024 0.517621C2.97403 0.395234 2.62608 0.363209 2.29039 0.425601C1.95469 0.487994 1.64634 0.641997 1.40432 0.868138C1.1623 1.09428 0.997486 1.38241 0.930713 1.69607C0.86394 2.00974 0.898211 2.33486 1.02919 2.63033C1.16017 2.92579 1.38198 3.17834 1.66656 3.35602C1.95115 3.53369 2.28573 3.62853 2.62799 3.62853C3.08696 3.62853 3.52713 3.45817 3.85167 3.15492C4.1762 2.85167 4.35852 2.44038 4.35852 2.01153Z" fill="white"/>
</svg>
