<svg width="6" height="23" viewBox="0 0 6 23" fill="none" xmlns="http://www.w3.org/2000/svg">
<path d="M3.0323 0.763428C2.69904 0.76342 2.36908 0.825027 2.06141 0.944679C1.75374 1.06433 1.47444 1.23966 1.23959 1.4606C1.00475 1.68154 0.819009 1.94369 0.693059 2.23199C0.567109 2.52029 0.50344 2.82903 0.505723 3.14042V20.1512C0.476737 20.4788 0.520761 20.8084 0.635013 21.1192C0.749264 21.43 0.93126 21.7154 1.16951 21.9572C1.40775 22.1989 1.69707 22.3919 2.01919 22.5239C2.3413 22.6559 2.68922 22.7241 3.04095 22.7241C3.39269 22.7241 3.7406 22.6559 4.06272 22.5239C4.38483 22.3919 4.67415 22.1989 4.9124 21.9572C5.15064 21.7154 5.33264 21.43 5.44689 21.1192C5.56114 20.8084 5.60517 20.4788 5.57618 20.1512V3.14042C5.57618 2.82827 5.51038 2.51915 5.38254 2.23076C5.2547 1.94237 5.06732 1.68034 4.83109 1.45961C4.59487 1.23889 4.31444 1.06384 4.0058 0.944383C3.69716 0.824928 3.36636 0.763428 3.0323 0.763428Z" fill="white"/>
</svg>
