<svg width="28" height="27" viewBox="0 0 28 27" fill="none" xmlns="http://www.w3.org/2000/svg">
<path d="M27.9784 10.8116C28.1183 10.1041 27.5587 9.25514 26.8593 9.25514L18.8854 8.12318L15.2482 0.765424C15.1083 0.482434 14.9685 0.340939 14.6887 0.199443C13.9892 -0.225043 13.1499 0.0579481 12.7302 0.765424L9.23288 8.12318L1.25903 9.25514C0.839353 9.25514 0.559568 9.39664 0.419676 9.67963C-0.139892 10.2456 -0.139892 11.0946 0.419676 11.6606L6.15525 17.3204L4.75633 25.3856C4.75633 25.6686 4.75633 25.9516 4.89622 26.2346C5.3159 26.9421 6.15525 27.225 6.85471 26.8006L13.9892 22.9802L21.1237 26.8006C21.2636 26.9421 21.5434 26.9421 21.8232 26.9421C21.9631 26.9421 21.9631 26.9421 22.103 26.9421C22.8024 26.8006 23.362 26.0931 23.2221 25.2441L21.8232 17.1789L27.5587 11.5191C27.8385 11.3776 27.9784 11.0946 27.9784 10.8116Z" fill="white"/>
</svg>
