<svg width="17" height="22" viewBox="0 0 17 22" fill="none" xmlns="http://www.w3.org/2000/svg">
<path d="M2.99249 20.4417C2.99249 20.7499 2.90474 21.0512 2.74033 21.3074C2.57592 21.5637 2.34224 21.7634 2.06884 21.8814C1.79543 21.9993 1.49459 22.0302 1.20434 21.9701C0.914101 21.9099 0.647495 21.7615 0.438241 21.5436C0.228987 21.3256 0.0864836 21.048 0.0287506 20.7457C-0.0289824 20.4434 0.000648296 20.1301 0.113896 19.8453C0.227143 19.5606 0.418921 19.3172 0.664977 19.146C0.911033 18.9747 1.20032 18.8833 1.49625 18.8833C1.89308 18.8833 2.27365 19.0475 2.55425 19.3398C2.83485 19.632 2.99249 20.0284 2.99249 20.4417ZM6.16542 18.8833C5.86949 18.8833 5.5802 18.9747 5.33415 19.146C5.08809 19.3172 4.89631 19.5606 4.78306 19.8453C4.66982 20.1301 4.64019 20.4434 4.69792 20.7457C4.75565 21.048 4.89816 21.3256 5.10741 21.5436C5.31666 21.7615 5.58327 21.9099 5.87351 21.9701C6.16376 22.0302 6.4646 21.9993 6.738 21.8814C7.01141 21.7634 7.24509 21.5637 7.4095 21.3074C7.57391 21.0512 7.66166 20.7499 7.66166 20.4417C7.66166 20.2364 7.62274 20.0332 7.54714 19.8437C7.47153 19.6542 7.36073 19.4821 7.22109 19.3373C7.08145 19.1925 6.91573 19.0779 6.73343 19C6.55113 18.9221 6.35586 18.8824 6.15881 18.8833H6.16542ZM10.8346 18.8833C10.5387 18.8833 10.2494 18.9747 10.0033 19.146C9.75726 19.3172 9.56548 19.5606 9.45223 19.8453C9.33899 20.1301 9.30935 20.4434 9.36709 20.7457C9.42482 21.048 9.56732 21.3256 9.77658 21.5436C9.98583 21.7615 10.2524 21.9099 10.5427 21.9701C10.8329 22.0302 11.1338 21.9993 11.4072 21.8814C11.6806 21.7634 11.9143 21.5637 12.0787 21.3074C12.2431 21.0512 12.3308 20.7499 12.3308 20.4417C12.3308 20.2364 12.2919 20.0332 12.2163 19.8437C12.1407 19.6542 12.0299 19.4821 11.8903 19.3373C11.7506 19.1925 11.5849 19.0779 11.4026 19C11.2203 18.9221 11.025 18.8824 10.828 18.8833H10.8346ZM15.5038 18.8833C15.2078 18.8833 14.9185 18.9747 14.6725 19.146C14.4264 19.3172 14.2346 19.5606 14.1214 19.8453C14.0082 20.1301 13.9785 20.4434 14.0363 20.7457C14.094 21.048 14.2365 21.3256 14.4457 21.5436C14.655 21.7615 14.9216 21.9099 15.2118 21.9701C15.5021 22.0302 15.8029 21.9993 16.0763 21.8814C16.3497 21.7634 16.5834 21.5637 16.7478 21.3074C16.9122 21.0512 17 20.7499 17 20.4417C17 20.2364 16.9611 20.0332 16.8855 19.8437C16.8099 19.6542 16.6991 19.4821 16.5594 19.3373C16.4198 19.1925 16.2541 19.0779 16.0718 19C15.8895 18.9221 15.6942 18.8824 15.4972 18.8833H15.5038ZM13.0922 15.7644H3.87264C3.44856 15.7638 3.04202 15.588 2.74215 15.2757C2.44228 14.9634 2.27356 14.54 2.27297 14.0983L2.30378 8.04376C2.30288 7.66893 2.42304 7.30467 2.64493 7.00956C2.86683 6.71445 3.17756 6.50563 3.52718 6.41668V5.25022V5.15168C3.5255 4.46307 3.65758 3.78123 3.91547 3.14716C4.17336 2.5131 4.55173 1.93991 5.02783 1.46209C5.95524 0.521882 7.19916 -0.00291534 8.4934 1.21826e-05H8.60562C11.2461 0.0779288 13.409 2.43605 13.409 5.2548V6.40063C13.7757 6.4727 14.1067 6.67585 14.3449 6.975C14.5832 7.27415 14.7136 7.65053 14.7138 8.03918L14.683 14.0938C14.6836 14.5346 14.5166 14.9578 14.2185 15.2709C13.9204 15.5839 13.5155 15.7614 13.0922 15.7644ZM9.98964 10.9519C9.98921 10.6438 9.90109 10.3427 9.73641 10.0867C9.57174 9.83078 9.3379 9.6314 9.06446 9.51381C8.79102 9.39621 8.49025 9.36568 8.20015 9.42606C7.91005 9.48645 7.64365 9.63505 7.43462 9.85308C7.22558 10.0711 7.0833 10.3488 7.02574 10.651C6.96819 10.9532 6.99795 11.2664 7.11126 11.551C7.22457 11.8357 7.41635 12.0789 7.66236 12.25C7.90837 12.4212 8.19756 12.5125 8.4934 12.5125C8.68989 12.5125 8.88445 12.4722 9.06599 12.3939C9.24752 12.3156 9.41247 12.2008 9.5514 12.0561C9.69034 11.9114 9.80056 11.7396 9.87575 11.5505C9.95094 11.3615 9.98964 11.1588 9.98964 10.9542V10.9519ZM10.6277 5.22272C10.6356 4.66084 10.4449 4.11555 10.0919 3.69051C9.739 3.26547 9.24841 2.9903 8.71343 2.9173C8.62872 2.90684 8.5435 2.90149 8.45819 2.90126C7.93039 2.90095 7.42136 3.10517 7.03016 3.47418C6.80412 3.68474 6.62322 3.94254 6.49925 4.23079C6.37527 4.51903 6.31101 4.83125 6.31064 5.14709V6.37543H10.6277V5.22272Z" fill="#F8D707"/>
</svg>
