<svg width="26" height="26" viewBox="0 0 26 26" fill="none" xmlns="http://www.w3.org/2000/svg">
<path d="M10.2721 0C4.61331 0 0 4.61331 0 10.2721C0 15.931 4.6133 20.5443 10.2721 20.5443C12.6692 20.5443 14.8755 19.7194 16.6261 18.335L23.9148 25.6237C24.0269 25.7371 24.1603 25.8272 24.3072 25.889C24.4542 25.9507 24.612 25.9828 24.7714 25.9835C24.9308 25.9842 25.0888 25.9534 25.2363 25.8929C25.3838 25.8324 25.5179 25.7434 25.631 25.631C25.744 25.5185 25.8337 25.3849 25.895 25.2378C25.9564 25.0906 25.988 24.9328 25.9882 24.7733C25.9884 24.6139 25.9572 24.456 25.8962 24.3087C25.8353 24.1614 25.7459 24.0275 25.6331 23.9148L18.335 16.6167C19.7128 14.8682 20.5443 12.6629 20.5443 10.2721C20.5443 4.61331 15.931 0 10.2721 0ZM10.2721 2.41697C14.6247 2.41697 18.1273 5.91954 18.1273 10.2721C18.1273 14.6247 14.6247 18.1273 10.2721 18.1273C5.91954 18.1273 2.41697 14.6247 2.41697 10.2721C2.41697 5.91954 5.91954 2.41697 10.2721 2.41697Z" fill="white"/>
</svg>
