<svg width="3" height="6" viewBox="0 0 3 6" fill="none" xmlns="http://www.w3.org/2000/svg">
<path d="M2.4499 3.82596C2.48476 4.02406 2.48476 4.22614 2.4499 4.42424C2.3786 4.6533 2.22603 4.85289 2.01726 4.9902C1.8025 5.13819 1.53968 5.21245 1.27314 5.20042C0.990782 5.20992 0.712357 5.13639 0.477092 4.9902C0.264917 4.84196 0.112483 4.63117 0.0444596 4.39192C0.013826 4.20435 0.013826 4.01352 0.0444596 3.82596V1.8694C0.0369703 1.71936 0.0639869 1.56953 0.12369 1.43007C0.183394 1.2906 0.274391 1.16473 0.390561 1.0609C0.510889 0.95599 0.652557 0.874743 0.807139 0.821967C0.961721 0.76919 1.12607 0.745957 1.29044 0.753671C1.4482 0.745425 1.60611 0.766928 1.75476 0.816933C1.90342 0.866939 2.03978 0.944412 2.15571 1.04472C2.26786 1.14116 2.35674 1.25886 2.41641 1.3899C2.47609 1.52094 2.5052 1.66233 2.50181 1.80471C2.46957 1.84487 2.42777 1.8775 2.37971 1.89995C2.33165 1.9224 2.27866 1.9341 2.22493 1.9341C2.19207 1.68471 2.08404 1.44916 1.91344 1.25494C1.73941 1.11743 1.51835 1.04283 1.29044 1.04472C1.05374 1.04013 0.824306 1.12127 0.650143 1.27112C0.567474 1.34964 0.503228 1.44336 0.461513 1.54638C0.419798 1.64939 0.401531 1.75942 0.40787 1.8694V2.87193C0.516116 2.7382 0.659055 2.63246 0.823193 2.5647C0.992621 2.49716 1.1755 2.46409 1.35967 2.46768C1.60739 2.45186 1.85375 2.51308 2.06035 2.64178C2.26694 2.77048 2.42217 2.95941 2.50181 3.17917C2.52042 3.39598 2.50291 3.61417 2.4499 3.82596ZM2.1038 3.82596C2.13653 3.6657 2.13653 3.50113 2.1038 3.34088C2.06523 3.17138 1.9603 3.02143 1.8096 2.92044C1.6511 2.80738 1.45502 2.75011 1.25583 2.75873C1.05133 2.75037 0.849897 2.80742 0.684761 2.92044C0.542684 3.03561 0.440302 3.18757 0.390561 3.35706C0.367892 3.51807 0.367892 3.68114 0.390561 3.84214C0.367836 3.99232 0.367836 4.14473 0.390561 4.2949C0.405882 4.38235 0.439818 4.46605 0.490348 4.54104C0.540878 4.61603 0.606986 4.68076 0.684761 4.73147C0.847623 4.85026 1.04926 4.91309 1.25583 4.90937C1.45464 4.91532 1.64978 4.85833 1.8096 4.74766C1.97027 4.63836 2.08139 4.47686 2.12109 4.2949C2.13975 4.13864 2.13393 3.98065 2.1038 3.82596Z" fill="white"/>
</svg>
