<svg width="6" height="21" viewBox="0 0 6 21" fill="none" xmlns="http://www.w3.org/2000/svg">
<path d="M3.13777 0.0246582C3.81244 0.0246582 4.45949 0.275072 4.93656 0.720844C5.41363 1.16662 5.68165 1.77123 5.68165 2.40165V18.2321C5.71063 18.5596 5.66662 18.8892 5.55237 19.2001C5.43811 19.5109 5.25611 19.7962 5.01786 20.038C4.77961 20.2798 4.49032 20.4728 4.1682 20.6048C3.84608 20.7368 3.49816 20.8049 3.14643 20.8049C2.79469 20.8049 2.44677 20.7368 2.12465 20.6048C1.80254 20.4728 1.51321 20.2798 1.27497 20.038C1.03672 19.7962 0.854738 19.5109 0.740487 19.2001C0.626236 18.8892 0.582205 18.5596 0.611191 18.2321V2.40165C0.608909 2.09026 0.672577 1.78152 0.798527 1.49322C0.924477 1.20492 1.11023 0.942768 1.34507 0.721831C1.57992 0.500893 1.8592 0.325561 2.16688 0.205909C2.47455 0.0862572 2.80451 0.0246509 3.13777 0.0246582Z" fill="white"/>
</svg>
