<svg width="14" height="14" viewBox="0 0 14 14" fill="none" xmlns="http://www.w3.org/2000/svg">
<path d="M6.55926 13.0342C5.26892 13.0342 4.00755 12.6767 2.93466 12.0068C1.86178 11.337 1.02557 10.3849 0.531777 9.271C0.0379832 8.15709 -0.091216 6.93137 0.160518 5.74884C0.412252 4.56632 1.03361 3.4801 1.94602 2.62754C2.85844 1.77499 4.02092 1.1944 5.28647 0.959177C6.55203 0.723958 7.8638 0.844687 9.05593 1.30609C10.2481 1.76748 11.267 2.54883 11.9839 3.55133C12.7007 4.55383 13.0834 5.73244 13.0834 6.93813C13.0834 8.55491 12.396 10.1055 11.1725 11.2487C9.94899 12.3919 8.28956 13.0342 6.55926 13.0342ZM6.55926 2.0548C5.53246 2.0548 4.52872 2.3393 3.67497 2.87233C2.82121 3.40536 2.1558 4.16299 1.76286 5.04939C1.36992 5.93579 1.26711 6.91117 1.46742 7.85217C1.66774 8.79317 2.16219 9.65753 2.88825 10.336C3.61431 11.0144 4.53936 11.4764 5.54643 11.6636C6.5535 11.8507 7.59736 11.7547 8.546 11.3875C9.49464 11.0204 10.3055 10.3986 10.8759 9.60086C11.4464 8.80312 11.7509 7.86523 11.7509 6.90579C11.7509 5.61923 11.2039 4.38536 10.2303 3.47562C9.25666 2.56588 7.93616 2.0548 6.55926 2.0548Z" fill="white"/>
</svg>
