<svg width="3" height="6" viewBox="0 0 3 6" fill="none" xmlns="http://www.w3.org/2000/svg">
<path d="M0.742835 5.07105L2.3003 1.12557H0.34482C0.329668 1.22207 0.329668 1.32011 0.34482 1.41662C0.283487 1.46921 0.203082 1.49808 0.119843 1.49745C0.0902608 1.30439 0.0902608 1.10841 0.119843 0.915352C0.119843 0.834502 2.69832 0.834473 2.69832 0.834473C2.72489 0.913417 2.72489 0.998118 2.69832 1.07706C2.70641 1.10896 2.70641 1.14218 2.69832 1.17408L1.15815 5.11956C1.14499 5.12665 1.13008 5.13036 1.11489 5.13036C1.0997 5.13036 1.08479 5.12665 1.07164 5.11956H0.846663C0.846663 5.11956 0.72553 5.11956 0.742835 5.07105Z" fill="white"/>
</svg>
