<svg width="11" height="10" viewBox="0 0 11 10" fill="none" xmlns="http://www.w3.org/2000/svg">
<path d="M6.99988 5.18732C6.99988 5.97584 6.36268 6.61304 5.57416 6.61304C4.78563 6.61304 4.14844 5.97584 4.14844 5.18732C4.14844 4.39879 4.78563 3.7616 5.57416 3.7616C6.36268 3.7616 6.99988 4.39879 6.99988 5.18732Z" stroke="#5B5B5B" stroke-width="0.597369" stroke-linecap="round" stroke-linejoin="round"/>
<path d="M5.57457 8.48074C6.98038 8.48074 8.29061 7.65239 9.20259 6.2187C9.56101 5.65718 9.56101 4.71333 9.20259 4.15181C8.29061 2.71812 6.98038 1.88977 5.57457 1.88977C4.16876 1.88977 2.85853 2.71812 1.94655 4.15181C1.58813 4.71333 1.58813 5.65718 1.94655 6.2187C2.85853 7.65239 4.16876 8.48074 5.57457 8.48074Z" stroke="#5B5B5B" stroke-width="0.597369" stroke-linecap="round" stroke-linejoin="round"/>
</svg>
